<svg width="449" height="282" viewBox="0 0 449 282" fill="none" xmlns="http://www.w3.org/2000/svg">
<g filter="url(#filter0_d_293_3925)">
<rect x="4" width="441" height="274" rx="8" fill="#F5F7FB"/>
<rect x="4" width="441" height="274" rx="8" fill="#F5F7FB"/>
<path d="M57.07 31.0586V19.4222H59.5302V24.2234H64.5245V19.4222H66.979V31.0586H64.5245V26.2518H59.5302V31.0586H57.07ZM79.7006 25.2404C79.7006 26.5094 79.4601 27.5889 78.979 28.479C78.5018 29.3692 77.8503 30.0491 77.0245 30.5188C76.2025 30.9847 75.2783 31.2177 74.2518 31.2177C73.2177 31.2177 72.2897 30.9828 71.4677 30.5131C70.6457 30.0434 69.9961 29.3635 69.5188 28.4734C69.0415 27.5832 68.8029 26.5056 68.8029 25.2404C68.8029 23.9715 69.0415 22.8919 69.5188 22.0018C69.9961 21.1116 70.6457 20.4336 71.4677 19.9677C72.2897 19.498 73.2177 19.2631 74.2518 19.2631C75.2783 19.2631 76.2025 19.498 77.0245 19.9677C77.8503 20.4336 78.5018 21.1116 78.979 22.0018C79.4601 22.8919 79.7006 23.9715 79.7006 25.2404ZM77.2063 25.2404C77.2063 24.4184 77.0832 23.7253 76.837 23.1609C76.5946 22.5965 76.2518 22.1684 75.8086 21.8768C75.3654 21.5851 74.8465 21.4393 74.2518 21.4393C73.6571 21.4393 73.1381 21.5851 72.695 21.8768C72.2518 22.1684 71.9071 22.5965 71.6609 23.1609C71.4184 23.7253 71.2972 24.4184 71.2972 25.2404C71.2972 26.0624 71.4184 26.7556 71.6609 27.32C71.9071 27.8844 72.2518 28.3124 72.695 28.604C73.1381 28.8957 73.6571 29.0415 74.2518 29.0415C74.8465 29.0415 75.3654 28.8957 75.8086 28.604C76.2518 28.3124 76.5946 27.8844 76.837 27.32C77.0832 26.7556 77.2063 26.0624 77.2063 25.2404ZM81.5231 31.0586V19.4222H86.114C86.9928 19.4222 87.7428 19.5794 88.364 19.8938C88.989 20.2044 89.4644 20.6457 89.7901 21.2177C90.1197 21.7859 90.2844 22.4544 90.2844 23.2234C90.2844 23.9961 90.1178 24.6609 89.7844 25.2177C89.4511 25.7707 88.9682 26.195 88.3356 26.4904C87.7068 26.7859 86.9454 26.9336 86.0515 26.9336H82.9776V24.9563H85.6538C86.1235 24.9563 86.5136 24.8919 86.8242 24.7631C87.1348 24.6344 87.3659 24.4412 87.5174 24.1836C87.6727 23.926 87.7504 23.6059 87.7504 23.2234C87.7504 22.837 87.6727 22.5112 87.5174 22.2461C87.3659 21.9809 87.1329 21.7802 86.8185 21.6438C86.5079 21.5037 86.1159 21.4336 85.6424 21.4336H83.9833V31.0586H81.5231ZM87.8072 25.7631L90.6992 31.0586H87.9833L85.1538 25.7631H87.8072ZM94.0288 31.0586H91.3924L95.4094 19.4222H98.5799L102.591 31.0586H99.9549L97.0401 22.0813H96.9492L94.0288 31.0586ZM93.864 26.4847H100.091V28.4052H93.864V26.4847ZM96.1254 18.2972L97.3299 15.712H99.5685L97.8356 18.2972H96.1254ZM103.992 31.0586V19.4222H108.583C109.462 19.4222 110.212 19.5794 110.833 19.8938C111.458 20.2044 111.933 20.6457 112.259 21.2177C112.588 21.7859 112.753 22.4544 112.753 23.2234C112.753 23.9961 112.587 24.6609 112.253 25.2177C111.92 25.7707 111.437 26.195 110.804 26.4904C110.176 26.7859 109.414 26.9336 108.52 26.9336H105.446V24.9563H108.123C108.592 24.9563 108.982 24.8919 109.293 24.7631C109.604 24.6344 109.835 24.4412 109.986 24.1836C110.141 23.926 110.219 23.6059 110.219 23.2234C110.219 22.837 110.141 22.5112 109.986 22.2461C109.835 21.9809 109.602 21.7802 109.287 21.6438C108.977 21.5037 108.585 21.4336 108.111 21.4336H106.452V31.0586H103.992ZM110.276 25.7631L113.168 31.0586H110.452L107.623 25.7631H110.276ZM116.952 19.4222V31.0586H114.492V19.4222H116.952ZM129.669 25.2404C129.669 26.5094 129.429 27.5889 128.948 28.479C128.471 29.3692 127.819 30.0491 126.993 30.5188C126.171 30.9847 125.247 31.2177 124.221 31.2177C123.186 31.2177 122.258 30.9828 121.436 30.5131C120.614 30.0434 119.965 29.3635 119.488 28.4734C119.01 27.5832 118.772 26.5056 118.772 25.2404C118.772 23.9715 119.01 22.8919 119.488 22.0018C119.965 21.1116 120.614 20.4336 121.436 19.9677C122.258 19.498 123.186 19.2631 124.221 19.2631C125.247 19.2631 126.171 19.498 126.993 19.9677C127.819 20.4336 128.471 21.1116 128.948 22.0018C129.429 22.8919 129.669 23.9715 129.669 25.2404ZM127.175 25.2404C127.175 24.4184 127.052 23.7253 126.806 23.1609C126.563 22.5965 126.221 22.1684 125.777 21.8768C125.334 21.5851 124.815 21.4393 124.221 21.4393C123.626 21.4393 123.107 21.5851 122.664 21.8768C122.221 22.1684 121.876 22.5965 121.63 23.1609C121.387 23.7253 121.266 24.4184 121.266 25.2404C121.266 26.0624 121.387 26.7556 121.63 27.32C121.876 27.8844 122.221 28.3124 122.664 28.604C123.107 28.8957 123.626 29.0415 124.221 29.0415C124.815 29.0415 125.334 28.8957 125.777 28.604C126.221 28.3124 126.563 27.8844 126.806 27.32C127.052 26.7556 127.175 26.0624 127.175 25.2404ZM137.804 22.7688C137.759 22.3105 137.564 21.9544 137.219 21.7006C136.874 21.4469 136.407 21.32 135.816 21.32C135.414 21.32 135.075 21.3768 134.799 21.4904C134.522 21.6003 134.31 21.7537 134.162 21.9506C134.018 22.1476 133.946 22.3711 133.946 22.6211C133.939 22.8294 133.982 23.0112 134.077 23.1665C134.176 23.3219 134.31 23.4563 134.48 23.57C134.651 23.6798 134.848 23.7764 135.071 23.8597C135.295 23.9393 135.533 24.0075 135.787 24.0643L136.833 24.3143C137.34 24.4279 137.806 24.5794 138.23 24.7688C138.655 24.9582 139.022 25.1912 139.333 25.4677C139.643 25.7442 139.884 26.07 140.054 26.445C140.229 26.82 140.318 27.2499 140.321 27.7347C140.318 28.4469 140.136 29.0643 139.776 29.587C139.42 30.1059 138.905 30.5094 138.23 30.7972C137.56 31.0813 136.751 31.2234 135.804 31.2234C134.865 31.2234 134.047 31.0794 133.35 30.7915C132.657 30.5037 132.115 30.0775 131.725 29.5131C131.338 28.945 131.136 28.2423 131.117 27.4052H133.498C133.524 27.7953 133.636 28.1211 133.833 28.3825C134.033 28.64 134.301 28.8351 134.634 28.9677C134.971 29.0965 135.352 29.1609 135.776 29.1609C136.193 29.1609 136.554 29.1003 136.861 28.979C137.172 28.8578 137.412 28.6893 137.583 28.4734C137.753 28.2575 137.838 28.0094 137.838 27.729C137.838 27.4677 137.761 27.248 137.605 27.07C137.454 26.8919 137.23 26.7404 136.935 26.6154C136.643 26.4904 136.285 26.3768 135.861 26.2745L134.594 25.9563C133.613 25.7177 132.838 25.3446 132.27 24.837C131.702 24.3294 131.42 23.6457 131.424 22.7859C131.42 22.0813 131.607 21.4658 131.986 20.9393C132.369 20.4128 132.893 20.0018 133.56 19.7063C134.227 19.4109 134.984 19.2631 135.833 19.2631C136.696 19.2631 137.45 19.4109 138.094 19.7063C138.742 20.0018 139.246 20.4128 139.605 20.9393C139.965 21.4658 140.151 22.0756 140.162 22.7688H137.804ZM149.804 31.0586H145.679V19.4222H149.838C151.009 19.4222 152.016 19.6552 152.861 20.1211C153.706 20.5832 154.355 21.248 154.81 22.1154C155.268 22.9828 155.498 24.0207 155.498 25.229C155.498 26.4412 155.268 27.4828 154.81 28.354C154.355 29.2253 153.702 29.8938 152.85 30.3597C152.001 30.8256 150.986 31.0586 149.804 31.0586ZM148.14 28.9506H149.702C150.429 28.9506 151.041 28.8219 151.537 28.5643C152.037 28.3029 152.412 27.8995 152.662 27.354C152.916 26.8048 153.043 26.0965 153.043 25.229C153.043 24.3692 152.916 23.6665 152.662 23.1211C152.412 22.5756 152.039 22.1741 151.543 21.9165C151.047 21.659 150.435 21.5302 149.708 21.5302H148.14V28.9506ZM157.32 31.0586V19.4222H165.161V21.4506H159.78V24.2234H164.757V26.2518H159.78V29.0302H165.184V31.0586H157.32ZM170.82 31.0586V19.4222H175.411C176.293 19.4222 177.045 19.5908 177.667 19.9279C178.288 20.2612 178.761 20.7253 179.087 21.32C179.417 21.9109 179.581 22.5927 179.581 23.3654C179.581 24.1381 179.415 24.82 179.081 25.4109C178.748 26.0018 178.265 26.462 177.632 26.7915C177.004 27.1211 176.242 27.2859 175.348 27.2859H172.422V25.3143H174.951C175.424 25.3143 175.814 25.2328 176.121 25.07C176.432 24.9033 176.663 24.6741 176.814 24.3825C176.97 24.087 177.047 23.748 177.047 23.3654C177.047 22.979 176.97 22.6419 176.814 22.354C176.663 22.0624 176.432 21.837 176.121 21.6779C175.81 21.515 175.417 21.4336 174.939 21.4336H173.28V31.0586H170.82ZM183.64 19.4222V31.0586H181.179V19.4222H183.64ZM195.931 23.4961H193.442C193.397 23.1741 193.304 22.8881 193.164 22.6381C193.024 22.3844 192.844 22.1684 192.624 21.9904C192.404 21.8124 192.15 21.676 191.863 21.5813C191.578 21.4866 191.27 21.4393 190.936 21.4393C190.334 21.4393 189.81 21.5889 189.363 21.8881C188.916 22.1836 188.569 22.6154 188.323 23.1836C188.077 23.748 187.953 24.4336 187.953 25.2404C187.953 26.07 188.077 26.7669 188.323 27.3313C188.573 27.8957 188.921 28.3219 189.368 28.6097C189.815 28.8976 190.332 29.0415 190.919 29.0415C191.249 29.0415 191.554 28.998 191.834 28.9109C192.118 28.8237 192.37 28.6969 192.59 28.5302C192.81 28.3597 192.991 28.1533 193.135 27.9109C193.283 27.6684 193.385 27.3919 193.442 27.0813L195.931 27.0927C195.866 27.6268 195.705 28.1419 195.448 28.6381C195.194 29.1306 194.851 29.5719 194.419 29.962C193.991 30.3484 193.48 30.6552 192.885 30.8825C192.294 31.1059 191.626 31.2177 190.88 31.2177C189.842 31.2177 188.914 30.9828 188.096 30.5131C187.281 30.0434 186.637 29.3635 186.164 28.4734C185.694 27.5832 185.459 26.5056 185.459 25.2404C185.459 23.9715 185.698 22.8919 186.175 22.0018C186.652 21.1116 187.3 20.4336 188.118 19.9677C188.936 19.498 189.857 19.2631 190.88 19.2631C191.554 19.2631 192.179 19.3578 192.755 19.5472C193.334 19.7366 193.847 20.0131 194.294 20.3768C194.741 20.7366 195.105 21.1779 195.385 21.7006C195.669 22.2234 195.851 22.8219 195.931 23.4961ZM208.388 25.2404C208.388 26.5094 208.148 27.5889 207.667 28.479C207.189 29.3692 206.538 30.0491 205.712 30.5188C204.89 30.9847 203.966 31.2177 202.939 31.2177C201.905 31.2177 200.977 30.9828 200.155 30.5131C199.333 30.0434 198.684 29.3635 198.206 28.4734C197.729 27.5832 197.49 26.5056 197.49 25.2404C197.49 23.9715 197.729 22.8919 198.206 22.0018C198.684 21.1116 199.333 20.4336 200.155 19.9677C200.977 19.498 201.905 19.2631 202.939 19.2631C203.966 19.2631 204.89 19.498 205.712 19.9677C206.538 20.4336 207.189 21.1116 207.667 22.0018C208.148 22.8919 208.388 23.9715 208.388 25.2404ZM205.894 25.2404C205.894 24.4184 205.771 23.7253 205.525 23.1609C205.282 22.5965 204.939 22.1684 204.496 21.8768C204.053 21.5851 203.534 21.4393 202.939 21.4393C202.345 21.4393 201.826 21.5851 201.382 21.8768C200.939 22.1684 200.595 22.5965 200.348 23.1609C200.106 23.7253 199.985 24.4184 199.985 25.2404C199.985 26.0624 200.106 26.7556 200.348 27.32C200.595 27.8844 200.939 28.3124 201.382 28.604C201.826 28.8957 202.345 29.0415 202.939 29.0415C203.534 29.0415 204.053 28.8957 204.496 28.604C204.939 28.3124 205.282 27.8844 205.525 27.32C205.771 26.7556 205.894 26.0624 205.894 25.2404ZM218.039 31.0586H213.914V19.4222H218.073C219.243 19.4222 220.251 19.6552 221.096 20.1211C221.94 20.5832 222.59 21.248 223.044 22.1154C223.503 22.9828 223.732 24.0207 223.732 25.229C223.732 26.4412 223.503 27.4828 223.044 28.354C222.59 29.2253 221.936 29.8938 221.084 30.3597C220.236 30.8256 219.221 31.0586 218.039 31.0586ZM216.374 28.9506H217.936C218.664 28.9506 219.275 28.8219 219.772 28.5643C220.272 28.3029 220.647 27.8995 220.897 27.354C221.15 26.8048 221.277 26.0965 221.277 25.229C221.277 24.3692 221.15 23.6665 220.897 23.1211C220.647 22.5756 220.274 22.1741 219.777 21.9165C219.281 21.659 218.669 21.5302 217.942 21.5302H216.374V28.9506ZM236.248 25.2404C236.248 26.5094 236.007 27.5889 235.526 28.479C235.049 29.3692 234.397 30.0491 233.571 30.5188C232.749 30.9847 231.825 31.2177 230.799 31.2177C229.765 31.2177 228.837 30.9828 228.015 30.5131C227.193 30.0434 226.543 29.3635 226.066 28.4734C225.588 27.5832 225.35 26.5056 225.35 25.2404C225.35 23.9715 225.588 22.8919 226.066 22.0018C226.543 21.1116 227.193 20.4336 228.015 19.9677C228.837 19.498 229.765 19.2631 230.799 19.2631C231.825 19.2631 232.749 19.498 233.571 19.9677C234.397 20.4336 235.049 21.1116 235.526 22.0018C236.007 22.8919 236.248 23.9715 236.248 25.2404ZM233.753 25.2404C233.753 24.4184 233.63 23.7253 233.384 23.1609C233.141 22.5965 232.799 22.1684 232.355 21.8768C231.912 21.5851 231.393 21.4393 230.799 21.4393C230.204 21.4393 229.685 21.5851 229.242 21.8768C228.799 22.1684 228.454 22.5965 228.208 23.1609C227.965 23.7253 227.844 24.4184 227.844 25.2404C227.844 26.0624 227.965 26.7556 228.208 27.32C228.454 27.8844 228.799 28.3124 229.242 28.604C229.685 28.8957 230.204 29.0415 230.799 29.0415C231.393 29.0415 231.912 28.8957 232.355 28.604C232.799 28.3124 233.141 27.8844 233.384 27.32C233.63 26.7556 233.753 26.0624 233.753 25.2404ZM241.773 31.0586V19.4222H249.614V21.4506H244.233V24.2234H249.211V26.2518H244.233V29.0302H249.637V31.0586H241.773ZM257.882 22.7688C257.837 22.3105 257.642 21.9544 257.297 21.7006C256.953 21.4469 256.485 21.32 255.894 21.32C255.492 21.32 255.153 21.3768 254.877 21.4904C254.6 21.6003 254.388 21.7537 254.24 21.9506C254.096 22.1476 254.025 22.3711 254.025 22.6211C254.017 22.8294 254.06 23.0112 254.155 23.1665C254.254 23.3219 254.388 23.4563 254.559 23.57C254.729 23.6798 254.926 23.7764 255.15 23.8597C255.373 23.9393 255.612 24.0075 255.865 24.0643L256.911 24.3143C257.418 24.4279 257.884 24.5794 258.309 24.7688C258.733 24.9582 259.1 25.1912 259.411 25.4677C259.721 25.7442 259.962 26.07 260.132 26.445C260.307 26.82 260.396 27.2499 260.4 27.7347C260.396 28.4469 260.214 29.0643 259.854 29.587C259.498 30.1059 258.983 30.5094 258.309 30.7972C257.638 31.0813 256.829 31.2234 255.882 31.2234C254.943 31.2234 254.125 31.0794 253.428 30.7915C252.735 30.5037 252.193 30.0775 251.803 29.5131C251.417 28.945 251.214 28.2423 251.195 27.4052H253.576C253.602 27.7953 253.714 28.1211 253.911 28.3825C254.112 28.64 254.379 28.8351 254.712 28.9677C255.049 29.0965 255.43 29.1609 255.854 29.1609C256.271 29.1609 256.632 29.1003 256.939 28.979C257.25 28.8578 257.49 28.6893 257.661 28.4734C257.831 28.2575 257.917 28.0094 257.917 27.729C257.917 27.4677 257.839 27.248 257.684 27.07C257.532 26.8919 257.309 26.7404 257.013 26.6154C256.721 26.4904 256.364 26.3768 255.939 26.2745L254.672 25.9563C253.691 25.7177 252.917 25.3446 252.348 24.837C251.78 24.3294 251.498 23.6457 251.502 22.7859C251.498 22.0813 251.685 21.4658 252.064 20.9393C252.447 20.4128 252.971 20.0018 253.638 19.7063C254.305 19.4109 255.062 19.2631 255.911 19.2631C256.775 19.2631 257.528 19.4109 258.172 19.7063C258.82 20.0018 259.324 20.4128 259.684 20.9393C260.043 21.4658 260.229 22.0756 260.24 22.7688H257.882ZM261.611 21.4506V19.4222H271.168V21.4506H267.605V31.0586H265.174V21.4506H261.611ZM273.326 31.0586H270.689L274.706 19.4222H277.877L281.888 31.0586H279.252L276.337 22.0813H276.246L273.326 31.0586ZM273.161 26.4847H279.388V28.4052H273.161V26.4847ZM293.009 23.4961H290.52C290.475 23.1741 290.382 22.8881 290.242 22.6381C290.102 22.3844 289.922 22.1684 289.702 21.9904C289.482 21.8124 289.229 21.676 288.941 21.5813C288.657 21.4866 288.348 21.4393 288.015 21.4393C287.412 21.4393 286.888 21.5889 286.441 21.8881C285.994 22.1836 285.647 22.6154 285.401 23.1836C285.155 23.748 285.032 24.4336 285.032 25.2404C285.032 26.07 285.155 26.7669 285.401 27.3313C285.651 27.8957 285.999 28.3219 286.446 28.6097C286.893 28.8976 287.41 29.0415 287.998 29.0415C288.327 29.0415 288.632 28.998 288.912 28.9109C289.196 28.8237 289.448 28.6969 289.668 28.5302C289.888 28.3597 290.069 28.1533 290.213 27.9109C290.361 27.6684 290.463 27.3919 290.52 27.0813L293.009 27.0927C292.944 27.6268 292.783 28.1419 292.526 28.6381C292.272 29.1306 291.929 29.5719 291.498 29.962C291.069 30.3484 290.558 30.6552 289.963 30.8825C289.373 31.1059 288.704 31.2177 287.958 31.2177C286.92 31.2177 285.992 30.9828 285.174 30.5131C284.359 30.0434 283.715 29.3635 283.242 28.4734C282.772 27.5832 282.537 26.5056 282.537 25.2404C282.537 23.9715 282.776 22.8919 283.253 22.0018C283.73 21.1116 284.378 20.4336 285.196 19.9677C286.015 19.498 286.935 19.2631 287.958 19.2631C288.632 19.2631 289.257 19.3578 289.833 19.5472C290.412 19.7366 290.926 20.0131 291.373 20.3768C291.819 20.7366 292.183 21.1779 292.463 21.7006C292.748 22.2234 292.929 22.8219 293.009 23.4961ZM297.233 19.4222V31.0586H294.773V19.4222H297.233ZM309.951 25.2404C309.951 26.5094 309.71 27.5889 309.229 28.479C308.752 29.3692 308.1 30.0491 307.275 30.5188C306.453 30.9847 305.528 31.2177 304.502 31.2177C303.468 31.2177 302.54 30.9828 301.718 30.5131C300.896 30.0434 300.246 29.3635 299.769 28.4734C299.292 27.5832 299.053 26.5056 299.053 25.2404C299.053 23.9715 299.292 22.8919 299.769 22.0018C300.246 21.1116 300.896 20.4336 301.718 19.9677C302.54 19.498 303.468 19.2631 304.502 19.2631C305.528 19.2631 306.453 19.498 307.275 19.9677C308.1 20.4336 308.752 21.1116 309.229 22.0018C309.71 22.8919 309.951 23.9715 309.951 25.2404ZM307.456 25.2404C307.456 24.4184 307.333 23.7253 307.087 23.1609C306.845 22.5965 306.502 22.1684 306.059 21.8768C305.615 21.5851 305.096 21.4393 304.502 21.4393C303.907 21.4393 303.388 21.5851 302.945 21.8768C302.502 22.1684 302.157 22.5965 301.911 23.1609C301.668 23.7253 301.547 24.4184 301.547 25.2404C301.547 26.0624 301.668 26.7556 301.911 27.32C302.157 27.8844 302.502 28.3124 302.945 28.604C303.388 28.8957 303.907 29.0415 304.502 29.0415C305.096 29.0415 305.615 28.8957 306.059 28.604C306.502 28.3124 306.845 27.8844 307.087 27.32C307.333 26.7556 307.456 26.0624 307.456 25.2404ZM321.506 19.4222V31.0586H319.381L314.319 23.7347H314.233V31.0586H311.773V19.4222H313.932L318.955 26.7404H319.057V19.4222H321.506ZM325.544 31.0586H322.908L326.925 19.4222H330.096L334.107 31.0586H331.471L328.556 22.0813H328.465L325.544 31.0586ZM325.38 26.4847H331.607V28.4052H325.38V26.4847ZM335.507 19.4222H338.542L341.746 27.2404H341.882L345.087 19.4222H348.121V31.0586H345.735V23.4847H345.638L342.627 31.0018H341.002L337.99 23.4563H337.894V31.0586H335.507V19.4222ZM350.148 31.0586V19.4222H357.989V21.4506H352.608V24.2234H357.586V26.2518H352.608V29.0302H358.012V31.0586H350.148ZM369.678 19.4222V31.0586H367.553L362.49 23.7347H362.405V31.0586H359.945V19.4222H362.104L367.127 26.7404H367.229V19.4222H369.678ZM371.267 21.4506V19.4222H380.824V21.4506H377.262V31.0586H374.83V21.4506H371.267ZM392.56 25.2404C392.56 26.5094 392.319 27.5889 391.838 28.479C391.361 29.3692 390.71 30.0491 389.884 30.5188C389.062 30.9847 388.138 31.2177 387.111 31.2177C386.077 31.2177 385.149 30.9828 384.327 30.5131C383.505 30.0434 382.855 29.3635 382.378 28.4734C381.901 27.5832 381.662 26.5056 381.662 25.2404C381.662 23.9715 381.901 22.8919 382.378 22.0018C382.855 21.1116 383.505 20.4336 384.327 19.9677C385.149 19.498 386.077 19.2631 387.111 19.2631C388.138 19.2631 389.062 19.498 389.884 19.9677C390.71 20.4336 391.361 21.1116 391.838 22.0018C392.319 22.8919 392.56 23.9715 392.56 25.2404ZM390.066 25.2404C390.066 24.4184 389.943 23.7253 389.696 23.1609C389.454 22.5965 389.111 22.1684 388.668 21.8768C388.225 21.5851 387.706 21.4393 387.111 21.4393C386.516 21.4393 385.998 21.5851 385.554 21.8768C385.111 22.1684 384.766 22.5965 384.52 23.1609C384.278 23.7253 384.157 24.4184 384.157 25.2404C384.157 26.0624 384.278 26.7556 384.52 27.32C384.766 27.8844 385.111 28.3124 385.554 28.604C385.998 28.8957 386.516 29.0415 387.111 29.0415C387.706 29.0415 388.225 28.8957 388.668 28.604C389.111 28.3124 389.454 27.8844 389.696 27.32C389.943 26.7556 390.066 26.0624 390.066 25.2404ZM105.074 44.2404C105.074 42.8313 105.262 41.534 105.637 40.3484C106.016 39.1628 106.593 38.0643 107.37 37.0529H109.682C109.387 37.4279 109.112 37.8862 108.858 38.4279C108.605 38.9658 108.383 39.5567 108.194 40.2006C108.004 40.8446 107.856 41.5112 107.75 42.2006C107.644 42.8862 107.591 43.5662 107.591 44.2404C107.591 45.1381 107.682 46.0453 107.864 46.962C108.05 47.8749 108.3 48.7234 108.614 49.5075C108.932 50.2915 109.288 50.9336 109.682 51.4336H107.37C106.593 50.4222 106.016 49.3237 105.637 48.1381C105.262 46.9525 105.074 45.6533 105.074 44.2404ZM120.865 38.4222V50.0586H118.74L113.678 42.7347H113.593V50.0586H111.132V38.4222H113.292L118.314 45.7404H118.417V38.4222H120.865ZM133.591 44.2404C133.591 45.5094 133.351 46.5889 132.87 47.479C132.392 48.3692 131.741 49.0491 130.915 49.5188C130.093 49.9847 129.169 50.2177 128.142 50.2177C127.108 50.2177 126.18 49.9828 125.358 49.5131C124.536 49.0434 123.887 48.3635 123.409 47.4734C122.932 46.5832 122.694 45.5056 122.694 44.2404C122.694 42.9715 122.932 41.8919 123.409 41.0018C123.887 40.1116 124.536 39.4336 125.358 38.9677C126.18 38.498 127.108 38.2631 128.142 38.2631C129.169 38.2631 130.093 38.498 130.915 38.9677C131.741 39.4336 132.392 40.1116 132.87 41.0018C133.351 41.8919 133.591 42.9715 133.591 44.2404ZM131.097 44.2404C131.097 43.4184 130.974 42.7253 130.728 42.1609C130.485 41.5965 130.142 41.1684 129.699 40.8768C129.256 40.5851 128.737 40.4393 128.142 40.4393C127.548 40.4393 127.029 40.5851 126.586 40.8768C126.142 41.1684 125.798 41.5965 125.551 42.1609C125.309 42.7253 125.188 43.4184 125.188 44.2404C125.188 45.0624 125.309 45.7556 125.551 46.32C125.798 46.8844 126.142 47.3124 126.586 47.604C127.029 47.8957 127.548 48.0415 128.142 48.0415C128.737 48.0415 129.256 47.8957 129.699 47.604C130.142 47.3124 130.485 46.8844 130.728 46.32C130.974 45.7556 131.097 45.0624 131.097 44.2404ZM135.414 38.4222H138.448L141.652 46.2404H141.789L144.993 38.4222H148.027V50.0586H145.641V42.4847H145.544L142.533 50.0018H140.908L137.897 42.4563H137.8V50.0586H135.414V38.4222ZM150.054 50.0586V38.4222H157.895V40.4506H152.515V43.2234H157.492V45.2518H152.515V48.0302H157.918V50.0586H150.054ZM167.679 50.0586H163.554V38.4222H167.713C168.884 38.4222 169.891 38.6552 170.736 39.1211C171.581 39.5832 172.23 40.248 172.685 41.1154C173.143 41.9828 173.373 43.0207 173.373 44.229C173.373 45.4412 173.143 46.4828 172.685 47.354C172.23 48.2253 171.577 48.8938 170.725 49.3597C169.876 49.8256 168.861 50.0586 167.679 50.0586ZM166.015 47.9506H167.577C168.304 47.9506 168.916 47.8219 169.412 47.5643C169.912 47.3029 170.287 46.8995 170.537 46.354C170.791 45.8048 170.918 45.0965 170.918 44.229C170.918 43.3692 170.791 42.6665 170.537 42.1211C170.287 41.5756 169.914 41.1741 169.418 40.9165C168.922 40.659 168.31 40.5302 167.583 40.5302H166.015V47.9506ZM185.888 44.2404C185.888 45.5094 185.648 46.5889 185.167 47.479C184.689 48.3692 184.038 49.0491 183.212 49.5188C182.39 49.9847 181.466 50.2177 180.439 50.2177C179.405 50.2177 178.477 49.9828 177.655 49.5131C176.833 49.0434 176.184 48.3635 175.706 47.4734C175.229 46.5832 174.99 45.5056 174.99 44.2404C174.99 42.9715 175.229 41.8919 175.706 41.0018C176.184 40.1116 176.833 39.4336 177.655 38.9677C178.477 38.498 179.405 38.2631 180.439 38.2631C181.466 38.2631 182.39 38.498 183.212 38.9677C184.038 39.4336 184.689 40.1116 185.167 41.0018C185.648 41.8919 185.888 42.9715 185.888 44.2404ZM183.394 44.2404C183.394 43.4184 183.271 42.7253 183.025 42.1609C182.782 41.5965 182.439 41.1684 181.996 40.8768C181.553 40.5851 181.034 40.4393 180.439 40.4393C179.845 40.4393 179.326 40.5851 178.882 40.8768C178.439 41.1684 178.095 41.5965 177.848 42.1609C177.606 42.7253 177.485 43.4184 177.485 44.2404C177.485 45.0624 177.606 45.7556 177.848 46.32C178.095 46.8844 178.439 47.3124 178.882 47.604C179.326 47.8957 179.845 48.0415 180.439 48.0415C181.034 48.0415 181.553 47.8957 181.996 47.604C182.439 47.3124 182.782 46.8844 183.025 46.32C183.271 45.7556 183.394 45.0624 183.394 44.2404ZM191.414 50.0586V38.4222H199.255V40.4506H193.874V43.2234H198.851V45.2518H193.874V48.0302H199.277V50.0586H191.414ZM207.523 41.7688C207.478 41.3105 207.283 40.9544 206.938 40.7006C206.593 40.4469 206.125 40.32 205.534 40.32C205.133 40.32 204.794 40.3768 204.517 40.4904C204.241 40.6003 204.029 40.7537 203.881 40.9506C203.737 41.1476 203.665 41.3711 203.665 41.6211C203.658 41.8294 203.701 42.0112 203.796 42.1665C203.894 42.3219 204.029 42.4563 204.199 42.57C204.37 42.6798 204.567 42.7764 204.79 42.8597C205.014 42.9393 205.252 43.0075 205.506 43.0643L206.551 43.3143C207.059 43.4279 207.525 43.5794 207.949 43.7688C208.373 43.9582 208.741 44.1912 209.051 44.4677C209.362 44.7442 209.603 45.07 209.773 45.445C209.947 45.82 210.036 46.2499 210.04 46.7347C210.036 47.4469 209.855 48.0643 209.495 48.587C209.139 49.1059 208.623 49.5094 207.949 49.7972C207.279 50.0813 206.47 50.2234 205.523 50.2234C204.584 50.2234 203.766 50.0794 203.069 49.7915C202.375 49.5037 201.834 49.0775 201.444 48.5131C201.057 47.945 200.855 47.2423 200.836 46.4052H203.216C203.243 46.7953 203.355 47.1211 203.551 47.3825C203.752 47.64 204.019 47.8351 204.353 47.9677C204.69 48.0965 205.07 48.1609 205.495 48.1609C205.911 48.1609 206.273 48.1003 206.58 47.979C206.891 47.8578 207.131 47.6893 207.301 47.4734C207.472 47.2575 207.557 47.0094 207.557 46.729C207.557 46.4677 207.48 46.248 207.324 46.07C207.173 45.8919 206.949 45.7404 206.654 45.6154C206.362 45.4904 206.004 45.3768 205.58 45.2745L204.313 44.9563C203.332 44.7177 202.557 44.3446 201.989 43.837C201.421 43.3294 201.139 42.6457 201.142 41.7859C201.139 41.0813 201.326 40.4658 201.705 39.9393C202.087 39.4128 202.612 39.0018 203.279 38.7063C203.945 38.4109 204.703 38.2631 205.551 38.2631C206.415 38.2631 207.169 38.4109 207.813 38.7063C208.461 39.0018 208.964 39.4128 209.324 39.9393C209.684 40.4658 209.87 41.0756 209.881 41.7688H207.523ZM211.252 40.4506V38.4222H220.809V40.4506H217.246V50.0586H214.814V40.4506H211.252ZM222.966 50.0586H220.33L224.347 38.4222H227.517L231.529 50.0586H228.892L225.978 41.0813H225.887L222.966 50.0586ZM222.801 45.4847H229.029V47.4052H222.801V45.4847ZM242.65 42.4961H240.161C240.115 42.1741 240.023 41.8881 239.882 41.6381C239.742 41.3844 239.562 41.1684 239.343 40.9904C239.123 40.8124 238.869 40.676 238.581 40.5813C238.297 40.4866 237.989 40.4393 237.655 40.4393C237.053 40.4393 236.528 40.5889 236.081 40.8881C235.634 41.1836 235.288 41.6154 235.042 42.1836C234.795 42.748 234.672 43.4336 234.672 44.2404C234.672 45.07 234.795 45.7669 235.042 46.3313C235.292 46.8957 235.64 47.3219 236.087 47.6097C236.534 47.8976 237.051 48.0415 237.638 48.0415C237.968 48.0415 238.273 47.998 238.553 47.9109C238.837 47.8237 239.089 47.6969 239.309 47.5302C239.528 47.3597 239.71 47.1533 239.854 46.9109C240.002 46.6684 240.104 46.3919 240.161 46.0813L242.65 46.0927C242.585 46.6268 242.424 47.1419 242.167 47.6381C241.913 48.1306 241.57 48.5719 241.138 48.962C240.71 49.3484 240.199 49.6552 239.604 49.8825C239.013 50.1059 238.345 50.2177 237.598 50.2177C236.56 50.2177 235.632 49.9828 234.814 49.5131C234 49.0434 233.356 48.3635 232.882 47.4734C232.413 46.5832 232.178 45.5056 232.178 44.2404C232.178 42.9715 232.417 41.8919 232.894 41.0018C233.371 40.1116 234.019 39.4336 234.837 38.9677C235.655 38.498 236.576 38.2631 237.598 38.2631C238.273 38.2631 238.898 38.3578 239.473 38.5472C240.053 38.7366 240.566 39.0131 241.013 39.3768C241.46 39.7366 241.824 40.1779 242.104 40.7006C242.388 41.2234 242.57 41.8219 242.65 42.4961ZM246.874 38.4222V50.0586H244.414V38.4222H246.874ZM259.591 44.2404C259.591 45.5094 259.351 46.5889 258.87 47.479C258.392 48.3692 257.741 49.0491 256.915 49.5188C256.093 49.9847 255.169 50.2177 254.142 50.2177C253.108 50.2177 252.18 49.9828 251.358 49.5131C250.536 49.0434 249.887 48.3635 249.409 47.4734C248.932 46.5832 248.694 45.5056 248.694 44.2404C248.694 42.9715 248.932 41.8919 249.409 41.0018C249.887 40.1116 250.536 39.4336 251.358 38.9677C252.18 38.498 253.108 38.2631 254.142 38.2631C255.169 38.2631 256.093 38.498 256.915 38.9677C257.741 39.4336 258.392 40.1116 258.87 41.0018C259.351 41.8919 259.591 42.9715 259.591 44.2404ZM257.097 44.2404C257.097 43.4184 256.974 42.7253 256.728 42.1609C256.485 41.5965 256.142 41.1684 255.699 40.8768C255.256 40.5851 254.737 40.4393 254.142 40.4393C253.548 40.4393 253.029 40.5851 252.586 40.8768C252.142 41.1684 251.798 41.5965 251.551 42.1609C251.309 42.7253 251.188 43.4184 251.188 44.2404C251.188 45.0624 251.309 45.7556 251.551 46.32C251.798 46.8844 252.142 47.3124 252.586 47.604C253.029 47.8957 253.548 48.0415 254.142 48.0415C254.737 48.0415 255.256 47.8957 255.699 47.604C256.142 47.3124 256.485 46.8844 256.728 46.32C256.974 45.7556 257.097 45.0624 257.097 44.2404ZM271.147 38.4222V50.0586H269.022L263.959 42.7347H263.874V50.0586H261.414V38.4222H263.573L268.596 45.7404H268.698V38.4222H271.147ZM275.185 50.0586H272.549L276.566 38.4222H279.736L283.748 50.0586H281.111L278.196 41.0813H278.105L275.185 50.0586ZM275.02 45.4847H281.248V47.4052H275.02V45.4847ZM285.148 38.4222H288.182L291.387 46.2404H291.523L294.728 38.4222H297.762V50.0586H295.375V42.4847H295.279L292.267 50.0018H290.642L287.631 42.4563H287.534V50.0586H285.148V38.4222ZM299.789 50.0586V38.4222H307.63V40.4506H302.249V43.2234H307.226V45.2518H302.249V48.0302H307.652V50.0586H299.789ZM319.319 38.4222V50.0586H317.194L312.131 42.7347H312.046V50.0586H309.586V38.4222H311.745L316.767 45.7404H316.87V38.4222H319.319ZM320.908 40.4506V38.4222H330.465V40.4506H326.902V50.0586H324.471V40.4506H320.908ZM342.201 44.2404C342.201 45.5094 341.96 46.5889 341.479 47.479C341.002 48.3692 340.35 49.0491 339.525 49.5188C338.703 49.9847 337.778 50.2177 336.752 50.2177C335.718 50.2177 334.79 49.9828 333.968 49.5131C333.146 49.0434 332.496 48.3635 332.019 47.4734C331.542 46.5832 331.303 45.5056 331.303 44.2404C331.303 42.9715 331.542 41.8919 332.019 41.0018C332.496 40.1116 333.146 39.4336 333.968 38.9677C334.79 38.498 335.718 38.2631 336.752 38.2631C337.778 38.2631 338.703 38.498 339.525 38.9677C340.35 39.4336 341.002 40.1116 341.479 41.0018C341.96 41.8919 342.201 42.9715 342.201 44.2404ZM339.706 44.2404C339.706 43.4184 339.583 42.7253 339.337 42.1609C339.095 41.5965 338.752 41.1684 338.309 40.8768C337.865 40.5851 337.346 40.4393 336.752 40.4393C336.157 40.4393 335.638 40.5851 335.195 40.8768C334.752 41.1684 334.407 41.5965 334.161 42.1609C333.918 42.7253 333.797 43.4184 333.797 44.2404C333.797 45.0624 333.918 45.7556 334.161 46.32C334.407 46.8844 334.752 47.3124 335.195 47.604C335.638 47.8957 336.157 48.0415 336.752 48.0415C337.346 48.0415 337.865 47.8957 338.309 47.604C338.752 47.3124 339.095 46.8844 339.337 46.32C339.583 45.7556 339.706 45.0624 339.706 44.2404ZM348.057 44.2404C348.057 45.6533 347.868 46.9525 347.489 48.1381C347.114 49.3237 346.538 50.4222 345.762 51.4336H343.449C343.745 51.0586 344.019 50.6003 344.273 50.0586C344.527 49.5169 344.748 48.926 344.938 48.2859C345.127 47.6419 345.275 46.9753 345.381 46.2859C345.487 45.5965 345.54 44.9147 345.54 44.2404C345.54 43.3427 345.447 42.4374 345.262 41.5245C345.08 40.6078 344.83 39.7594 344.512 38.979C344.197 38.195 343.843 37.5529 343.449 37.0529H345.762C346.538 38.0643 347.114 39.1628 347.489 40.3484C347.868 41.534 348.057 42.8313 348.057 44.2404Z" fill="black"/>
<path d="M30.75 226.828H417.867" stroke="black" stroke-width="2"/>
<path d="M31.8114 259.049C31.213 259.045 30.6353 258.945 30.0785 258.748C29.5254 258.551 29.0292 258.231 28.5898 257.788C28.1504 257.345 27.802 256.758 27.5444 256.027C27.2906 255.295 27.1637 254.398 27.1637 253.333C27.1675 252.356 27.2792 251.483 27.4989 250.714C27.7224 249.941 28.0406 249.286 28.4535 248.748C28.8701 248.21 29.3683 247.801 29.9478 247.521C30.5273 247.237 31.177 247.095 31.8967 247.095C32.6732 247.095 33.3588 247.246 33.9535 247.549C34.5482 247.848 35.0255 248.256 35.3853 248.771C35.7489 249.286 35.9686 249.864 36.0444 250.504H33.6183C33.5236 250.098 33.3247 249.78 33.0217 249.549C32.7186 249.318 32.3436 249.203 31.8967 249.203C31.1391 249.203 30.5633 249.532 30.1694 250.191C29.7792 250.85 29.5804 251.746 29.5728 252.879H29.6523C29.8266 252.534 30.0614 252.241 30.3569 251.998C30.6561 251.752 30.9951 251.564 31.3739 251.436C31.7565 251.303 32.1599 251.237 32.5842 251.237C33.2736 251.237 33.8872 251.4 34.4251 251.725C34.963 252.047 35.3872 252.491 35.6978 253.055C36.0084 253.619 36.1637 254.265 36.1637 254.992C36.1637 255.78 35.98 256.481 35.6126 257.095C35.2489 257.708 34.7395 258.189 34.0842 258.538C33.4326 258.883 32.6751 259.053 31.8114 259.049ZM31.8001 257.117C32.1789 257.117 32.5179 257.027 32.8171 256.845C33.1164 256.663 33.3512 256.417 33.5217 256.106C33.6921 255.795 33.7773 255.447 33.7773 255.061C33.7773 254.674 33.6921 254.328 33.5217 254.021C33.355 253.714 33.1239 253.47 32.8285 253.288C32.533 253.106 32.1959 253.015 31.8171 253.015C31.533 253.015 31.2698 253.068 31.0273 253.174C30.7887 253.28 30.5785 253.428 30.3967 253.617C30.2186 253.807 30.0785 254.027 29.9762 254.277C29.8739 254.523 29.8228 254.786 29.8228 255.066C29.8228 255.441 29.908 255.784 30.0785 256.095C30.2527 256.405 30.4876 256.653 30.783 256.839C31.0823 257.025 31.4213 257.117 31.8001 257.117ZM43.3683 252.112V254.032H38.0614V252.112H43.3683ZM49.7489 259.049C48.8739 259.049 48.0955 258.907 47.4137 258.623C46.7357 258.335 46.2035 257.943 45.8171 257.447C45.4308 256.951 45.2376 256.388 45.2376 255.759C45.2376 255.275 45.3474 254.83 45.5671 254.424C45.7906 254.015 46.0936 253.676 46.4762 253.407C46.8588 253.134 47.2868 252.96 47.7603 252.884V252.805C47.1391 252.68 46.6353 252.379 46.2489 251.902C45.8626 251.42 45.6694 250.862 45.6694 250.225C45.6694 249.623 45.8455 249.087 46.1978 248.617C46.5501 248.144 47.033 247.773 47.6467 247.504C48.2641 247.231 48.9648 247.095 49.7489 247.095C50.533 247.095 51.2319 247.231 51.8455 247.504C52.4629 247.777 52.9478 248.15 53.3001 248.623C53.6523 249.093 53.8304 249.627 53.8342 250.225C53.8304 250.866 53.6334 251.424 53.2433 251.902C52.8531 252.379 52.3531 252.68 51.7433 252.805V252.884C52.2092 252.96 52.6315 253.134 53.0103 253.407C53.3929 253.676 53.6959 254.015 53.9194 254.424C54.1467 254.83 54.2622 255.275 54.266 255.759C54.2622 256.388 54.0671 256.951 53.6808 257.447C53.2944 257.943 52.7603 258.335 52.0785 258.623C51.4004 258.907 50.6239 259.049 49.7489 259.049ZM49.7489 257.242C50.1391 257.242 50.48 257.172 50.7717 257.032C51.0633 256.888 51.2906 256.691 51.4535 256.441C51.6201 256.187 51.7035 255.896 51.7035 255.566C51.7035 255.229 51.6183 254.932 51.4478 254.674C51.2773 254.413 51.0463 254.208 50.7546 254.061C50.463 253.909 50.1277 253.833 49.7489 253.833C49.3739 253.833 49.0387 253.909 48.7433 254.061C48.4478 254.208 48.2148 254.413 48.0444 254.674C47.8777 254.932 47.7944 255.229 47.7944 255.566C47.7944 255.896 47.8758 256.187 48.0387 256.441C48.2016 256.691 48.4308 256.888 48.7262 257.032C49.0217 257.172 49.3626 257.242 49.7489 257.242ZM49.7489 252.044C50.0747 252.044 50.3645 251.977 50.6183 251.845C50.872 251.712 51.0709 251.528 51.2148 251.294C51.3588 251.059 51.4308 250.788 51.4308 250.481C51.4308 250.178 51.3588 249.913 51.2148 249.686C51.0709 249.455 50.8739 249.275 50.6239 249.146C50.3739 249.013 50.0823 248.947 49.7489 248.947C49.4194 248.947 49.1277 249.013 48.8739 249.146C48.6201 249.275 48.4213 249.455 48.2773 249.686C48.1372 249.913 48.0671 250.178 48.0671 250.481C48.0671 250.788 48.1391 251.059 48.283 251.294C48.427 251.528 48.6258 251.712 48.8796 251.845C49.1334 251.977 49.4232 252.044 49.7489 252.044Z" fill="black"/>
<path d="M64.1747 259.049C63.2997 259.049 62.5213 258.907 61.8395 258.623C61.1615 258.335 60.6293 257.943 60.2429 257.447C59.8565 256.951 59.6634 256.388 59.6634 255.759C59.6634 255.275 59.7732 254.83 59.9929 254.424C60.2164 254.015 60.5194 253.676 60.902 253.407C61.2846 253.134 61.7126 252.96 62.1861 252.884V252.805C61.5649 252.68 61.0611 252.379 60.6747 251.902C60.2884 251.42 60.0952 250.862 60.0952 250.225C60.0952 249.623 60.2713 249.087 60.6236 248.617C60.9759 248.144 61.4588 247.773 62.0724 247.504C62.6899 247.231 63.3906 247.095 64.1747 247.095C64.9588 247.095 65.6577 247.231 66.2713 247.504C66.8887 247.777 67.3736 248.15 67.7259 248.623C68.0781 249.093 68.2562 249.627 68.2599 250.225C68.2562 250.866 68.0592 251.424 67.669 251.902C67.2789 252.379 66.7789 252.68 66.169 252.805V252.884C66.6349 252.96 67.0573 253.134 67.4361 253.407C67.8187 253.676 68.1217 254.015 68.3452 254.424C68.5724 254.83 68.688 255.275 68.6918 255.759C68.688 256.388 68.4929 256.951 68.1065 257.447C67.7202 257.943 67.1861 258.335 66.5043 258.623C65.8262 258.907 65.0497 259.049 64.1747 259.049ZM64.1747 257.242C64.5649 257.242 64.9058 257.172 65.1974 257.032C65.4891 256.888 65.7164 256.691 65.8793 256.441C66.0459 256.187 66.1293 255.896 66.1293 255.566C66.1293 255.229 66.044 254.932 65.8736 254.674C65.7031 254.413 65.4721 254.208 65.1804 254.061C64.8887 253.909 64.5535 253.833 64.1747 253.833C63.7997 253.833 63.4645 253.909 63.169 254.061C62.8736 254.208 62.6406 254.413 62.4702 254.674C62.3035 254.932 62.2202 255.229 62.2202 255.566C62.2202 255.896 62.3016 256.187 62.4645 256.441C62.6274 256.691 62.8565 256.888 63.152 257.032C63.4474 257.172 63.7884 257.242 64.1747 257.242ZM64.1747 252.044C64.5005 252.044 64.7902 251.977 65.044 251.845C65.2978 251.712 65.4967 251.528 65.6406 251.294C65.7846 251.059 65.8565 250.788 65.8565 250.481C65.8565 250.178 65.7846 249.913 65.6406 249.686C65.4967 249.455 65.2997 249.275 65.0497 249.146C64.7997 249.013 64.508 248.947 64.1747 248.947C63.8452 248.947 63.5535 249.013 63.2997 249.146C63.0459 249.275 62.8471 249.455 62.7031 249.686C62.563 249.913 62.4929 250.178 62.4929 250.481C62.4929 250.788 62.5649 251.059 62.7088 251.294C62.8527 251.528 63.0516 251.712 63.3054 251.845C63.5592 251.977 63.849 252.044 64.1747 252.044ZM75.8722 252.112V254.032H70.5653V252.112H75.8722ZM82.9744 247.254V258.89H80.5142V249.589H80.446L77.7812 251.259V249.078L80.6619 247.254H82.9744ZM90.3026 259.146C89.3253 259.142 88.4844 258.902 87.7798 258.424C87.0791 257.947 86.5393 257.256 86.1605 256.35C85.7855 255.445 85.5999 254.356 85.6037 253.083C85.6037 251.814 85.7912 250.733 86.1662 249.839C86.545 248.945 87.0848 248.265 87.7855 247.799C88.4901 247.33 89.3291 247.095 90.3026 247.095C91.276 247.095 92.1132 247.33 92.8139 247.799C93.5185 248.269 94.0601 248.951 94.4389 249.845C94.8177 250.735 95.0052 251.814 95.0014 253.083C95.0014 254.36 94.812 255.451 94.4332 256.356C94.0582 257.261 93.5204 257.953 92.8196 258.43C92.1188 258.907 91.2798 259.146 90.3026 259.146ZM90.3026 257.106C90.9692 257.106 91.5014 256.771 91.8991 256.1C92.2969 255.43 92.4938 254.424 92.4901 253.083C92.4901 252.201 92.3991 251.466 92.2173 250.879C92.0393 250.292 91.7855 249.85 91.456 249.555C91.1302 249.259 90.7457 249.112 90.3026 249.112C89.6397 249.112 89.1094 249.443 88.7116 250.106C88.3139 250.769 88.1132 251.761 88.1094 253.083C88.1094 253.977 88.1984 254.723 88.3764 255.322C88.5582 255.917 88.8139 256.364 89.1435 256.663C89.473 256.958 89.8594 257.106 90.3026 257.106Z" fill="black"/>
<path d="M103.974 247.254V258.89H101.514V249.589H101.446L98.7812 251.259V249.078L101.662 247.254H103.974ZM111.303 259.146C110.325 259.142 109.484 258.902 108.78 258.424C108.079 257.947 107.539 257.256 107.161 256.35C106.786 255.445 106.6 254.356 106.604 253.083C106.604 251.814 106.791 250.733 107.166 249.839C107.545 248.945 108.085 248.265 108.786 247.799C109.49 247.33 110.329 247.095 111.303 247.095C112.276 247.095 113.113 247.33 113.814 247.799C114.518 248.269 115.06 248.951 115.439 249.845C115.818 250.735 116.005 251.814 116.001 253.083C116.001 254.36 115.812 255.451 115.433 256.356C115.058 257.261 114.52 257.953 113.82 258.43C113.119 258.907 112.28 259.146 111.303 259.146ZM111.303 257.106C111.969 257.106 112.501 256.771 112.899 256.1C113.297 255.43 113.494 254.424 113.49 253.083C113.49 252.201 113.399 251.466 113.217 250.879C113.039 250.292 112.786 249.85 112.456 249.555C112.13 249.259 111.746 249.112 111.303 249.112C110.64 249.112 110.109 249.443 109.712 250.106C109.314 250.769 109.113 251.761 109.109 253.083C109.109 253.977 109.198 254.723 109.376 255.322C109.558 255.917 109.814 256.364 110.143 256.663C110.473 256.958 110.859 257.106 111.303 257.106ZM123.216 252.112V254.032H117.909V252.112H123.216ZM130.318 247.254V258.89H127.858V249.589H127.79L125.125 251.259V249.078L128.006 247.254H130.318ZM133.084 258.89V257.117L137.226 253.282C137.578 252.941 137.874 252.634 138.112 252.362C138.355 252.089 138.538 251.822 138.663 251.561C138.788 251.295 138.851 251.009 138.851 250.703C138.851 250.362 138.773 250.068 138.618 249.822C138.463 249.572 138.25 249.381 137.982 249.248C137.713 249.112 137.408 249.044 137.067 249.044C136.711 249.044 136.4 249.116 136.135 249.259C135.87 249.403 135.665 249.61 135.521 249.879C135.377 250.148 135.305 250.468 135.305 250.839H132.97C132.97 250.078 133.143 249.417 133.487 248.856C133.832 248.295 134.315 247.862 134.936 247.555C135.557 247.248 136.273 247.095 137.084 247.095C137.917 247.095 138.643 247.242 139.26 247.538C139.881 247.83 140.364 248.235 140.709 248.754C141.054 249.273 141.226 249.867 141.226 250.538C141.226 250.977 141.139 251.411 140.964 251.839C140.794 252.267 140.489 252.742 140.05 253.265C139.61 253.784 138.991 254.407 138.192 255.134L136.493 256.799V256.879H141.379V258.89H133.084Z" fill="black"/>
<path d="M149.92 247.254V258.89H147.46V249.589H147.391L144.727 251.259V249.078L147.607 247.254H149.92ZM152.685 258.89V257.117L156.827 253.282C157.18 252.941 157.475 252.634 157.714 252.362C157.956 252.089 158.14 251.822 158.265 251.561C158.39 251.295 158.452 251.009 158.452 250.703C158.452 250.362 158.375 250.068 158.219 249.822C158.064 249.572 157.852 249.381 157.583 249.248C157.314 249.112 157.009 249.044 156.668 249.044C156.312 249.044 156.002 249.116 155.737 249.259C155.471 249.403 155.267 249.61 155.123 249.879C154.979 250.148 154.907 250.468 154.907 250.839H152.572C152.572 250.078 152.744 249.417 153.089 248.856C153.433 248.295 153.916 247.862 154.538 247.555C155.159 247.248 155.875 247.095 156.685 247.095C157.519 247.095 158.244 247.242 158.862 247.538C159.483 247.83 159.966 248.235 160.31 248.754C160.655 249.273 160.827 249.867 160.827 250.538C160.827 250.977 160.74 251.411 160.566 251.839C160.396 252.267 160.091 252.742 159.651 253.265C159.212 253.784 158.593 254.407 157.793 255.134L156.094 256.799V256.879H160.981V258.89H152.685ZM168.224 252.112V254.032H162.917V252.112H168.224ZM175.326 247.254V258.89H172.866V249.589H172.798L170.133 251.259V249.078L173.013 247.254H175.326ZM177.915 256.845V254.907L182.773 247.254H184.444V249.936H183.455L180.393 254.782V254.873H187.296V256.845H177.915ZM183.501 258.89V256.254L183.546 255.396V247.254H185.853V258.89H183.501Z" fill="black"/>
<path d="M195.535 247.254V258.89H193.075V249.589H193.007L190.342 251.259V249.078L193.222 247.254H195.535ZM198.124 256.845V254.907L202.982 247.254H204.653V249.936H203.664L200.602 254.782V254.873H207.505V256.845H198.124ZM203.71 258.89V256.254L203.755 255.396V247.254H206.062V258.89H203.71ZM214.605 252.112V254.032H209.298V252.112H214.605ZM221.707 247.254V258.89H219.247V249.589H219.178L216.514 251.259V249.078L219.394 247.254H221.707ZM228.938 259.049C228.34 259.045 227.762 258.945 227.205 258.748C226.652 258.551 226.156 258.231 225.717 257.788C225.277 257.345 224.929 256.758 224.671 256.027C224.418 255.295 224.291 254.398 224.291 253.333C224.294 252.356 224.406 251.483 224.626 250.714C224.849 249.941 225.168 249.286 225.58 248.748C225.997 248.21 226.495 247.801 227.075 247.521C227.654 247.237 228.304 247.095 229.024 247.095C229.8 247.095 230.486 247.246 231.08 247.549C231.675 247.848 232.152 248.256 232.512 248.771C232.876 249.286 233.096 249.864 233.171 250.504H230.745C230.651 250.098 230.452 249.78 230.149 249.549C229.846 249.318 229.471 249.203 229.024 249.203C228.266 249.203 227.69 249.532 227.296 250.191C226.906 250.85 226.707 251.746 226.7 252.879H226.779C226.954 252.534 227.188 252.241 227.484 251.998C227.783 251.752 228.122 251.564 228.501 251.436C228.883 251.303 229.287 251.237 229.711 251.237C230.401 251.237 231.014 251.4 231.552 251.725C232.09 252.047 232.514 252.491 232.825 253.055C233.135 253.619 233.291 254.265 233.291 254.992C233.291 255.78 233.107 256.481 232.74 257.095C232.376 257.708 231.866 258.189 231.211 258.538C230.56 258.883 229.802 259.053 228.938 259.049ZM228.927 257.117C229.306 257.117 229.645 257.027 229.944 256.845C230.243 256.663 230.478 256.417 230.649 256.106C230.819 255.795 230.904 255.447 230.904 255.061C230.904 254.674 230.819 254.328 230.649 254.021C230.482 253.714 230.251 253.47 229.955 253.288C229.66 253.106 229.323 253.015 228.944 253.015C228.66 253.015 228.397 253.068 228.154 253.174C227.916 253.28 227.705 253.428 227.524 253.617C227.346 253.807 227.205 254.027 227.103 254.277C227.001 254.523 226.95 254.786 226.95 255.066C226.95 255.441 227.035 255.784 227.205 256.095C227.38 256.405 227.615 256.653 227.91 256.839C228.209 257.025 228.548 257.117 228.927 257.117Z" fill="black"/>
<path d="M241.525 247.254V258.89H239.065V249.589H238.997L236.332 251.259V249.078L239.213 247.254H241.525ZM248.757 259.049C248.158 259.045 247.581 258.945 247.024 258.748C246.471 258.551 245.975 258.231 245.535 257.788C245.096 257.345 244.747 256.758 244.49 256.027C244.236 255.295 244.109 254.398 244.109 253.333C244.113 252.356 244.225 251.483 244.444 250.714C244.668 249.941 244.986 249.286 245.399 248.748C245.815 248.21 246.314 247.801 246.893 247.521C247.473 247.237 248.122 247.095 248.842 247.095C249.618 247.095 250.304 247.246 250.899 247.549C251.493 247.848 251.971 248.256 252.331 248.771C252.694 249.286 252.914 249.864 252.99 250.504H250.564C250.469 250.098 250.27 249.78 249.967 249.549C249.664 249.318 249.289 249.203 248.842 249.203C248.084 249.203 247.509 249.532 247.115 250.191C246.725 250.85 246.526 251.746 246.518 252.879H246.598C246.772 252.534 247.007 252.241 247.302 251.998C247.601 251.752 247.94 251.564 248.319 251.436C248.702 251.303 249.105 251.237 249.529 251.237C250.219 251.237 250.833 251.4 251.37 251.725C251.908 252.047 252.333 252.491 252.643 253.055C252.954 253.619 253.109 254.265 253.109 254.992C253.109 255.78 252.925 256.481 252.558 257.095C252.194 257.708 251.685 258.189 251.029 258.538C250.378 258.883 249.62 259.053 248.757 259.049ZM248.745 257.117C249.124 257.117 249.463 257.027 249.762 256.845C250.062 256.663 250.297 256.417 250.467 256.106C250.637 255.795 250.723 255.447 250.723 255.061C250.723 254.674 250.637 254.328 250.467 254.021C250.3 253.714 250.069 253.47 249.774 253.288C249.478 253.106 249.141 253.015 248.762 253.015C248.478 253.015 248.215 253.068 247.973 253.174C247.734 253.28 247.524 253.428 247.342 253.617C247.164 253.807 247.024 254.027 246.922 254.277C246.819 254.523 246.768 254.786 246.768 255.066C246.768 255.441 246.853 255.784 247.024 256.095C247.198 256.405 247.433 256.653 247.728 256.839C248.028 257.025 248.367 257.117 248.745 257.117ZM260.314 252.112V254.032H255.007V252.112H260.314ZM267.416 247.254V258.89H264.956V249.589H264.887L262.223 251.259V249.078L265.103 247.254H267.416ZM274.522 259.049C273.647 259.049 272.869 258.907 272.187 258.623C271.509 258.335 270.977 257.943 270.591 257.447C270.204 256.951 270.011 256.388 270.011 255.759C270.011 255.275 270.121 254.83 270.341 254.424C270.564 254.015 270.867 253.676 271.25 253.407C271.632 253.134 272.06 252.96 272.534 252.884V252.805C271.913 252.68 271.409 252.379 271.022 251.902C270.636 251.42 270.443 250.862 270.443 250.225C270.443 249.623 270.619 249.087 270.971 248.617C271.324 248.144 271.806 247.773 272.42 247.504C273.038 247.231 273.738 247.095 274.522 247.095C275.306 247.095 276.005 247.231 276.619 247.504C277.236 247.777 277.721 248.15 278.074 248.623C278.426 249.093 278.604 249.627 278.608 250.225C278.604 250.866 278.407 251.424 278.017 251.902C277.627 252.379 277.127 252.68 276.517 252.805V252.884C276.983 252.96 277.405 253.134 277.784 253.407C278.166 253.676 278.469 254.015 278.693 254.424C278.92 254.83 279.036 255.275 279.039 255.759C279.036 256.388 278.841 256.951 278.454 257.447C278.068 257.943 277.534 258.335 276.852 258.623C276.174 258.907 275.397 259.049 274.522 259.049ZM274.522 257.242C274.913 257.242 275.253 257.172 275.545 257.032C275.837 256.888 276.064 256.691 276.227 256.441C276.394 256.187 276.477 255.896 276.477 255.566C276.477 255.229 276.392 254.932 276.221 254.674C276.051 254.413 275.82 254.208 275.528 254.061C275.236 253.909 274.901 253.833 274.522 253.833C274.147 253.833 273.812 253.909 273.517 254.061C273.221 254.208 272.988 254.413 272.818 254.674C272.651 254.932 272.568 255.229 272.568 255.566C272.568 255.896 272.649 256.187 272.812 256.441C272.975 256.691 273.204 256.888 273.5 257.032C273.795 257.172 274.136 257.242 274.522 257.242ZM274.522 252.044C274.848 252.044 275.138 251.977 275.392 251.845C275.645 251.712 275.844 251.528 275.988 251.294C276.132 251.059 276.204 250.788 276.204 250.481C276.204 250.178 276.132 249.913 275.988 249.686C275.844 249.455 275.647 249.275 275.397 249.146C275.147 249.013 274.856 248.947 274.522 248.947C274.193 248.947 273.901 249.013 273.647 249.146C273.394 249.275 273.195 249.455 273.051 249.686C272.911 249.913 272.841 250.178 272.841 250.481C272.841 250.788 272.913 251.059 273.056 251.294C273.2 251.528 273.399 251.712 273.653 251.845C273.907 251.977 274.197 252.044 274.522 252.044Z" fill="black"/>
<path d="M286.195 247.254V258.89H283.735V249.589H283.667L281.002 251.259V249.078L283.883 247.254H286.195ZM293.302 259.049C292.427 259.049 291.648 258.907 290.966 258.623C290.288 258.335 289.756 257.943 289.37 257.447C288.983 256.951 288.79 256.388 288.79 255.759C288.79 255.275 288.9 254.83 289.12 254.424C289.343 254.015 289.646 253.676 290.029 253.407C290.412 253.134 290.84 252.96 291.313 252.884V252.805C290.692 252.68 290.188 252.379 289.802 251.902C289.415 251.42 289.222 250.862 289.222 250.225C289.222 249.623 289.398 249.087 289.751 248.617C290.103 248.144 290.586 247.773 291.199 247.504C291.817 247.231 292.518 247.095 293.302 247.095C294.086 247.095 294.785 247.231 295.398 247.504C296.016 247.777 296.501 248.15 296.853 248.623C297.205 249.093 297.383 249.627 297.387 250.225C297.383 250.866 297.186 251.424 296.796 251.902C296.406 252.379 295.906 252.68 295.296 252.805V252.884C295.762 252.96 296.184 253.134 296.563 253.407C296.946 253.676 297.249 254.015 297.472 254.424C297.699 254.83 297.815 255.275 297.819 255.759C297.815 256.388 297.62 256.951 297.233 257.447C296.847 257.943 296.313 258.335 295.631 258.623C294.953 258.907 294.177 259.049 293.302 259.049ZM293.302 257.242C293.692 257.242 294.033 257.172 294.324 257.032C294.616 256.888 294.843 256.691 295.006 256.441C295.173 256.187 295.256 255.896 295.256 255.566C295.256 255.229 295.171 254.932 295.001 254.674C294.83 254.413 294.599 254.208 294.307 254.061C294.016 253.909 293.68 253.833 293.302 253.833C292.927 253.833 292.591 253.909 292.296 254.061C292.001 254.208 291.768 254.413 291.597 254.674C291.43 254.932 291.347 255.229 291.347 255.566C291.347 255.896 291.429 256.187 291.591 256.441C291.754 256.691 291.983 256.888 292.279 257.032C292.574 257.172 292.915 257.242 293.302 257.242ZM293.302 252.044C293.627 252.044 293.917 251.977 294.171 251.845C294.425 251.712 294.624 251.528 294.768 251.294C294.912 251.059 294.983 250.788 294.983 250.481C294.983 250.178 294.912 249.913 294.768 249.686C294.624 249.455 294.427 249.275 294.177 249.146C293.927 249.013 293.635 248.947 293.302 248.947C292.972 248.947 292.68 249.013 292.427 249.146C292.173 249.275 291.974 249.455 291.83 249.686C291.69 249.913 291.62 250.178 291.62 250.481C291.62 250.788 291.692 251.059 291.836 251.294C291.98 251.528 292.179 251.712 292.432 251.845C292.686 251.977 292.976 252.044 293.302 252.044ZM304.999 252.112V254.032H299.692V252.112H304.999ZM306.711 258.89V257.117L310.853 253.282C311.205 252.941 311.501 252.634 311.739 252.362C311.982 252.089 312.165 251.822 312.29 251.561C312.415 251.295 312.478 251.009 312.478 250.703C312.478 250.362 312.4 250.068 312.245 249.822C312.09 249.572 311.877 249.381 311.608 249.248C311.34 249.112 311.035 249.044 310.694 249.044C310.338 249.044 310.027 249.116 309.762 249.259C309.497 249.403 309.292 249.61 309.148 249.879C309.004 250.148 308.932 250.468 308.932 250.839H306.597C306.597 250.078 306.769 249.417 307.114 248.856C307.459 248.295 307.942 247.862 308.563 247.555C309.184 247.248 309.9 247.095 310.711 247.095C311.544 247.095 312.269 247.242 312.887 247.538C313.508 247.83 313.991 248.235 314.336 248.754C314.68 249.273 314.853 249.867 314.853 250.538C314.853 250.977 314.766 251.411 314.591 251.839C314.421 252.267 314.116 252.742 313.677 253.265C313.237 253.784 312.618 254.407 311.819 255.134L310.12 256.799V256.879H315.006V258.89H306.711ZM321.351 259.146C320.374 259.142 319.533 258.902 318.829 258.424C318.128 257.947 317.588 257.256 317.209 256.35C316.834 255.445 316.649 254.356 316.653 253.083C316.653 251.814 316.84 250.733 317.215 249.839C317.594 248.945 318.134 248.265 318.834 247.799C319.539 247.33 320.378 247.095 321.351 247.095C322.325 247.095 323.162 247.33 323.863 247.799C324.567 248.269 325.109 248.951 325.488 249.845C325.867 250.735 326.054 251.814 326.05 253.083C326.05 254.36 325.861 255.451 325.482 256.356C325.107 257.261 324.569 257.953 323.868 258.43C323.168 258.907 322.329 259.146 321.351 259.146ZM321.351 257.106C322.018 257.106 322.55 256.771 322.948 256.1C323.346 255.43 323.543 254.424 323.539 253.083C323.539 252.201 323.448 251.466 323.266 250.879C323.088 250.292 322.834 249.85 322.505 249.555C322.179 249.259 321.795 249.112 321.351 249.112C320.689 249.112 320.158 249.443 319.76 250.106C319.363 250.769 319.162 251.761 319.158 253.083C319.158 253.977 319.247 254.723 319.425 255.322C319.607 255.917 319.863 256.364 320.192 256.663C320.522 256.958 320.908 257.106 321.351 257.106Z" fill="black"/>
<path d="M328.644 258.89V257.117L332.786 253.282C333.139 252.941 333.434 252.634 333.673 252.362C333.915 252.089 334.099 251.822 334.224 251.561C334.349 251.295 334.411 251.009 334.411 250.703C334.411 250.362 334.334 250.068 334.178 249.822C334.023 249.572 333.811 249.381 333.542 249.248C333.273 249.112 332.968 249.044 332.627 249.044C332.271 249.044 331.961 249.116 331.695 249.259C331.43 249.403 331.226 249.61 331.082 249.879C330.938 250.148 330.866 250.468 330.866 250.839H328.531C328.531 250.078 328.703 249.417 329.048 248.856C329.392 248.295 329.875 247.862 330.497 247.555C331.118 247.248 331.834 247.095 332.644 247.095C333.478 247.095 334.203 247.242 334.82 247.538C335.442 247.83 335.925 248.235 336.269 248.754C336.614 249.273 336.786 249.867 336.786 250.538C336.786 250.977 336.699 251.411 336.525 251.839C336.355 252.267 336.05 252.742 335.61 253.265C335.171 253.784 334.552 254.407 333.752 255.134L332.053 256.799V256.879H336.94V258.89H328.644ZM343.285 259.146C342.308 259.142 341.467 258.902 340.762 258.424C340.061 257.947 339.522 257.256 339.143 256.35C338.768 255.445 338.582 254.356 338.586 253.083C338.586 251.814 338.774 250.733 339.149 249.839C339.527 248.945 340.067 248.265 340.768 247.799C341.472 247.33 342.311 247.095 343.285 247.095C344.258 247.095 345.096 247.33 345.796 247.799C346.501 248.269 347.043 248.951 347.421 249.845C347.8 250.735 347.988 251.814 347.984 253.083C347.984 254.36 347.794 255.451 347.416 256.356C347.041 257.261 346.503 257.953 345.802 258.43C345.101 258.907 344.262 259.146 343.285 259.146ZM343.285 257.106C343.952 257.106 344.484 256.771 344.882 256.1C345.279 255.43 345.476 254.424 345.472 253.083C345.472 252.201 345.382 251.466 345.2 250.879C345.022 250.292 344.768 249.85 344.438 249.555C344.113 249.259 343.728 249.112 343.285 249.112C342.622 249.112 342.092 249.443 341.694 250.106C341.296 250.769 341.096 251.761 341.092 253.083C341.092 253.977 341.181 254.723 341.359 255.322C341.541 255.917 341.796 256.364 342.126 256.663C342.455 256.958 342.842 257.106 343.285 257.106ZM355.198 252.112V254.032H349.892V252.112H355.198ZM356.91 258.89V257.117L361.052 253.282C361.404 252.941 361.7 252.634 361.938 252.362C362.181 252.089 362.365 251.822 362.49 251.561C362.615 251.295 362.677 251.009 362.677 250.703C362.677 250.362 362.599 250.068 362.444 249.822C362.289 249.572 362.077 249.381 361.808 249.248C361.539 249.112 361.234 249.044 360.893 249.044C360.537 249.044 360.226 249.116 359.961 249.259C359.696 249.403 359.491 249.61 359.347 249.879C359.204 250.148 359.132 250.468 359.132 250.839H356.796C356.796 250.078 356.969 249.417 357.313 248.856C357.658 248.295 358.141 247.862 358.762 247.555C359.383 247.248 360.099 247.095 360.91 247.095C361.743 247.095 362.469 247.242 363.086 247.538C363.707 247.83 364.19 248.235 364.535 248.754C364.88 249.273 365.052 249.867 365.052 250.538C365.052 250.977 364.965 251.411 364.791 251.839C364.62 252.267 364.315 252.742 363.876 253.265C363.436 253.784 362.817 254.407 362.018 255.134L360.319 256.799V256.879H365.205V258.89H356.91ZM366.988 258.89V257.117L371.13 253.282C371.482 252.941 371.778 252.634 372.017 252.362C372.259 252.089 372.443 251.822 372.568 251.561C372.693 251.295 372.755 251.009 372.755 250.703C372.755 250.362 372.677 250.068 372.522 249.822C372.367 249.572 372.155 249.381 371.886 249.248C371.617 249.112 371.312 249.044 370.971 249.044C370.615 249.044 370.304 249.116 370.039 249.259C369.774 249.403 369.57 249.61 369.426 249.879C369.282 250.148 369.21 250.468 369.21 250.839H366.874C366.874 250.078 367.047 249.417 367.392 248.856C367.736 248.295 368.219 247.862 368.84 247.555C369.462 247.248 370.177 247.095 370.988 247.095C371.821 247.095 372.547 247.242 373.164 247.538C373.785 247.83 374.268 248.235 374.613 248.754C374.958 249.273 375.13 249.867 375.13 250.538C375.13 250.977 375.043 251.411 374.869 251.839C374.698 252.267 374.393 252.742 373.954 253.265C373.515 253.784 372.895 254.407 372.096 255.134L370.397 256.799V256.879H375.284V258.89H366.988Z" fill="black"/>
<path d="M377.428 258.89V257.117L381.57 253.282C381.922 252.941 382.217 252.634 382.456 252.362C382.698 252.089 382.882 251.822 383.007 251.561C383.132 251.295 383.195 251.009 383.195 250.703C383.195 250.362 383.117 250.068 382.962 249.822C382.806 249.572 382.594 249.381 382.325 249.248C382.056 249.112 381.751 249.044 381.411 249.044C381.054 249.044 380.744 249.116 380.479 249.259C380.214 249.403 380.009 249.61 379.865 249.879C379.721 250.148 379.649 250.468 379.649 250.839H377.314C377.314 250.078 377.486 249.417 377.831 248.856C378.176 248.295 378.659 247.862 379.28 247.555C379.901 247.248 380.617 247.095 381.428 247.095C382.261 247.095 382.986 247.242 383.604 247.538C384.225 247.83 384.708 248.235 385.053 248.754C385.397 249.273 385.57 249.867 385.57 250.538C385.57 250.977 385.482 251.411 385.308 251.839C385.138 252.267 384.833 252.742 384.393 253.265C383.954 253.784 383.335 254.407 382.536 255.134L380.837 256.799V256.879H385.723V258.89H377.428ZM387.506 258.89V257.117L391.648 253.282C392 252.941 392.295 252.634 392.534 252.362C392.777 252.089 392.96 251.822 393.085 251.561C393.21 251.295 393.273 251.009 393.273 250.703C393.273 250.362 393.195 250.068 393.04 249.822C392.884 249.572 392.672 249.381 392.403 249.248C392.134 249.112 391.83 249.044 391.489 249.044C391.133 249.044 390.822 249.116 390.557 249.259C390.292 249.403 390.087 249.61 389.943 249.879C389.799 250.148 389.727 250.468 389.727 250.839H387.392C387.392 250.078 387.564 249.417 387.909 248.856C388.254 248.295 388.737 247.862 389.358 247.555C389.979 247.248 390.695 247.095 391.506 247.095C392.339 247.095 393.064 247.242 393.682 247.538C394.303 247.83 394.786 248.235 395.131 248.754C395.475 249.273 395.648 249.867 395.648 250.538C395.648 250.977 395.561 251.411 395.386 251.839C395.216 252.267 394.911 252.742 394.472 253.265C394.032 253.784 393.413 254.407 392.614 255.134L390.915 256.799V256.879H395.801V258.89H387.506ZM403.044 252.112V254.032H397.737V252.112H403.044ZM409.646 259.146C408.669 259.142 407.828 258.902 407.124 258.424C406.423 257.947 405.883 257.256 405.504 256.35C405.129 255.445 404.944 254.356 404.947 253.083C404.947 251.814 405.135 250.733 405.51 249.839C405.889 248.945 406.429 248.265 407.129 247.799C407.834 247.33 408.673 247.095 409.646 247.095C410.62 247.095 411.457 247.33 412.158 247.799C412.862 248.269 413.404 248.951 413.783 249.845C414.161 250.735 414.349 251.814 414.345 253.083C414.345 254.36 414.156 255.451 413.777 256.356C413.402 257.261 412.864 257.953 412.163 258.43C411.463 258.907 410.624 259.146 409.646 259.146ZM409.646 257.106C410.313 257.106 410.845 256.771 411.243 256.1C411.641 255.43 411.838 254.424 411.834 253.083C411.834 252.201 411.743 251.466 411.561 250.879C411.383 250.292 411.129 249.85 410.8 249.555C410.474 249.259 410.089 249.112 409.646 249.112C408.983 249.112 408.453 249.443 408.055 250.106C407.658 250.769 407.457 251.761 407.453 253.083C407.453 253.977 407.542 254.723 407.72 255.322C407.902 255.917 408.158 256.364 408.487 256.663C408.817 256.958 409.203 257.106 409.646 257.106ZM420.662 259.146C419.685 259.142 418.844 258.902 418.139 258.424C417.438 257.947 416.899 257.256 416.52 256.35C416.145 255.445 415.959 254.356 415.963 253.083C415.963 251.814 416.151 250.733 416.526 249.839C416.904 248.945 417.444 248.265 418.145 247.799C418.849 247.33 419.688 247.095 420.662 247.095C421.635 247.095 422.473 247.33 423.173 247.799C423.878 248.269 424.42 248.951 424.798 249.845C425.177 250.735 425.365 251.814 425.361 253.083C425.361 254.36 425.171 255.451 424.793 256.356C424.418 257.261 423.88 257.953 423.179 258.43C422.478 258.907 421.639 259.146 420.662 259.146ZM420.662 257.106C421.329 257.106 421.861 256.771 422.259 256.1C422.656 255.43 422.853 254.424 422.849 253.083C422.849 252.201 422.759 251.466 422.577 250.879C422.399 250.292 422.145 249.85 421.815 249.555C421.49 249.259 421.105 249.112 420.662 249.112C419.999 249.112 419.469 249.443 419.071 250.106C418.673 250.769 418.473 251.761 418.469 253.083C418.469 253.977 418.558 254.723 418.736 255.322C418.918 255.917 419.173 256.364 419.503 256.663C419.832 256.958 420.219 257.106 420.662 257.106Z" fill="black"/>
<path d="M40.6855 226.828V143.524" stroke="black" stroke-width="2"/>
<path d="M77.373 228.835V92.337" stroke="black" stroke-width="2"/>
<path d="M120.174 228.835V143.524" stroke="black" stroke-width="2"/>
<path d="M166.031 228.835V74.2711" stroke="black" stroke-width="2"/>
<path d="M211.889 228.835V111.407" stroke="black" stroke-width="2"/>
<path d="M257.746 228.835V201.736" stroke="black" stroke-width="2"/>
<path d="M304.369 228.835V175.641" stroke="black" stroke-width="2"/>
<path d="M352.52 228.835V151.553" stroke="black" stroke-width="2"/>
<path d="M401.436 228.835V215.788" stroke="black" stroke-width="2"/>
<path d="M33.516 135.642C32.783 135.639 32.1523 135.459 31.6239 135.101C31.0984 134.743 30.6935 134.225 30.4094 133.546C30.1282 132.867 29.989 132.05 29.9918 131.095C29.9918 130.144 30.1325 129.333 30.4137 128.662C30.6978 127.992 31.1026 127.482 31.6282 127.132C32.1566 126.78 32.7859 126.604 33.516 126.604C34.2461 126.604 34.8739 126.78 35.3995 127.132C35.9279 127.485 36.3342 127.996 36.6183 128.666C36.9023 129.334 37.043 130.144 37.0401 131.095C37.0401 132.053 36.8981 132.871 36.614 133.55C36.3327 134.229 35.9293 134.747 35.4038 135.105C34.8782 135.463 34.2489 135.642 33.516 135.642ZM33.516 134.112C34.016 134.112 34.4151 133.861 34.7134 133.358C35.0117 132.855 35.1594 132.101 35.1566 131.095C35.1566 130.434 35.0884 129.882 34.9521 129.442C34.8185 129.002 34.6282 128.671 34.381 128.449C34.1367 128.228 33.8484 128.117 33.516 128.117C33.0188 128.117 32.6211 128.365 32.3228 128.862C32.0245 129.36 31.8739 130.104 31.8711 131.095C31.8711 131.766 31.9379 132.326 32.0714 132.774C32.2077 133.22 32.3995 133.556 32.6467 133.78C32.8938 134.002 33.1836 134.112 33.516 134.112ZM41.7777 135.642C41.0447 135.639 40.4141 135.459 39.8857 135.101C39.3601 134.743 38.9553 134.225 38.6712 133.546C38.3899 132.867 38.2507 132.05 38.2536 131.095C38.2536 130.144 38.3942 129.333 38.6754 128.662C38.9595 127.992 39.3643 127.482 39.8899 127.132C40.4183 126.78 41.0476 126.604 41.7777 126.604C42.5078 126.604 43.1357 126.78 43.6612 127.132C44.1896 127.485 44.5959 127.996 44.88 128.666C45.1641 129.334 45.3047 130.144 45.3018 131.095C45.3018 132.053 45.1598 132.871 44.8757 133.55C44.5945 134.229 44.1911 134.747 43.6655 135.105C43.1399 135.463 42.5107 135.642 41.7777 135.642ZM41.7777 134.112C42.2777 134.112 42.6768 133.861 42.9751 133.358C43.2734 132.855 43.4212 132.101 43.4183 131.095C43.4183 130.434 43.3501 129.882 43.2138 129.442C43.0803 129.002 42.8899 128.671 42.6428 128.449C42.3984 128.228 42.1101 128.117 41.7777 128.117C41.2805 128.117 40.8828 128.365 40.5845 128.862C40.2862 129.36 40.1357 130.104 40.1328 131.095C40.1328 131.766 40.1996 132.326 40.3331 132.774C40.4695 133.22 40.6612 133.556 40.9084 133.78C41.1555 134.002 41.4453 134.112 41.7777 134.112ZM50.0394 135.642C49.3065 135.639 48.6758 135.459 48.1474 135.101C47.6218 134.743 47.217 134.225 46.9329 133.546C46.6516 132.867 46.5124 132.05 46.5153 131.095C46.5153 130.144 46.6559 129.333 46.9371 128.662C47.2212 127.992 47.6261 127.482 48.1516 127.132C48.68 126.78 49.3093 126.604 50.0394 126.604C50.7695 126.604 51.3974 126.78 51.9229 127.132C52.4513 127.485 52.8576 127.996 53.1417 128.666C53.4258 129.334 53.5664 130.144 53.5636 131.095C53.5636 132.053 53.4215 132.871 53.1374 133.55C52.8562 134.229 52.4528 134.747 51.9272 135.105C51.4016 135.463 50.7724 135.642 50.0394 135.642ZM50.0394 134.112C50.5394 134.112 50.9386 133.861 51.2369 133.358C51.5352 132.855 51.6829 132.101 51.68 131.095C51.68 130.434 51.6119 129.882 51.4755 129.442C51.342 129.002 51.1516 128.671 50.9045 128.449C50.6602 128.228 50.3718 128.117 50.0394 128.117C49.5423 128.117 49.1445 128.365 48.8462 128.862C48.5479 129.36 48.3974 130.104 48.3945 131.095C48.3945 131.766 48.4613 132.326 48.5948 132.774C48.7312 133.22 48.9229 133.556 49.1701 133.78C49.4173 134.002 49.707 134.112 50.0394 134.112Z" fill="black"/>
<path d="M68.6742 89.4738C67.9412 89.471 67.3105 89.2906 66.7821 88.9326C66.2566 88.5747 65.8517 88.0562 65.5676 87.3772C65.2864 86.6982 65.1472 85.8815 65.15 84.9269C65.15 83.9752 65.2907 83.1641 65.5719 82.4937C65.856 81.8232 66.2608 81.3133 66.7864 80.9639C67.3148 80.6116 67.9441 80.4355 68.6742 80.4355C69.4043 80.4355 70.0321 80.6116 70.5577 80.9639C71.0861 81.3161 71.4924 81.8275 71.7765 82.498C72.0605 83.1656 72.2012 83.9752 72.1983 84.9269C72.1983 85.8843 72.0563 86.7025 71.7722 87.3815C71.4909 88.0605 71.0875 88.5789 70.562 88.9369C70.0364 89.2948 69.4071 89.4738 68.6742 89.4738ZM68.6742 87.944C69.1742 87.944 69.5733 87.6926 69.8716 87.1897C70.1699 86.6869 70.3176 85.9326 70.3148 84.9269C70.3148 84.265 70.2466 83.7139 70.1103 83.2735C69.9767 82.8332 69.7864 82.5022 69.5392 82.2806C69.2949 82.059 69.0066 81.9482 68.6742 81.9482C68.177 81.9482 67.7793 82.1968 67.481 82.694C67.1827 83.1911 67.0321 83.9355 67.0293 84.9269C67.0293 85.5974 67.0961 86.157 67.2296 86.6059C67.3659 87.0519 67.5577 87.3872 67.8049 87.6116C68.052 87.8332 68.3418 87.944 68.6742 87.944ZM76.9359 89.4738C76.2029 89.471 75.5723 89.2906 75.0439 88.9326C74.5183 88.5747 74.1135 88.0562 73.8294 87.3772C73.5481 86.6982 73.4089 85.8815 73.4118 84.9269C73.4118 83.9752 73.5524 83.1641 73.8336 82.4937C74.1177 81.8232 74.5225 81.3133 75.0481 80.9639C75.5765 80.6116 76.2058 80.4355 76.9359 80.4355C77.666 80.4355 78.2939 80.6116 78.8194 80.9639C79.3478 81.3161 79.7541 81.8275 80.0382 82.498C80.3223 83.1656 80.4629 83.9752 80.4601 84.9269C80.4601 85.8843 80.318 86.7025 80.0339 87.3815C79.7527 88.0605 79.3493 88.5789 78.8237 88.9369C78.2981 89.2948 77.6689 89.4738 76.9359 89.4738ZM76.9359 87.944C77.4359 87.944 77.835 87.6926 78.1333 87.1897C78.4316 86.6869 78.5794 85.9326 78.5765 84.9269C78.5765 84.265 78.5083 83.7139 78.372 83.2735C78.2385 82.8332 78.0481 82.5022 77.801 82.2806C77.5566 82.059 77.2683 81.9482 76.9359 81.9482C76.4387 81.9482 76.041 82.1968 75.7427 82.694C75.4444 83.1911 75.2939 83.9355 75.291 84.9269C75.291 85.5974 75.3578 86.157 75.4913 86.6059C75.6277 87.0519 75.8194 87.3872 76.0666 87.6116C76.3137 87.8332 76.6035 87.944 76.9359 87.944ZM85.1976 89.4738C84.4647 89.471 83.834 89.2906 83.3056 88.9326C82.78 88.5747 82.3752 88.0562 82.0911 87.3772C81.8098 86.6982 81.6706 85.8815 81.6735 84.9269C81.6735 83.9752 81.8141 83.1641 82.0953 82.4937C82.3794 81.8232 82.7843 81.3133 83.3098 80.9639C83.8382 80.6116 84.4675 80.4355 85.1976 80.4355C85.9277 80.4355 86.5556 80.6116 87.0811 80.9639C87.6096 81.3161 88.0158 81.8275 88.2999 82.498C88.584 83.1656 88.7246 83.9752 88.7218 84.9269C88.7218 85.8843 88.5797 86.7025 88.2956 87.3815C88.0144 88.0605 87.611 88.5789 87.0854 88.9369C86.5598 89.2948 85.9306 89.4738 85.1976 89.4738ZM85.1976 87.944C85.6976 87.944 86.0968 87.6926 86.3951 87.1897C86.6934 86.6869 86.8411 85.9326 86.8382 84.9269C86.8382 84.265 86.7701 83.7139 86.6337 83.2735C86.5002 82.8332 86.3098 82.5022 86.0627 82.2806C85.8184 82.059 85.53 81.9482 85.1976 81.9482C84.7005 81.9482 84.3027 82.1968 84.0044 82.694C83.7061 83.1911 83.5556 83.9355 83.5527 84.9269C83.5527 85.5974 83.6195 86.157 83.753 86.6059C83.8894 87.0519 84.0811 87.3872 84.3283 87.6116C84.5755 87.8332 84.8652 87.944 85.1976 87.944Z" fill="black"/>
<path d="M111.475 138.653C110.742 138.65 110.111 138.47 109.583 138.112C109.057 137.754 108.653 137.236 108.368 136.557C108.087 135.878 107.948 135.061 107.951 134.106C107.951 133.155 108.091 132.344 108.373 131.673C108.657 131.003 109.062 130.493 109.587 130.143C110.116 129.791 110.745 129.615 111.475 129.615C112.205 129.615 112.833 129.791 113.358 130.143C113.887 130.496 114.293 131.007 114.577 131.677C114.861 132.345 115.002 133.155 114.999 134.106C114.999 135.064 114.857 135.882 114.573 136.561C114.292 137.24 113.888 137.758 113.363 138.116C112.837 138.474 112.208 138.653 111.475 138.653ZM111.475 137.123C111.975 137.123 112.374 136.872 112.672 136.369C112.971 135.866 113.118 135.112 113.116 134.106C113.116 133.445 113.047 132.893 112.911 132.453C112.778 132.013 112.587 131.682 112.34 131.46C112.096 131.239 111.807 131.128 111.475 131.128C110.978 131.128 110.58 131.376 110.282 131.873C109.983 132.371 109.833 133.115 109.83 134.106C109.83 134.777 109.897 135.337 110.03 135.785C110.167 136.231 110.358 136.567 110.606 136.791C110.853 137.013 111.143 137.123 111.475 137.123ZM119.737 138.653C119.004 138.65 118.373 138.47 117.845 138.112C117.319 137.754 116.914 137.236 116.63 136.557C116.349 135.878 116.21 135.061 116.213 134.106C116.213 133.155 116.353 132.344 116.634 131.673C116.919 131.003 117.323 130.493 117.849 130.143C118.377 129.791 119.007 129.615 119.737 129.615C120.467 129.615 121.095 129.791 121.62 130.143C122.149 130.496 122.555 131.007 122.839 131.677C123.123 132.345 123.264 133.155 123.261 134.106C123.261 135.064 123.119 135.882 122.835 136.561C122.553 137.24 122.15 137.758 121.624 138.116C121.099 138.474 120.47 138.653 119.737 138.653ZM119.737 137.123C120.237 137.123 120.636 136.872 120.934 136.369C121.232 135.866 121.38 135.112 121.377 134.106C121.377 133.445 121.309 132.893 121.173 132.453C121.039 132.013 120.849 131.682 120.602 131.46C120.357 131.239 120.069 131.128 119.737 131.128C119.24 131.128 118.842 131.376 118.544 131.873C118.245 132.371 118.095 133.115 118.092 134.106C118.092 134.777 118.159 135.337 118.292 135.785C118.428 136.231 118.62 136.567 118.867 136.791C119.115 137.013 119.404 137.123 119.737 137.123ZM127.998 138.653C127.265 138.65 126.635 138.47 126.106 138.112C125.581 137.754 125.176 137.236 124.892 136.557C124.611 135.878 124.471 135.061 124.474 134.106C124.474 133.155 124.615 132.344 124.896 131.673C125.18 131.003 125.585 130.493 126.111 130.143C126.639 129.791 127.268 129.615 127.998 129.615C128.729 129.615 129.356 129.791 129.882 130.143C130.41 130.496 130.817 131.007 131.101 131.677C131.385 132.345 131.525 133.155 131.523 134.106C131.523 135.064 131.381 135.882 131.096 136.561C130.815 137.24 130.412 137.758 129.886 138.116C129.361 138.474 128.731 138.653 127.998 138.653ZM127.998 137.123C128.498 137.123 128.898 136.872 129.196 136.369C129.494 135.866 129.642 135.112 129.639 134.106C129.639 133.445 129.571 132.893 129.434 132.453C129.301 132.013 129.111 131.682 128.863 131.46C128.619 131.239 128.331 131.128 127.998 131.128C127.501 131.128 127.104 131.376 126.805 131.873C126.507 132.371 126.356 133.115 126.354 134.106C126.354 134.777 126.42 135.337 126.554 135.785C126.69 136.231 126.882 136.567 127.129 136.791C127.376 137.013 127.666 137.123 127.998 137.123Z" fill="black"/>
<path d="M392.737 209.913C392.004 209.911 391.373 209.73 390.845 209.372C390.319 209.014 389.914 208.496 389.63 207.817C389.349 207.138 389.21 206.321 389.213 205.367C389.213 204.415 389.353 203.604 389.634 202.933C389.919 202.263 390.323 201.753 390.849 201.403C391.377 201.051 392.007 200.875 392.737 200.875C393.467 200.875 394.095 201.051 394.62 201.403C395.149 201.756 395.555 202.267 395.839 202.938C396.123 203.605 396.264 204.415 396.261 205.367C396.261 206.324 396.119 207.142 395.835 207.821C395.553 208.5 395.15 209.018 394.624 209.376C394.099 209.734 393.47 209.913 392.737 209.913ZM392.737 208.384C393.237 208.384 393.636 208.132 393.934 207.629C394.232 207.126 394.38 206.372 394.377 205.367C394.377 204.705 394.309 204.153 394.173 203.713C394.039 203.273 393.849 202.942 393.602 202.72C393.357 202.499 393.069 202.388 392.737 202.388C392.24 202.388 391.842 202.636 391.544 203.134C391.245 203.631 391.095 204.375 391.092 205.367C391.092 206.037 391.159 206.597 391.292 207.045C391.428 207.492 391.62 207.827 391.867 208.051C392.115 208.273 392.404 208.384 392.737 208.384ZM400.998 209.913C400.265 209.911 399.635 209.73 399.106 209.372C398.581 209.014 398.176 208.496 397.892 207.817C397.611 207.138 397.471 206.321 397.474 205.367C397.474 204.415 397.615 203.604 397.896 202.933C398.18 202.263 398.585 201.753 399.111 201.403C399.639 201.051 400.268 200.875 400.998 200.875C401.729 200.875 402.356 201.051 402.882 201.403C403.41 201.756 403.817 202.267 404.101 202.938C404.385 203.605 404.525 204.415 404.523 205.367C404.523 206.324 404.381 207.142 404.096 207.821C403.815 208.5 403.412 209.018 402.886 209.376C402.361 209.734 401.731 209.913 400.998 209.913ZM400.998 208.384C401.498 208.384 401.898 208.132 402.196 207.629C402.494 207.126 402.642 206.372 402.639 205.367C402.639 204.705 402.571 204.153 402.434 203.713C402.301 203.273 402.111 202.942 401.863 202.72C401.619 202.499 401.331 202.388 400.998 202.388C400.501 202.388 400.104 202.636 399.805 203.134C399.507 203.631 399.356 204.375 399.354 205.367C399.354 206.037 399.42 206.597 399.554 207.045C399.69 207.492 399.882 207.827 400.129 208.051C400.376 208.273 400.666 208.384 400.998 208.384ZM409.26 209.913C408.527 209.911 407.896 209.73 407.368 209.372C406.843 209.014 406.438 208.496 406.154 207.817C405.872 207.138 405.733 206.321 405.736 205.367C405.736 204.415 405.877 203.604 406.158 202.933C406.442 202.263 406.847 201.753 407.372 201.403C407.901 201.051 408.53 200.875 409.26 200.875C409.99 200.875 410.618 201.051 411.144 201.403C411.672 201.756 412.078 202.267 412.362 202.938C412.646 203.605 412.787 204.415 412.784 205.367C412.784 206.324 412.642 207.142 412.358 207.821C412.077 208.5 411.673 209.018 411.148 209.376C410.622 209.734 409.993 209.913 409.26 209.913ZM409.26 208.384C409.76 208.384 410.159 208.132 410.458 207.629C410.756 207.126 410.904 206.372 410.901 205.367C410.901 204.705 410.833 204.153 410.696 203.713C410.563 203.273 410.372 202.942 410.125 202.72C409.881 202.499 409.593 202.388 409.26 202.388C408.763 202.388 408.365 202.636 408.067 203.134C407.769 203.631 407.618 204.375 407.615 205.367C407.615 206.037 407.682 206.597 407.816 207.045C407.952 207.492 408.144 207.827 408.391 208.051C408.638 208.273 408.928 208.384 409.26 208.384Z" fill="black"/>
<path d="M157.332 71.4079C156.599 71.405 155.969 71.2246 155.44 70.8667C154.915 70.5087 154.51 69.9903 154.226 69.3113C153.945 68.6323 153.805 67.8156 153.808 66.861C153.808 65.9093 153.949 65.0982 154.23 64.4278C154.514 63.7573 154.919 63.2474 155.445 62.8979C155.973 62.5457 156.602 62.3695 157.332 62.3695C158.063 62.3695 158.69 62.5457 159.216 62.8979C159.744 63.2502 160.151 63.7616 160.435 64.432C160.719 65.0996 160.859 65.9093 160.857 66.861C160.857 67.8184 160.714 68.6366 160.43 69.3156C160.149 69.9945 159.746 70.513 159.22 70.871C158.695 71.2289 158.065 71.4079 157.332 71.4079ZM157.332 69.8781C157.832 69.8781 158.232 69.6266 158.53 69.1238C158.828 68.621 158.976 67.8667 158.973 66.861C158.973 66.1991 158.905 65.6479 158.768 65.2076C158.635 64.7673 158.445 64.4363 158.197 64.2147C157.953 63.9931 157.665 63.8823 157.332 63.8823C156.835 63.8823 156.438 64.1309 156.139 64.6281C155.841 65.1252 155.69 65.8695 155.688 66.861C155.688 67.5315 155.754 68.0911 155.888 68.54C156.024 68.986 156.216 69.3212 156.463 69.5457C156.71 69.7673 157 69.8781 157.332 69.8781ZM165.594 71.4079C164.861 71.405 164.23 71.2246 163.702 70.8667C163.176 70.5087 162.772 69.9903 162.488 69.3113C162.206 68.6323 162.067 67.8156 162.07 66.861C162.07 65.9093 162.211 65.0982 162.492 64.4278C162.776 63.7573 163.181 63.2474 163.706 62.8979C164.235 62.5457 164.864 62.3695 165.594 62.3695C166.324 62.3695 166.952 62.5457 167.478 62.8979C168.006 63.2502 168.412 63.7616 168.696 64.432C168.98 65.0996 169.121 65.9093 169.118 66.861C169.118 67.8184 168.976 68.6366 168.692 69.3156C168.411 69.9945 168.007 70.513 167.482 70.871C166.956 71.2289 166.327 71.4079 165.594 71.4079ZM165.594 69.8781C166.094 69.8781 166.493 69.6266 166.792 69.1238C167.09 68.621 167.238 67.8667 167.235 66.861C167.235 66.1991 167.167 65.6479 167.03 65.2076C166.897 64.7673 166.706 64.4363 166.459 64.2147C166.215 63.9931 165.926 63.8823 165.594 63.8823C165.097 63.8823 164.699 64.1309 164.401 64.6281C164.103 65.1252 163.952 65.8695 163.949 66.861C163.949 67.5315 164.016 68.0911 164.15 68.54C164.286 68.986 164.478 69.3212 164.725 69.5457C164.972 69.7673 165.262 69.8781 165.594 69.8781ZM173.856 71.4079C173.123 71.405 172.492 71.2246 171.964 70.8667C171.438 70.5087 171.033 69.9903 170.749 69.3113C170.468 68.6323 170.329 67.8156 170.332 66.861C170.332 65.9093 170.472 65.0982 170.754 64.4278C171.038 63.7573 171.442 63.2474 171.968 62.8979C172.496 62.5457 173.126 62.3695 173.856 62.3695C174.586 62.3695 175.214 62.5457 175.739 62.8979C176.268 63.2502 176.674 63.7616 176.958 64.432C177.242 65.0996 177.383 65.9093 177.38 66.861C177.38 67.8184 177.238 68.6366 176.954 69.3156C176.673 69.9945 176.269 70.513 175.744 70.871C175.218 71.2289 174.589 71.4079 173.856 71.4079ZM173.856 69.8781C174.356 69.8781 174.755 69.6266 175.053 69.1238C175.352 68.621 175.499 67.8667 175.496 66.861C175.496 66.1991 175.428 65.6479 175.292 65.2076C175.158 64.7673 174.968 64.4363 174.721 64.2147C174.477 63.9931 174.188 63.8823 173.856 63.8823C173.359 63.8823 172.961 64.1309 172.663 64.6281C172.364 65.1252 172.214 65.8695 172.211 66.861C172.211 67.5315 172.278 68.0911 172.411 68.54C172.548 68.986 172.739 69.3212 172.987 69.5457C173.234 69.7673 173.523 69.8781 173.856 69.8781Z" fill="black"/>
<path d="M139.752 93.4885C139.019 93.4856 138.389 93.3052 137.86 92.9473C137.335 92.5893 136.93 92.0708 136.646 91.3919C136.365 90.7129 136.225 89.8961 136.228 88.9416C136.228 87.9899 136.369 87.1788 136.65 86.5083C136.934 85.8379 137.339 85.3279 137.865 84.9785C138.393 84.6262 139.022 84.4501 139.752 84.4501C140.482 84.4501 141.11 84.6262 141.636 84.9785C142.164 85.3308 142.57 85.8421 142.855 86.5126C143.139 87.1802 143.279 87.9899 143.276 88.9416C143.276 89.899 143.134 90.7171 142.85 91.3961C142.569 92.0751 142.166 92.5936 141.64 92.9515C141.115 93.3095 140.485 93.4885 139.752 93.4885ZM139.752 91.9586C140.252 91.9586 140.651 91.7072 140.95 91.2044C141.248 90.7015 141.396 89.9473 141.393 88.9416C141.393 88.2796 141.325 87.7285 141.188 87.2882C141.055 86.8478 140.865 86.5169 140.617 86.2953C140.373 86.0737 140.085 85.9629 139.752 85.9629C139.255 85.9629 138.857 86.2115 138.559 86.7086C138.261 87.2058 138.11 87.9501 138.107 88.9416C138.107 89.612 138.174 90.1717 138.308 90.6206C138.444 91.0666 138.636 91.4018 138.883 91.6262C139.13 91.8478 139.42 91.9586 139.752 91.9586ZM148.014 93.4885C147.281 93.4856 146.65 93.3052 146.122 92.9473C145.596 92.5893 145.192 92.0708 144.907 91.3919C144.626 90.7129 144.487 89.8961 144.49 88.9416C144.49 87.9899 144.631 87.1788 144.912 86.5083C145.196 85.8379 145.601 85.3279 146.126 84.9785C146.655 84.6262 147.284 84.4501 148.014 84.4501C148.744 84.4501 149.372 84.6262 149.898 84.9785C150.426 85.3308 150.832 85.8421 151.116 86.5126C151.4 87.1802 151.541 87.9899 151.538 88.9416C151.538 89.899 151.396 90.7171 151.112 91.3961C150.831 92.0751 150.427 92.5936 149.902 92.9515C149.376 93.3095 148.747 93.4885 148.014 93.4885ZM148.014 91.9586C148.514 91.9586 148.913 91.7072 149.211 91.2044C149.51 90.7015 149.657 89.9473 149.655 88.9416C149.655 88.2796 149.586 87.7285 149.45 87.2882C149.317 86.8478 149.126 86.5169 148.879 86.2953C148.635 86.0737 148.346 85.9629 148.014 85.9629C147.517 85.9629 147.119 86.2115 146.821 86.7086C146.523 87.2058 146.372 87.9501 146.369 88.9416C146.369 89.612 146.436 90.1717 146.569 90.6206C146.706 91.0666 146.898 91.4018 147.145 91.6262C147.392 91.8478 147.682 91.9586 148.014 91.9586ZM156.276 93.4885C155.543 93.4856 154.912 93.3052 154.384 92.9473C153.858 92.5893 153.453 92.0708 153.169 91.3919C152.888 90.7129 152.749 89.8961 152.752 88.9416C152.752 87.9899 152.892 87.1788 153.173 86.5083C153.458 85.8379 153.862 85.3279 154.388 84.9785C154.916 84.6262 155.546 84.4501 156.276 84.4501C157.006 84.4501 157.634 84.6262 158.159 84.9785C158.688 85.3308 159.094 85.8421 159.378 86.5126C159.662 87.1802 159.803 87.9899 159.8 88.9416C159.8 89.899 159.658 90.7171 159.374 91.3961C159.093 92.0751 158.689 92.5936 158.164 92.9515C157.638 93.3095 157.009 93.4885 156.276 93.4885ZM156.276 91.9586C156.776 91.9586 157.175 91.7072 157.473 91.2044C157.771 90.7015 157.919 89.9473 157.916 88.9416C157.916 88.2796 157.848 87.7285 157.712 87.2882C157.578 86.8478 157.388 86.5169 157.141 86.2953C156.896 86.0737 156.608 85.9629 156.276 85.9629C155.779 85.9629 155.381 86.2115 155.083 86.7086C154.784 87.2058 154.634 87.9501 154.631 88.9416C154.631 89.612 154.698 90.1717 154.831 90.6206C154.968 91.0666 155.159 91.4018 155.406 91.6262C155.654 91.8478 155.943 91.9586 156.276 91.9586Z" fill="black"/>
<path d="M203.19 105.532C202.457 105.53 201.826 105.349 201.298 104.991C200.772 104.633 200.367 104.115 200.083 103.436C199.802 102.757 199.663 101.94 199.666 100.986C199.666 100.034 199.806 99.2227 200.088 98.5523C200.372 97.8818 200.776 97.3719 201.302 97.0225C201.83 96.6702 202.46 96.494 203.19 96.494C203.92 96.494 204.548 96.6702 205.073 97.0225C205.602 97.3747 206.008 97.8861 206.292 98.5565C206.576 99.2242 206.717 100.034 206.714 100.986C206.714 101.943 206.572 102.761 206.288 103.44C206.007 104.119 205.603 104.638 205.078 104.995C204.552 105.353 203.923 105.532 203.19 105.532ZM203.19 104.003C203.69 104.003 204.089 103.751 204.387 103.248C204.686 102.745 204.833 101.991 204.83 100.986C204.83 100.324 204.762 99.7725 204.626 99.3321C204.492 98.8918 204.302 98.5608 204.055 98.3392C203.811 98.1176 203.522 98.0068 203.19 98.0068C202.693 98.0068 202.295 98.2554 201.997 98.7526C201.698 99.2497 201.548 99.994 201.545 100.986C201.545 101.656 201.612 102.216 201.745 102.665C201.882 103.111 202.073 103.446 202.32 103.67C202.568 103.892 202.857 104.003 203.19 104.003ZM211.452 105.532C210.719 105.53 210.088 105.349 209.559 104.991C209.034 104.633 208.629 104.115 208.345 103.436C208.064 102.757 207.925 101.94 207.927 100.986C207.927 100.034 208.068 99.2227 208.349 98.5523C208.633 97.8818 209.038 97.3719 209.564 97.0225C210.092 96.6702 210.721 96.494 211.452 96.494C212.182 96.494 212.809 96.6702 213.335 97.0225C213.863 97.3747 214.27 97.8861 214.554 98.5565C214.838 99.2242 214.979 100.034 214.976 100.986C214.976 101.943 214.834 102.761 214.55 103.44C214.268 104.119 213.865 104.638 213.339 104.995C212.814 105.353 212.184 105.532 211.452 105.532ZM211.452 104.003C211.952 104.003 212.351 103.751 212.649 103.248C212.947 102.745 213.095 101.991 213.092 100.986C213.092 100.324 213.024 99.7725 212.888 99.3321C212.754 98.8918 212.564 98.5608 212.317 98.3392C212.072 98.1176 211.784 98.0068 211.452 98.0068C210.954 98.0068 210.557 98.2554 210.258 98.7526C209.96 99.2497 209.809 99.994 209.807 100.986C209.807 101.656 209.873 102.216 210.007 102.665C210.143 103.111 210.335 103.446 210.582 103.67C210.829 103.892 211.119 104.003 211.452 104.003ZM219.713 105.532C218.98 105.53 218.35 105.349 217.821 104.991C217.296 104.633 216.891 104.115 216.607 103.436C216.325 102.757 216.186 101.94 216.189 100.986C216.189 100.034 216.33 99.2227 216.611 98.5523C216.895 97.8818 217.3 97.3719 217.825 97.0225C218.354 96.6702 218.983 96.494 219.713 96.494C220.443 96.494 221.071 96.6702 221.597 97.0225C222.125 97.3747 222.531 97.8861 222.816 98.5565C223.1 99.2242 223.24 100.034 223.237 100.986C223.237 101.943 223.095 102.761 222.811 103.44C222.53 104.119 222.127 104.638 221.601 104.995C221.075 105.353 220.446 105.532 219.713 105.532ZM219.713 104.003C220.213 104.003 220.612 103.751 220.911 103.248C221.209 102.745 221.357 101.991 221.354 100.986C221.354 100.324 221.286 99.7725 221.149 99.3321C221.016 98.8918 220.825 98.5608 220.578 98.3392C220.334 98.1176 220.046 98.0068 219.713 98.0068C219.216 98.0068 218.818 98.2554 218.52 98.7526C218.222 99.2497 218.071 99.994 218.068 100.986C218.068 101.656 218.135 102.216 218.269 102.665C218.405 103.111 218.597 103.446 218.844 103.67C219.091 103.892 219.381 104.003 219.713 104.003Z" fill="black"/>
<path d="M249.047 194.858C248.314 194.856 247.684 194.675 247.155 194.317C246.63 193.959 246.225 193.441 245.941 192.762C245.659 192.083 245.52 191.266 245.523 190.312C245.523 189.36 245.664 188.549 245.945 187.878C246.229 187.208 246.634 186.698 247.159 186.349C247.688 185.996 248.317 185.82 249.047 185.82C249.777 185.82 250.405 185.996 250.931 186.349C251.459 186.701 251.865 187.212 252.15 187.883C252.434 188.55 252.574 189.36 252.571 190.312C252.571 191.269 252.429 192.087 252.145 192.766C251.864 193.445 251.461 193.964 250.935 194.322C250.409 194.679 249.78 194.858 249.047 194.858ZM249.047 193.329C249.547 193.329 249.946 193.077 250.245 192.574C250.543 192.072 250.691 191.317 250.688 190.312C250.688 189.65 250.62 189.099 250.483 188.658C250.35 188.218 250.159 187.887 249.912 187.665C249.668 187.444 249.38 187.333 249.047 187.333C248.55 187.333 248.152 187.581 247.854 188.079C247.556 188.576 247.405 189.32 247.402 190.312C247.402 190.982 247.469 191.542 247.603 191.991C247.739 192.437 247.931 192.772 248.178 192.996C248.425 193.218 248.715 193.329 249.047 193.329ZM257.309 194.858C256.576 194.856 255.945 194.675 255.417 194.317C254.891 193.959 254.487 193.441 254.202 192.762C253.921 192.083 253.782 191.266 253.785 190.312C253.785 189.36 253.925 188.549 254.207 187.878C254.491 187.208 254.896 186.698 255.421 186.349C255.95 185.996 256.579 185.82 257.309 185.82C258.039 185.82 258.667 185.996 259.192 186.349C259.721 186.701 260.127 187.212 260.411 187.883C260.695 188.55 260.836 189.36 260.833 190.312C260.833 191.269 260.691 192.087 260.407 192.766C260.126 193.445 259.722 193.964 259.197 194.322C258.671 194.679 258.042 194.858 257.309 194.858ZM257.309 193.329C257.809 193.329 258.208 193.077 258.506 192.574C258.805 192.072 258.952 191.317 258.95 190.312C258.95 189.65 258.881 189.099 258.745 188.658C258.612 188.218 258.421 187.887 258.174 187.665C257.93 187.444 257.641 187.333 257.309 187.333C256.812 187.333 256.414 187.581 256.116 188.079C255.817 188.576 255.667 189.32 255.664 190.312C255.664 190.982 255.731 191.542 255.864 191.991C256.001 192.437 256.192 192.772 256.44 192.996C256.687 193.218 256.977 193.329 257.309 193.329ZM265.571 194.858C264.838 194.856 264.207 194.675 263.679 194.317C263.153 193.959 262.748 193.441 262.464 192.762C262.183 192.083 262.044 191.266 262.047 190.312C262.047 189.36 262.187 188.549 262.468 187.878C262.752 187.208 263.157 186.698 263.683 186.349C264.211 185.996 264.841 185.82 265.571 185.82C266.301 185.82 266.929 185.996 267.454 186.349C267.983 186.701 268.389 187.212 268.673 187.883C268.957 188.55 269.098 189.36 269.095 190.312C269.095 191.269 268.953 192.087 268.669 192.766C268.387 193.445 267.984 193.964 267.458 194.322C266.933 194.679 266.304 194.858 265.571 194.858ZM265.571 193.329C266.071 193.329 266.47 193.077 266.768 192.574C267.066 192.072 267.214 191.317 267.211 190.312C267.211 189.65 267.143 189.099 267.007 188.658C266.873 188.218 266.683 187.887 266.436 187.665C266.191 187.444 265.903 187.333 265.571 187.333C265.074 187.333 264.676 187.581 264.377 188.079C264.079 188.576 263.929 189.32 263.926 190.312C263.926 190.982 263.993 191.542 264.126 191.991C264.262 192.437 264.454 192.772 264.701 192.996C264.949 193.218 265.238 193.329 265.571 193.329Z" fill="black"/>
<path d="M295.67 166.756C294.937 166.753 294.307 166.573 293.778 166.215C293.253 165.857 292.848 165.338 292.564 164.659C292.282 163.98 292.143 163.164 292.146 162.209C292.146 161.257 292.287 160.446 292.568 159.776C292.852 159.105 293.257 158.595 293.782 158.246C294.311 157.894 294.94 157.717 295.67 157.717C296.4 157.717 297.028 157.894 297.554 158.246C298.082 158.598 298.488 159.11 298.773 159.78C299.057 160.448 299.197 161.257 299.194 162.209C299.194 163.166 299.052 163.985 298.768 164.664C298.487 165.342 298.084 165.861 297.558 166.219C297.032 166.577 296.403 166.756 295.67 166.756ZM295.67 165.226C296.17 165.226 296.569 164.975 296.868 164.472C297.166 163.969 297.314 163.215 297.311 162.209C297.311 161.547 297.243 160.996 297.106 160.556C296.973 160.115 296.782 159.784 296.535 159.563C296.291 159.341 296.003 159.23 295.67 159.23C295.173 159.23 294.775 159.479 294.477 159.976C294.179 160.473 294.028 161.217 294.025 162.209C294.025 162.879 294.092 163.439 294.226 163.888C294.362 164.334 294.554 164.669 294.801 164.894C295.048 165.115 295.338 165.226 295.67 165.226ZM303.932 166.756C303.199 166.753 302.568 166.573 302.04 166.215C301.514 165.857 301.11 165.338 300.825 164.659C300.544 163.98 300.405 163.164 300.408 162.209C300.408 161.257 300.548 160.446 300.83 159.776C301.114 159.105 301.519 158.595 302.044 158.246C302.573 157.894 303.202 157.717 303.932 157.717C304.662 157.717 305.29 157.894 305.816 158.246C306.344 158.598 306.75 159.11 307.034 159.78C307.318 160.448 307.459 161.257 307.456 162.209C307.456 163.166 307.314 163.985 307.03 164.664C306.749 165.342 306.345 165.861 305.82 166.219C305.294 166.577 304.665 166.756 303.932 166.756ZM303.932 165.226C304.432 165.226 304.831 164.975 305.129 164.472C305.428 163.969 305.575 163.215 305.573 162.209C305.573 161.547 305.504 160.996 305.368 160.556C305.235 160.115 305.044 159.784 304.797 159.563C304.553 159.341 304.264 159.23 303.932 159.23C303.435 159.23 303.037 159.479 302.739 159.976C302.441 160.473 302.29 161.217 302.287 162.209C302.287 162.879 302.354 163.439 302.487 163.888C302.624 164.334 302.816 164.669 303.063 164.894C303.31 165.115 303.6 165.226 303.932 165.226ZM312.194 166.756C311.461 166.753 310.83 166.573 310.302 166.215C309.776 165.857 309.371 165.338 309.087 164.659C308.806 163.98 308.667 163.164 308.67 162.209C308.67 161.257 308.81 160.446 309.091 159.776C309.376 159.105 309.78 158.595 310.306 158.246C310.834 157.894 311.464 157.717 312.194 157.717C312.924 157.717 313.552 157.894 314.077 158.246C314.606 158.598 315.012 159.11 315.296 159.78C315.58 160.448 315.721 161.257 315.718 162.209C315.718 163.166 315.576 163.985 315.292 164.664C315.01 165.342 314.607 165.861 314.081 166.219C313.556 166.577 312.927 166.756 312.194 166.756ZM312.194 165.226C312.694 165.226 313.093 164.975 313.391 164.472C313.689 163.969 313.837 163.215 313.834 162.209C313.834 161.547 313.766 160.996 313.63 160.556C313.496 160.115 313.306 159.784 313.059 159.563C312.814 159.341 312.526 159.23 312.194 159.23C311.697 159.23 311.299 159.479 311.001 159.976C310.702 160.473 310.552 161.217 310.549 162.209C310.549 162.879 310.616 163.439 310.749 163.888C310.885 164.334 311.077 164.669 311.324 164.894C311.572 165.115 311.861 165.226 312.194 165.226Z" fill="black"/>
<path d="M343.821 146.683C343.088 146.68 342.457 146.499 341.929 146.141C341.403 145.783 340.998 145.265 340.714 144.586C340.433 143.907 340.294 143.09 340.297 142.136C340.297 141.184 340.437 140.373 340.718 139.702C341.002 139.032 341.407 138.522 341.933 138.173C342.461 137.82 343.091 137.644 343.821 137.644C344.551 137.644 345.179 137.82 345.704 138.173C346.233 138.525 346.639 139.036 346.923 139.707C347.207 140.374 347.348 141.184 347.345 142.136C347.345 143.093 347.203 143.911 346.919 144.59C346.637 145.269 346.234 145.788 345.708 146.146C345.183 146.504 344.554 146.683 343.821 146.683ZM343.821 145.153C344.321 145.153 344.72 144.901 345.018 144.399C345.316 143.896 345.464 143.141 345.461 142.136C345.461 141.474 345.393 140.923 345.257 140.482C345.123 140.042 344.933 139.711 344.686 139.489C344.441 139.268 344.153 139.157 343.821 139.157C343.324 139.157 342.926 139.406 342.627 139.903C342.329 140.4 342.179 141.144 342.176 142.136C342.176 142.806 342.243 143.366 342.376 143.815C342.512 144.261 342.704 144.596 342.951 144.82C343.199 145.042 343.488 145.153 343.821 145.153ZM352.082 146.683C351.349 146.68 350.719 146.499 350.19 146.141C349.665 145.783 349.26 145.265 348.976 144.586C348.695 143.907 348.555 143.09 348.558 142.136C348.558 141.184 348.699 140.373 348.98 139.702C349.264 139.032 349.669 138.522 350.195 138.173C350.723 137.82 351.352 137.644 352.082 137.644C352.813 137.644 353.44 137.82 353.966 138.173C354.494 138.525 354.901 139.036 355.185 139.707C355.469 140.374 355.609 141.184 355.607 142.136C355.607 143.093 355.464 143.911 355.18 144.59C354.899 145.269 354.496 145.788 353.97 146.146C353.445 146.504 352.815 146.683 352.082 146.683ZM352.082 145.153C352.582 145.153 352.982 144.901 353.28 144.399C353.578 143.896 353.726 143.141 353.723 142.136C353.723 141.474 353.655 140.923 353.518 140.482C353.385 140.042 353.195 139.711 352.947 139.489C352.703 139.268 352.415 139.157 352.082 139.157C351.585 139.157 351.188 139.406 350.889 139.903C350.591 140.4 350.44 141.144 350.438 142.136C350.438 142.806 350.504 143.366 350.638 143.815C350.774 144.261 350.966 144.596 351.213 144.82C351.46 145.042 351.75 145.153 352.082 145.153ZM360.344 146.683C359.611 146.68 358.98 146.499 358.452 146.141C357.926 145.783 357.522 145.265 357.238 144.586C356.956 143.907 356.817 143.09 356.82 142.136C356.82 141.184 356.961 140.373 357.242 139.702C357.526 139.032 357.931 138.522 358.456 138.173C358.985 137.82 359.614 137.644 360.344 137.644C361.074 137.644 361.702 137.82 362.228 138.173C362.756 138.525 363.162 139.036 363.446 139.707C363.73 140.374 363.871 141.184 363.868 142.136C363.868 143.093 363.726 143.911 363.442 144.59C363.161 145.269 362.757 145.788 362.232 146.146C361.706 146.504 361.077 146.683 360.344 146.683ZM360.344 145.153C360.844 145.153 361.243 144.901 361.542 144.399C361.84 143.896 361.988 143.141 361.985 142.136C361.985 141.474 361.917 140.923 361.78 140.482C361.647 140.042 361.456 139.711 361.209 139.489C360.965 139.268 360.676 139.157 360.344 139.157C359.847 139.157 359.449 139.406 359.151 139.903C358.853 140.4 358.702 141.144 358.699 142.136C358.699 142.806 358.766 143.366 358.9 143.815C359.036 144.261 359.228 144.596 359.475 144.82C359.722 145.042 360.012 145.153 360.344 145.153Z" fill="black"/>
</g>
<defs>
<filter id="filter0_d_293_3925" x="0" y="0" width="449" height="282" filterUnits="userSpaceOnUse" color-interpolation-filters="sRGB">
<feFlood flood-opacity="0" result="BackgroundImageFix"/>
<feColorMatrix in="SourceAlpha" type="matrix" values="0 0 0 0 0 0 0 0 0 0 0 0 0 0 0 0 0 0 127 0" result="hardAlpha"/>
<feOffset dy="4"/>
<feGaussianBlur stdDeviation="2"/>
<feComposite in2="hardAlpha" operator="out"/>
<feColorMatrix type="matrix" values="0 0 0 0 0 0 0 0 0 0 0 0 0 0 0 0 0 0 0.25 0"/>
<feBlend mode="normal" in2="BackgroundImageFix" result="effect1_dropShadow_293_3925"/>
<feBlend mode="normal" in="SourceGraphic" in2="effect1_dropShadow_293_3925" result="shape"/>
</filter>
</defs>
</svg>
