<svg xmlns="http://www.w3.org/2000/svg" xmlns:xlink="http://www.w3.org/1999/xlink" width="500" zoomAndPan="magnify" viewBox="0 0 375 374.999991" height="500" preserveAspectRatio="xMidYMid meet" version="1.0"><defs><g/><clipPath id="fb0554ee7b"><path d="M 50.492188 50.492188 L 324.242188 50.492188 L 324.242188 324.242188 L 50.492188 324.242188 Z M 50.492188 50.492188 " clip-rule="nonzero"/></clipPath><clipPath id="4639c97f01"><path d="M 56.949219 56.949219 L 317.949219 56.949219 L 317.949219 317.949219 L 56.949219 317.949219 Z M 56.949219 56.949219 " clip-rule="nonzero"/></clipPath><clipPath id="992ee8c468"><path d="M 56.949219 164.101562 L 317.949219 164.101562 L 317.949219 211.351562 L 56.949219 211.351562 Z M 56.949219 164.101562 " clip-rule="nonzero"/></clipPath><clipPath id="0bf64c2b1b"><path d="M 98.523438 98.523438 L 275.523438 98.523438 L 275.523438 275.523438 L 98.523438 275.523438 Z M 98.523438 98.523438 " clip-rule="nonzero"/></clipPath><clipPath id="3d113c4526"><path d="M 105.269531 105.269531 L 269.519531 105.269531 L 269.519531 269.519531 L 105.269531 269.519531 Z M 105.269531 105.269531 " clip-rule="nonzero"/></clipPath><clipPath id="f082ed9d80"><path d="M 137.910156 119.703125 L 236.910156 119.703125 L 236.910156 256.203125 L 137.910156 256.203125 Z M 137.910156 119.703125 " clip-rule="nonzero"/></clipPath></defs><g clip-path="url(#fb0554ee7b)"><path fill="#1f0404" d="M 187.496094 324.5 C 111.953125 324.5 50.492188 263.042969 50.492188 187.496094 C 50.492188 111.953125 111.953125 50.492188 187.496094 50.492188 C 263.042969 50.492188 324.5 111.953125 324.5 187.496094 C 324.5 263.042969 263.042969 324.5 187.496094 324.5 Z M 187.496094 52.921875 C 113.292969 52.921875 52.921875 113.292969 52.921875 187.496094 C 52.921875 261.703125 113.292969 322.070312 187.496094 322.070312 C 261.703125 322.070312 322.070312 261.703125 322.070312 187.496094 C 322.070312 113.292969 261.703125 52.921875 187.496094 52.921875 Z M 187.496094 52.921875 " fill-opacity="1" fill-rule="nonzero"/></g><g clip-path="url(#4639c97f01)"><path fill="#1f0404" d="M 318.042969 187.496094 C 318.042969 189.628906 317.988281 191.765625 317.882812 193.898438 C 317.777344 196.035156 317.621094 198.164062 317.414062 200.289062 C 317.203125 202.417969 316.941406 204.535156 316.628906 206.648438 C 316.316406 208.761719 315.949219 210.867188 315.53125 212.960938 C 315.117188 215.058594 314.648438 217.140625 314.128906 219.214844 C 313.609375 221.285156 313.039062 223.34375 312.417969 225.390625 C 311.800781 227.433594 311.128906 229.460938 310.410156 231.472656 C 309.691406 233.484375 308.921875 235.476562 308.105469 237.453125 C 307.285156 239.425781 306.421875 241.378906 305.507812 243.308594 C 304.59375 245.242188 303.632812 247.148438 302.625 249.035156 C 301.617188 250.917969 300.566406 252.777344 299.46875 254.609375 C 298.371094 256.441406 297.226562 258.246094 296.039062 260.023438 C 294.851562 261.796875 293.625 263.542969 292.351562 265.261719 C 291.078125 266.976562 289.761719 268.660156 288.410156 270.3125 C 287.054688 271.964844 285.65625 273.582031 284.222656 275.164062 C 282.789062 276.746094 281.316406 278.292969 279.804688 279.804688 C 278.292969 281.316406 276.746094 282.789062 275.164062 284.222656 C 273.582031 285.65625 271.964844 287.054688 270.3125 288.410156 C 268.660156 289.761719 266.976562 291.078125 265.261719 292.351562 C 263.542969 293.625 261.796875 294.851562 260.023438 296.039062 C 258.246094 297.226562 256.441406 298.371094 254.609375 299.46875 C 252.777344 300.566406 250.917969 301.617188 249.035156 302.625 C 247.148438 303.632812 245.242188 304.59375 243.308594 305.507812 C 241.378906 306.421875 239.425781 307.285156 237.453125 308.105469 C 235.476562 308.921875 233.484375 309.691406 231.472656 310.410156 C 229.460938 311.128906 227.433594 311.800781 225.390625 312.417969 C 223.34375 313.039062 221.285156 313.609375 219.214844 314.128906 C 217.140625 314.648438 215.058594 315.117188 212.960938 315.53125 C 210.867188 315.949219 208.761719 316.316406 206.648438 316.628906 C 204.535156 316.941406 202.417969 317.203125 200.289062 317.414062 C 198.164062 317.621094 196.035156 317.777344 193.898438 317.882812 C 191.765625 317.988281 189.628906 318.042969 187.496094 318.042969 C 185.359375 318.042969 183.222656 317.988281 181.089844 317.882812 C 178.953125 317.777344 176.824219 317.621094 174.699219 317.414062 C 172.570312 317.203125 170.453125 316.941406 168.339844 316.628906 C 166.226562 316.316406 164.121094 315.949219 162.027344 315.53125 C 159.929688 315.117188 157.847656 314.648438 155.773438 314.128906 C 153.703125 313.609375 151.644531 313.039062 149.597656 312.417969 C 147.554688 311.800781 145.527344 311.128906 143.515625 310.410156 C 141.503906 309.691406 139.511719 308.921875 137.535156 308.105469 C 135.5625 307.285156 133.609375 306.421875 131.679688 305.507812 C 129.746094 304.59375 127.839844 303.632812 125.953125 302.625 C 124.070312 301.617188 122.210938 300.566406 120.378906 299.46875 C 118.546875 298.371094 116.742188 297.226562 114.964844 296.039062 C 113.191406 294.851562 111.445312 293.625 109.726562 292.351562 C 108.011719 291.078125 106.328125 289.761719 104.675781 288.410156 C 103.023438 287.054688 101.40625 285.65625 99.824219 284.222656 C 98.242188 282.789062 96.695312 281.316406 95.183594 279.804688 C 93.671875 278.292969 92.199219 276.746094 90.765625 275.164062 C 89.332031 273.582031 87.933594 271.964844 86.582031 270.3125 C 85.226562 268.660156 83.910156 266.976562 82.636719 265.261719 C 81.367188 263.542969 80.136719 261.796875 78.949219 260.023438 C 77.761719 258.246094 76.617188 256.441406 75.519531 254.609375 C 74.421875 252.777344 73.371094 250.917969 72.363281 249.035156 C 71.355469 247.148438 70.394531 245.242188 69.480469 243.308594 C 68.566406 241.378906 67.703125 239.425781 66.882812 237.453125 C 66.066406 235.476562 65.296875 233.484375 64.578125 231.472656 C 63.859375 229.460938 63.1875 227.433594 62.570312 225.390625 C 61.949219 223.34375 61.378906 221.285156 60.859375 219.214844 C 60.339844 217.140625 59.871094 215.058594 59.457031 212.960938 C 59.039062 210.867188 58.671875 208.761719 58.359375 206.648438 C 58.046875 204.535156 57.785156 202.417969 57.574219 200.289062 C 57.367188 198.164062 57.210938 196.035156 57.105469 193.898438 C 57 191.765625 56.949219 189.628906 56.949219 187.496094 C 56.949219 185.359375 57 183.222656 57.105469 181.089844 C 57.210938 178.953125 57.367188 176.824219 57.574219 174.699219 C 57.785156 172.570312 58.046875 170.453125 58.359375 168.339844 C 58.671875 166.226562 59.039062 164.121094 59.457031 162.027344 C 59.871094 159.929688 60.339844 157.847656 60.859375 155.773438 C 61.378906 153.703125 61.949219 151.644531 62.570312 149.597656 C 63.1875 147.554688 63.859375 145.527344 64.578125 143.515625 C 65.296875 141.503906 66.066406 139.511719 66.882812 137.535156 C 67.703125 135.5625 68.566406 133.609375 69.480469 131.679688 C 70.394531 129.746094 71.355469 127.839844 72.363281 125.953125 C 73.371094 124.070312 74.421875 122.210938 75.519531 120.378906 C 76.617188 118.546875 77.761719 116.742188 78.949219 114.964844 C 80.136719 113.191406 81.367188 111.445312 82.636719 109.726562 C 83.910156 108.011719 85.226562 106.328125 86.582031 104.675781 C 87.933594 103.023438 89.332031 101.40625 90.765625 99.824219 C 92.199219 98.242188 93.671875 96.695312 95.183594 95.183594 C 96.695312 93.671875 98.242188 92.199219 99.824219 90.765625 C 101.40625 89.332031 103.023438 87.933594 104.675781 86.582031 C 106.328125 85.226562 108.011719 83.910156 109.726562 82.636719 C 111.445312 81.367188 113.191406 80.136719 114.964844 78.949219 C 116.742188 77.761719 118.546875 76.617188 120.378906 75.519531 C 122.210938 74.421875 124.070312 73.371094 125.953125 72.363281 C 127.839844 71.355469 129.746094 70.394531 131.679688 69.480469 C 133.609375 68.566406 135.5625 67.703125 137.535156 66.882812 C 139.511719 66.066406 141.503906 65.296875 143.515625 64.578125 C 145.527344 63.859375 147.554688 63.1875 149.597656 62.570312 C 151.644531 61.949219 153.703125 61.378906 155.773438 60.859375 C 157.847656 60.339844 159.929688 59.871094 162.027344 59.457031 C 164.121094 59.039062 166.226562 58.671875 168.339844 58.359375 C 170.453125 58.046875 172.570312 57.785156 174.699219 57.574219 C 176.824219 57.367188 178.953125 57.210938 181.089844 57.105469 C 183.222656 57 185.359375 56.949219 187.496094 56.949219 C 189.628906 56.949219 191.765625 57 193.898438 57.105469 C 196.035156 57.210938 198.164062 57.367188 200.289062 57.574219 C 202.417969 57.785156 204.535156 58.046875 206.648438 58.359375 C 208.761719 58.671875 210.867188 59.039062 212.960938 59.457031 C 215.058594 59.871094 217.140625 60.339844 219.214844 60.859375 C 221.285156 61.378906 223.34375 61.949219 225.390625 62.570312 C 227.433594 63.1875 229.460938 63.859375 231.472656 64.578125 C 233.484375 65.296875 235.476562 66.066406 237.453125 66.882812 C 239.425781 67.703125 241.378906 68.566406 243.308594 69.480469 C 245.242188 70.394531 247.148438 71.355469 249.035156 72.363281 C 250.917969 73.371094 252.777344 74.421875 254.609375 75.519531 C 256.441406 76.617188 258.246094 77.761719 260.023438 78.949219 C 261.796875 80.136719 263.542969 81.367188 265.261719 82.636719 C 266.976562 83.910156 268.660156 85.226562 270.3125 86.582031 C 271.964844 87.933594 273.582031 89.332031 275.164062 90.765625 C 276.746094 92.199219 278.292969 93.671875 279.804688 95.183594 C 281.316406 96.695312 282.789062 98.242188 284.222656 99.824219 C 285.65625 101.40625 287.054688 103.023438 288.410156 104.675781 C 289.761719 106.328125 291.078125 108.011719 292.351562 109.726562 C 293.625 111.445312 294.851562 113.191406 296.039062 114.964844 C 297.226562 116.742188 298.371094 118.546875 299.46875 120.378906 C 300.566406 122.210938 301.617188 124.070312 302.625 125.953125 C 303.632812 127.839844 304.59375 129.746094 305.507812 131.679688 C 306.421875 133.609375 307.285156 135.5625 308.105469 137.535156 C 308.921875 139.511719 309.691406 141.503906 310.410156 143.515625 C 311.128906 145.527344 311.800781 147.554688 312.417969 149.597656 C 313.039062 151.644531 313.609375 153.703125 314.128906 155.773438 C 314.648438 157.847656 315.117188 159.929688 315.53125 162.027344 C 315.949219 164.121094 316.316406 166.226562 316.628906 168.339844 C 316.941406 170.453125 317.203125 172.570312 317.414062 174.699219 C 317.621094 176.824219 317.777344 178.953125 317.882812 181.089844 C 317.988281 183.222656 318.042969 185.359375 318.042969 187.496094 Z M 318.042969 187.496094 " fill-opacity="1" fill-rule="nonzero"/></g><g clip-path="url(#992ee8c468)"><path fill="#ffffff" d="M 317.949219 187.445312 C 317.949219 189.582031 317.894531 191.714844 317.789062 193.847656 C 317.683594 195.984375 317.527344 198.113281 317.320312 200.238281 C 317.109375 202.363281 316.847656 204.480469 316.535156 206.59375 C 316.222656 208.707031 315.855469 210.8125 315.441406 212.90625 C 315.023438 215 314.554688 217.082031 314.035156 219.15625 C 313.515625 221.226562 312.949219 223.285156 312.328125 225.328125 C 311.707031 227.371094 311.039062 229.398438 310.320312 231.410156 C 309.597656 233.421875 308.832031 235.414062 308.011719 237.386719 C 307.195312 239.359375 306.332031 241.3125 305.417969 243.242188 C 304.503906 245.171875 303.542969 247.078125 302.539062 248.964844 C 301.53125 250.847656 300.480469 252.703125 299.378906 254.535156 C 298.28125 256.367188 297.140625 258.171875 295.953125 259.949219 C 294.765625 261.722656 293.539062 263.46875 292.265625 265.183594 C 290.992188 266.898438 289.679688 268.582031 288.324219 270.234375 C 286.96875 271.886719 285.574219 273.503906 284.140625 275.085938 C 282.707031 276.667969 281.234375 278.214844 279.726562 279.722656 C 278.214844 281.234375 276.667969 282.707031 275.085938 284.140625 C 273.503906 285.574219 271.886719 286.96875 270.234375 288.324219 C 268.585938 289.679688 266.902344 290.992188 265.1875 292.265625 C 263.46875 293.535156 261.726562 294.765625 259.949219 295.953125 C 258.171875 297.140625 256.371094 298.28125 254.539062 299.378906 C 252.707031 300.476562 250.847656 301.53125 248.964844 302.535156 C 247.082031 303.542969 245.175781 304.503906 243.242188 305.417969 C 241.3125 306.328125 239.359375 307.195312 237.386719 308.011719 C 235.414062 308.828125 233.421875 309.597656 231.410156 310.316406 C 229.402344 311.035156 227.375 311.707031 225.328125 312.328125 C 223.285156 312.945312 221.226562 313.515625 219.15625 314.035156 C 217.085938 314.554688 215 315.023438 212.90625 315.4375 C 210.8125 315.855469 208.707031 316.21875 206.59375 316.535156 C 204.484375 316.847656 202.363281 317.109375 200.238281 317.316406 C 198.113281 317.527344 195.984375 317.683594 193.851562 317.789062 C 191.71875 317.894531 189.582031 317.945312 187.449219 317.945312 C 185.3125 317.945312 183.175781 317.894531 181.042969 317.789062 C 178.910156 317.683594 176.78125 317.527344 174.65625 317.316406 C 172.53125 317.109375 170.410156 316.847656 168.300781 316.535156 C 166.1875 316.21875 164.082031 315.855469 161.988281 315.4375 C 159.894531 315.023438 157.808594 314.554688 155.738281 314.035156 C 153.667969 313.515625 151.609375 312.945312 149.566406 312.328125 C 147.519531 311.707031 145.492188 311.035156 143.484375 310.316406 C 141.472656 309.597656 139.480469 308.828125 137.507812 308.011719 C 135.535156 307.195312 133.582031 306.328125 131.652344 305.417969 C 129.71875 304.503906 127.8125 303.542969 125.929688 302.535156 C 124.046875 301.53125 122.1875 300.476562 120.355469 299.378906 C 118.523438 298.28125 116.722656 297.140625 114.945312 295.953125 C 113.167969 294.765625 111.425781 293.535156 109.707031 292.265625 C 107.992188 290.992188 106.308594 289.679688 104.660156 288.324219 C 103.007812 286.96875 101.390625 285.574219 99.808594 284.140625 C 98.226562 282.707031 96.679688 281.234375 95.167969 279.722656 C 93.660156 278.214844 92.1875 276.667969 90.753906 275.085938 C 89.320312 273.503906 87.925781 271.886719 86.570312 270.234375 C 85.214844 268.582031 83.902344 266.898438 82.628906 265.183594 C 81.355469 263.46875 80.128906 261.722656 78.941406 259.949219 C 77.753906 258.171875 76.613281 256.367188 75.515625 254.535156 C 74.414062 252.703125 73.363281 250.847656 72.355469 248.964844 C 71.351562 247.078125 70.390625 245.171875 69.476562 243.242188 C 68.5625 241.3125 67.699219 239.359375 66.882812 237.386719 C 66.0625 235.414062 65.296875 233.421875 64.574219 231.410156 C 63.855469 229.398438 63.1875 227.371094 62.566406 225.328125 C 61.945312 223.285156 61.378906 221.226562 60.859375 219.15625 C 60.339844 217.082031 59.871094 215 59.453125 212.90625 C 59.039062 210.8125 58.671875 208.707031 58.359375 206.59375 C 58.046875 204.480469 57.785156 202.363281 57.574219 200.238281 C 57.367188 198.113281 57.210938 195.984375 57.105469 193.847656 C 57 191.714844 56.949219 189.582031 56.949219 187.445312 C 56.949219 185.308594 57 183.175781 57.105469 181.042969 C 57.210938 178.910156 57.367188 176.78125 57.574219 174.65625 C 57.785156 172.53125 58.046875 170.410156 58.359375 168.296875 C 58.671875 166.183594 59.039062 164.082031 59.453125 161.988281 C 59.871094 159.890625 60.339844 157.808594 60.859375 155.738281 C 61.378906 153.664062 61.945312 151.609375 62.566406 149.5625 C 63.1875 147.519531 63.855469 145.492188 64.574219 143.480469 C 65.296875 141.472656 66.0625 139.480469 66.882812 137.507812 C 67.699219 135.53125 68.5625 133.582031 69.476562 131.648438 C 70.390625 129.71875 71.351562 127.8125 72.355469 125.929688 C 73.363281 124.046875 74.414062 122.1875 75.515625 120.355469 C 76.613281 118.523438 77.753906 116.71875 78.941406 114.945312 C 80.128906 113.167969 81.355469 111.421875 82.628906 109.707031 C 83.902344 107.992188 85.214844 106.308594 86.570312 104.65625 C 87.925781 103.007812 89.320312 101.390625 90.753906 99.808594 C 92.1875 98.226562 93.660156 96.679688 95.167969 95.167969 C 96.679688 93.660156 98.226562 92.1875 99.808594 90.753906 C 101.390625 89.316406 103.007812 87.921875 104.660156 86.566406 C 106.308594 85.214844 107.992188 83.898438 109.707031 82.628906 C 111.425781 81.355469 113.167969 80.125 114.945312 78.9375 C 116.722656 77.753906 118.523438 76.609375 120.355469 75.511719 C 122.1875 74.414062 124.046875 73.363281 125.929688 72.355469 C 127.8125 71.347656 129.71875 70.386719 131.652344 69.476562 C 133.582031 68.5625 135.535156 67.695312 137.507812 66.878906 C 139.480469 66.0625 141.472656 65.292969 143.484375 64.574219 C 145.492188 63.855469 147.519531 63.183594 149.566406 62.566406 C 151.609375 61.945312 153.667969 61.375 155.738281 60.855469 C 157.808594 60.339844 159.894531 59.871094 161.988281 59.453125 C 164.082031 59.035156 166.1875 58.671875 168.300781 58.359375 C 170.410156 58.046875 172.53125 57.785156 174.65625 57.574219 C 176.78125 57.363281 178.910156 57.207031 181.042969 57.101562 C 183.175781 57 185.3125 56.945312 187.449219 56.945312 C 189.582031 56.945312 191.71875 57 193.851562 57.101562 C 195.984375 57.207031 198.113281 57.363281 200.238281 57.574219 C 202.363281 57.785156 204.484375 58.046875 206.59375 58.359375 C 208.707031 58.671875 210.8125 59.035156 212.90625 59.453125 C 215 59.871094 217.085938 60.339844 219.15625 60.855469 C 221.226562 61.375 223.285156 61.945312 225.328125 62.566406 C 227.375 63.183594 229.402344 63.855469 231.410156 64.574219 C 233.421875 65.292969 235.414062 66.0625 237.386719 66.878906 C 239.359375 67.695312 241.3125 68.5625 243.242188 69.476562 C 245.175781 70.386719 247.082031 71.347656 248.964844 72.355469 C 250.847656 73.363281 252.707031 74.414062 254.539062 75.511719 C 256.371094 76.609375 258.171875 77.753906 259.949219 78.9375 C 261.726562 80.125 263.46875 81.355469 265.1875 82.628906 C 266.902344 83.898438 268.585938 85.214844 270.234375 86.566406 C 271.886719 87.921875 273.503906 89.316406 275.085938 90.753906 C 276.667969 92.1875 278.214844 93.660156 279.726562 95.167969 C 281.234375 96.679688 282.707031 98.226562 284.140625 99.808594 C 285.574219 101.390625 286.96875 103.007812 288.324219 104.65625 C 289.679688 106.308594 290.992188 107.992188 292.265625 109.707031 C 293.539062 111.421875 294.765625 113.167969 295.953125 114.945312 C 297.140625 116.71875 298.28125 118.523438 299.378906 120.355469 C 300.480469 122.1875 301.53125 124.046875 302.539062 125.929688 C 303.542969 127.8125 304.503906 129.71875 305.417969 131.648438 C 306.332031 133.582031 307.195312 135.53125 308.011719 137.507812 C 308.832031 139.480469 309.597656 141.472656 310.320312 143.480469 C 311.039062 145.492188 311.707031 147.519531 312.328125 149.5625 C 312.949219 151.609375 313.515625 153.664062 314.035156 155.738281 C 314.554688 157.808594 315.023438 159.890625 315.441406 161.988281 C 315.855469 164.082031 316.222656 166.183594 316.535156 168.296875 C 316.847656 170.410156 317.109375 172.53125 317.320312 174.65625 C 317.527344 176.78125 317.683594 178.910156 317.789062 181.042969 C 317.894531 183.175781 317.949219 185.308594 317.949219 187.445312 Z M 317.949219 187.445312 " fill-opacity="1" fill-rule="nonzero"/></g><g clip-path="url(#0bf64c2b1b)"><path fill="#ffffff" d="M 186.957031 275.394531 C 138.195312 275.394531 98.523438 235.722656 98.523438 186.957031 C 98.523438 138.195312 138.195312 98.523438 186.957031 98.523438 C 235.722656 98.523438 275.394531 138.195312 275.394531 186.957031 C 275.394531 235.722656 235.722656 275.394531 186.957031 275.394531 Z M 186.957031 100.089844 C 139.058594 100.089844 100.089844 139.058594 100.089844 186.957031 C 100.089844 234.859375 139.058594 273.824219 186.957031 273.824219 C 234.859375 273.824219 273.824219 234.859375 273.824219 186.957031 C 273.824219 139.058594 234.859375 100.089844 186.957031 100.089844 Z M 186.957031 100.089844 " fill-opacity="1" fill-rule="nonzero"/></g><g clip-path="url(#3d113c4526)"><path fill="#ffffff" d="M 269.519531 187.394531 C 269.519531 188.738281 269.484375 190.082031 269.417969 191.421875 C 269.351562 192.765625 269.253906 194.105469 269.121094 195.441406 C 268.992188 196.78125 268.828125 198.113281 268.628906 199.441406 C 268.433594 200.773438 268.203125 202.097656 267.941406 203.414062 C 267.675781 204.734375 267.382812 206.042969 267.058594 207.347656 C 266.730469 208.652344 266.371094 209.945312 265.980469 211.234375 C 265.589844 212.519531 265.171875 213.792969 264.71875 215.058594 C 264.265625 216.324219 263.78125 217.578125 263.265625 218.820312 C 262.753906 220.0625 262.207031 221.289062 261.632812 222.507812 C 261.058594 223.722656 260.453125 224.921875 259.820312 226.105469 C 259.1875 227.292969 258.523438 228.460938 257.832031 229.613281 C 257.144531 230.765625 256.425781 231.902344 255.675781 233.019531 C 254.929688 234.136719 254.15625 235.234375 253.355469 236.316406 C 252.554688 237.394531 251.730469 238.453125 250.875 239.492188 C 250.023438 240.53125 249.144531 241.550781 248.242188 242.542969 C 247.339844 243.539062 246.414062 244.515625 245.464844 245.464844 C 244.515625 246.414062 243.539062 247.339844 242.542969 248.242188 C 241.550781 249.144531 240.53125 250.023438 239.492188 250.875 C 238.453125 251.730469 237.394531 252.554688 236.316406 253.355469 C 235.234375 254.15625 234.136719 254.929688 233.019531 255.675781 C 231.902344 256.425781 230.765625 257.144531 229.613281 257.832031 C 228.460938 258.523438 227.292969 259.1875 226.105469 259.820312 C 224.921875 260.453125 223.722656 261.058594 222.507812 261.632812 C 221.289062 262.207031 220.0625 262.753906 218.820312 263.265625 C 217.578125 263.78125 216.324219 264.265625 215.058594 264.71875 C 213.792969 265.171875 212.519531 265.589844 211.234375 265.980469 C 209.945312 266.371094 208.652344 266.730469 207.347656 267.058594 C 206.042969 267.382812 204.734375 267.675781 203.414062 267.941406 C 202.097656 268.203125 200.773438 268.433594 199.441406 268.628906 C 198.113281 268.828125 196.78125 268.992188 195.441406 269.121094 C 194.105469 269.253906 192.765625 269.351562 191.421875 269.417969 C 190.082031 269.484375 188.738281 269.519531 187.394531 269.519531 C 186.050781 269.519531 184.707031 269.484375 183.363281 269.417969 C 182.019531 269.351562 180.679688 269.253906 179.34375 269.121094 C 178.003906 268.992188 176.671875 268.828125 175.34375 268.628906 C 174.011719 268.433594 172.6875 268.203125 171.371094 267.941406 C 170.054688 267.675781 168.742188 267.382812 167.4375 267.058594 C 166.132812 266.730469 164.839844 266.371094 163.554688 265.980469 C 162.265625 265.589844 160.992188 265.171875 159.726562 264.71875 C 158.460938 264.265625 157.207031 263.78125 155.964844 263.265625 C 154.722656 262.753906 153.496094 262.207031 152.28125 261.632812 C 151.066406 261.058594 149.863281 260.453125 148.679688 259.820312 C 147.496094 259.1875 146.324219 258.523438 145.171875 257.832031 C 144.019531 257.144531 142.882812 256.425781 141.765625 255.675781 C 140.648438 254.929688 139.550781 254.15625 138.472656 253.355469 C 137.390625 252.554688 136.332031 251.730469 135.292969 250.875 C 134.253906 250.023438 133.238281 249.144531 132.242188 248.242188 C 131.246094 247.339844 130.273438 246.414062 129.320312 245.464844 C 128.371094 244.515625 127.445312 243.539062 126.542969 242.542969 C 125.640625 241.550781 124.761719 240.53125 123.910156 239.492188 C 123.058594 238.453125 122.230469 237.394531 121.429688 236.316406 C 120.628906 235.234375 119.855469 234.136719 119.109375 233.019531 C 118.363281 231.902344 117.644531 230.765625 116.953125 229.613281 C 116.261719 228.460938 115.597656 227.292969 114.964844 226.105469 C 114.332031 224.921875 113.726562 223.722656 113.152344 222.507812 C 112.578125 221.289062 112.035156 220.0625 111.519531 218.820312 C 111.003906 217.578125 110.519531 216.324219 110.070312 215.058594 C 109.617188 213.792969 109.195312 212.519531 108.804688 211.234375 C 108.414062 209.945312 108.054688 208.652344 107.730469 207.347656 C 107.402344 206.042969 107.109375 204.734375 106.847656 203.414062 C 106.582031 202.097656 106.355469 200.773438 106.15625 199.441406 C 105.960938 198.113281 105.796875 196.78125 105.664062 195.441406 C 105.53125 194.105469 105.433594 192.765625 105.367188 191.421875 C 105.300781 190.082031 105.269531 188.738281 105.269531 187.394531 C 105.269531 186.050781 105.300781 184.707031 105.367188 183.363281 C 105.433594 182.019531 105.53125 180.679688 105.664062 179.34375 C 105.796875 178.003906 105.960938 176.671875 106.15625 175.34375 C 106.355469 174.011719 106.582031 172.6875 106.847656 171.371094 C 107.109375 170.054688 107.402344 168.742188 107.730469 167.4375 C 108.054688 166.132812 108.414062 164.839844 108.804688 163.554688 C 109.195312 162.265625 109.617188 160.992188 110.070312 159.726562 C 110.519531 158.460938 111.003906 157.207031 111.519531 155.964844 C 112.035156 154.722656 112.578125 153.496094 113.152344 152.28125 C 113.726562 151.066406 114.332031 149.863281 114.964844 148.679688 C 115.597656 147.496094 116.261719 146.324219 116.953125 145.171875 C 117.644531 144.019531 118.363281 142.882812 119.109375 141.765625 C 119.855469 140.648438 120.628906 139.550781 121.429688 138.472656 C 122.230469 137.390625 123.058594 136.332031 123.910156 135.292969 C 124.761719 134.253906 125.640625 133.238281 126.542969 132.242188 C 127.445312 131.246094 128.371094 130.273438 129.320312 129.320312 C 130.273438 128.371094 131.246094 127.445312 132.242188 126.542969 C 133.238281 125.640625 134.253906 124.761719 135.292969 123.910156 C 136.332031 123.058594 137.390625 122.230469 138.472656 121.429688 C 139.550781 120.628906 140.648438 119.855469 141.765625 119.109375 C 142.882812 118.363281 144.019531 117.644531 145.171875 116.953125 C 146.324219 116.261719 147.496094 115.597656 148.679688 114.964844 C 149.863281 114.332031 151.066406 113.726562 152.28125 113.152344 C 153.496094 112.578125 154.722656 112.035156 155.964844 111.519531 C 157.207031 111.003906 158.460938 110.519531 159.726562 110.070312 C 160.992188 109.617188 162.265625 109.195312 163.554688 108.804688 C 164.839844 108.414062 166.132812 108.054688 167.4375 107.730469 C 168.742188 107.402344 170.054688 107.109375 171.371094 106.847656 C 172.6875 106.582031 174.011719 106.355469 175.34375 106.15625 C 176.671875 105.960938 178.003906 105.796875 179.34375 105.664062 C 180.679688 105.53125 182.019531 105.433594 183.363281 105.367188 C 184.707031 105.300781 186.050781 105.269531 187.394531 105.269531 C 188.738281 105.269531 190.082031 105.300781 191.421875 105.367188 C 192.765625 105.433594 194.105469 105.53125 195.441406 105.664062 C 196.78125 105.796875 198.113281 105.960938 199.441406 106.15625 C 200.773438 106.355469 202.097656 106.582031 203.414062 106.847656 C 204.734375 107.109375 206.042969 107.402344 207.347656 107.730469 C 208.652344 108.054688 209.945312 108.414062 211.234375 108.804688 C 212.519531 109.195312 213.792969 109.617188 215.058594 110.070312 C 216.324219 110.519531 217.578125 111.003906 218.820312 111.519531 C 220.0625 112.035156 221.289062 112.578125 222.507812 113.152344 C 223.722656 113.726562 224.921875 114.332031 226.105469 114.964844 C 227.292969 115.597656 228.460938 116.261719 229.613281 116.953125 C 230.765625 117.644531 231.902344 118.363281 233.019531 119.109375 C 234.136719 119.855469 235.234375 120.628906 236.316406 121.429688 C 237.394531 122.230469 238.453125 123.058594 239.492188 123.910156 C 240.53125 124.761719 241.550781 125.640625 242.542969 126.542969 C 243.539062 127.445312 244.515625 128.371094 245.464844 129.320312 C 246.414062 130.273438 247.339844 131.246094 248.242188 132.242188 C 249.144531 133.238281 250.023438 134.253906 250.875 135.292969 C 251.730469 136.332031 252.554688 137.390625 253.355469 138.472656 C 254.15625 139.550781 254.929688 140.648438 255.675781 141.765625 C 256.425781 142.882812 257.144531 144.019531 257.832031 145.171875 C 258.523438 146.324219 259.1875 147.496094 259.820312 148.679688 C 260.453125 149.863281 261.058594 151.066406 261.632812 152.28125 C 262.207031 153.496094 262.753906 154.722656 263.265625 155.964844 C 263.78125 157.207031 264.265625 158.460938 264.71875 159.726562 C 265.171875 160.992188 265.589844 162.265625 265.980469 163.554688 C 266.371094 164.839844 266.730469 166.132812 267.058594 167.4375 C 267.382812 168.742188 267.675781 170.054688 267.941406 171.371094 C 268.203125 172.6875 268.433594 174.011719 268.628906 175.34375 C 268.828125 176.671875 268.992188 178.003906 269.121094 179.34375 C 269.253906 180.679688 269.351562 182.019531 269.417969 183.363281 C 269.484375 184.707031 269.519531 186.050781 269.519531 187.394531 Z M 269.519531 187.394531 " fill-opacity="1" fill-rule="nonzero"/></g><g clip-path="url(#f082ed9d80)"><path fill="#000000" d="M 179.496094 230.734375 C 177.558594 225.085938 174.015625 220.128906 169.296875 216.46875 L 157.703125 207.46875 C 145.792969 198.230469 138.5625 184.214844 137.9375 169.160156 C 137.9375 141.84375 160.085938 119.703125 187.410156 119.703125 C 214.734375 119.703125 236.886719 141.84375 236.886719 169.160156 C 236.257812 184.214844 229.027344 198.230469 217.121094 207.46875 L 205.527344 216.46875 C 200.808594 220.128906 197.265625 225.085938 195.328125 230.734375 L 193.964844 234.710938 C 193.003906 237.507812 190.371094 239.386719 187.410156 239.386719 C 184.453125 239.386719 181.820312 237.507812 180.859375 234.710938 Z M 187.410156 256.203125 C 176.480469 256.203125 167.621094 254.875 167.621094 253.234375 C 167.621094 251.597656 176.480469 250.269531 187.410156 250.269531 C 198.339844 250.269531 207.203125 251.597656 207.203125 253.234375 C 207.203125 254.875 198.339844 256.203125 187.410156 256.203125 Z M 187.410156 207.734375 C 209.269531 207.734375 226.992188 190.023438 226.992188 168.171875 C 226.992188 146.320312 209.269531 128.605469 187.410156 128.605469 C 165.550781 128.605469 147.832031 146.320312 147.832031 168.171875 C 147.832031 190.023438 165.550781 207.734375 187.410156 207.734375 Z M 181.339844 146.410156 L 200.875 146.410156 C 203.386719 146.410156 206.257812 148.6875 207.398438 151.59375 L 211.078125 160.960938 C 211.175781 160.949219 211.269531 160.929688 211.371094 160.929688 L 214.199219 160.929688 C 215.796875 160.925781 217.097656 162.394531 217.097656 164.214844 C 217.097656 166.03125 215.796875 167.5 214.199219 167.5 L 213.488281 167.5 C 213.488281 167.507812 213.492188 167.507812 213.492188 167.515625 C 213.875 168.648438 214.09375 169.886719 214.09375 171.1875 L 214.09375 175.039062 C 214.09375 178.804688 213.171875 182.054688 211.089844 183.636719 L 211.089844 187.867188 C 211.089844 189.992188 209.570312 191.714844 207.699219 191.714844 L 204.589844 191.714844 C 202.71875 191.714844 201.199219 189.988281 201.199219 187.867188 L 201.199219 184.660156 L 173.632812 184.660156 L 173.632812 187.867188 C 173.632812 189.992188 172.113281 191.714844 170.242188 191.714844 L 167.128906 191.714844 C 165.257812 191.714844 163.734375 189.988281 163.734375 187.867188 L 163.734375 183.636719 C 161.65625 182.054688 160.738281 178.804688 160.738281 175.039062 L 160.738281 171.1875 C 160.738281 169.890625 160.949219 168.652344 161.332031 167.519531 C 161.332031 167.515625 161.335938 167.507812 161.335938 167.5 L 160.625 167.5 C 159.023438 167.5 157.726562 166.03125 157.726562 164.21875 C 157.726562 162.398438 159.023438 160.929688 160.625 160.929688 L 163.449219 160.929688 C 163.550781 160.929688 163.648438 160.949219 163.746094 160.960938 L 167.425781 151.597656 C 168.589844 148.640625 171.390625 146.410156 173.945312 146.410156 Z M 168.175781 163.214844 C 168.175781 166.179688 207.195312 166.175781 207.195312 163.214844 C 207.195312 162.832031 207.121094 162.355469 207.117188 162.324219 C 206.425781 159.542969 203.769531 153.800781 203.769531 153.800781 C 203.128906 152.164062 201.515625 150.898438 200.558594 150.898438 L 174.820312 150.898438 C 173.863281 150.898438 172.25 152.164062 171.609375 153.800781 C 171.609375 153.800781 169.269531 159.140625 168.257812 162.328125 C 168.246094 162.355469 168.175781 162.835938 168.175781 163.214844 Z M 175.75 175.96875 C 175.75 173.636719 173.851562 171.738281 171.507812 171.738281 C 169.167969 171.738281 167.269531 173.632812 167.269531 175.96875 C 167.269531 178.300781 169.167969 180.195312 171.507812 180.195312 C 173.851562 180.195312 175.75 178.300781 175.75 175.96875 Z M 208.613281 175.96875 C 208.613281 173.636719 206.71875 171.738281 204.375 171.738281 C 202.035156 171.738281 200.132812 173.632812 200.132812 175.96875 C 200.132812 178.300781 202.03125 180.195312 204.375 180.195312 C 206.71875 180.195312 208.613281 178.300781 208.613281 175.96875 Z M 181.125 174.90625 C 180.75 174.90625 180.445312 175.210938 180.445312 175.585938 C 180.445312 175.960938 180.75 176.265625 181.125 176.265625 L 194.304688 176.265625 C 194.679688 176.265625 194.984375 175.960938 194.984375 175.585938 C 194.984375 175.210938 194.679688 174.90625 194.304688 174.90625 Z M 181.125 178.078125 C 180.75 178.078125 180.445312 178.382812 180.445312 178.757812 C 180.445312 179.132812 180.75 179.4375 181.125 179.4375 L 194.304688 179.4375 C 194.679688 179.4375 194.984375 179.132812 194.984375 178.757812 C 194.984375 178.382812 194.679688 178.078125 194.304688 178.078125 Z M 181.125 178.078125 " fill-opacity="1" fill-rule="nonzero"/></g><g fill="#ffffff" fill-opacity="1"><g transform="translate(118.600599, 116.056404)"><g><path d="M 10.375 -6.59375 C 9.695312 -6.113281 9.066406 -5.769531 8.484375 -5.5625 C 7.898438 -5.363281 7.394531 -5.21875 6.96875 -5.125 C 6.539062 -5.03125 6.210938 -4.90625 5.984375 -4.75 C 5.742188 -4.582031 5.554688 -4.382812 5.421875 -4.15625 C 5.296875 -3.925781 5.1875 -3.6875 5.09375 -3.4375 C 5 -3.195312 4.890625 -2.960938 4.765625 -2.734375 C 4.640625 -2.515625 4.46875 -2.332031 4.25 -2.1875 C 3.957031 -1.976562 3.648438 -1.894531 3.328125 -1.9375 C 3.015625 -1.976562 2.679688 -2.175781 2.328125 -2.53125 L -2.015625 -6.953125 C -2.503906 -7.484375 -2.519531 -8.078125 -2.0625 -8.734375 C -1.570312 -9.398438 -0.890625 -9.503906 -0.015625 -9.046875 C 1.410156 -8.335938 2.628906 -7.863281 3.640625 -7.625 C 4.660156 -7.382812 5.550781 -7.34375 6.3125 -7.5 C 7.082031 -7.65625 7.773438 -7.945312 8.390625 -8.375 C 9.203125 -8.945312 9.722656 -9.585938 9.953125 -10.296875 C 10.179688 -11.015625 10.050781 -11.726562 9.5625 -12.4375 C 9.3125 -12.78125 9.023438 -13.050781 8.703125 -13.25 C 8.378906 -13.457031 7.957031 -13.566406 7.4375 -13.578125 C 6.925781 -13.597656 6.257812 -13.507812 5.4375 -13.3125 C 4.625 -13.125 3.582031 -12.816406 2.3125 -12.390625 C 0.476562 -11.785156 -1.117188 -11.472656 -2.484375 -11.453125 C -3.847656 -11.441406 -5.050781 -11.75 -6.09375 -12.375 C -7.132812 -13 -8.097656 -13.941406 -8.984375 -15.203125 C -9.640625 -16.148438 -10.066406 -17.144531 -10.265625 -18.1875 C -10.460938 -19.226562 -10.4375 -20.269531 -10.1875 -21.3125 C -9.945312 -22.351562 -9.46875 -23.363281 -8.75 -24.34375 C -8.03125 -25.320312 -7.09375 -26.21875 -5.9375 -27.03125 C -5.132812 -27.59375 -4.398438 -28 -3.734375 -28.25 C -3.066406 -28.507812 -2.484375 -28.707031 -1.984375 -28.84375 C -1.492188 -28.988281 -1.101562 -29.164062 -0.8125 -29.375 C -0.632812 -29.488281 -0.5 -29.644531 -0.40625 -29.84375 C -0.320312 -30.050781 -0.242188 -30.265625 -0.171875 -30.484375 C -0.0976562 -30.710938 -0.00390625 -30.9375 0.109375 -31.15625 C 0.222656 -31.382812 0.40625 -31.585938 0.65625 -31.765625 C 0.96875 -31.984375 1.300781 -32.0625 1.65625 -32 C 2.007812 -31.945312 2.457031 -31.703125 3 -31.265625 L 7.6875 -27.359375 C 8.03125 -27.054688 8.234375 -26.722656 8.296875 -26.359375 C 8.367188 -25.992188 8.285156 -25.640625 8.046875 -25.296875 C 7.785156 -24.953125 7.484375 -24.757812 7.140625 -24.71875 C 6.804688 -24.675781 6.445312 -24.75 6.0625 -24.9375 C 4.570312 -25.738281 3.222656 -26.25 2.015625 -26.46875 C 0.804688 -26.6875 -0.257812 -26.691406 -1.1875 -26.484375 C -2.113281 -26.285156 -2.914062 -25.953125 -3.59375 -25.484375 C -4.363281 -24.929688 -4.8125 -24.289062 -4.9375 -23.5625 C -5.070312 -22.84375 -4.90625 -22.144531 -4.4375 -21.46875 C -4.207031 -21.144531 -3.941406 -20.882812 -3.640625 -20.6875 C -3.335938 -20.488281 -2.925781 -20.363281 -2.40625 -20.3125 C -1.894531 -20.269531 -1.21875 -20.320312 -0.375 -20.46875 C 0.457031 -20.613281 1.515625 -20.863281 2.796875 -21.21875 C 4.648438 -21.75 6.25 -22.007812 7.59375 -22 C 8.945312 -22 10.117188 -21.722656 11.109375 -21.171875 C 12.097656 -20.617188 12.988281 -19.773438 13.78125 -18.640625 C 14.414062 -17.722656 14.828125 -16.75 15.015625 -15.71875 C 15.203125 -14.6875 15.160156 -13.628906 14.890625 -12.546875 C 14.617188 -11.460938 14.109375 -10.410156 13.359375 -9.390625 C 12.609375 -8.378906 11.613281 -7.445312 10.375 -6.59375 Z M 10.375 -6.59375 "/></g></g></g><g fill="#ffffff" fill-opacity="1"><g transform="translate(139.010042, 101.091494)"><g><path d="M 8.140625 -3.953125 C 8.253906 -3.597656 8.234375 -3.269531 8.078125 -2.96875 C 7.921875 -2.664062 7.585938 -2.4375 7.078125 -2.28125 L 2.046875 -0.65625 C 1.546875 -0.5 1.144531 -0.484375 0.84375 -0.609375 C 0.539062 -0.742188 0.332031 -0.988281 0.21875 -1.34375 C 0.101562 -1.707031 0.109375 -2.007812 0.234375 -2.25 C 0.359375 -2.5 0.546875 -2.742188 0.796875 -2.984375 L 1.109375 -3.265625 C 1.390625 -3.554688 1.613281 -3.890625 1.78125 -4.265625 C 1.945312 -4.648438 1.96875 -5.113281 1.84375 -5.65625 L -1.65625 -20.53125 C -1.820312 -21.226562 -2.015625 -21.707031 -2.234375 -21.96875 C -2.453125 -22.238281 -2.769531 -22.382812 -3.1875 -22.40625 L -3.921875 -22.4375 C -4.578125 -22.457031 -5.003906 -22.78125 -5.203125 -23.40625 C -5.328125 -23.769531 -5.296875 -24.09375 -5.109375 -24.375 C -4.929688 -24.664062 -4.59375 -24.890625 -4.09375 -25.046875 L 2.4375 -27.15625 C 2.925781 -27.3125 3.363281 -27.378906 3.75 -27.359375 C 4.132812 -27.335938 4.503906 -27.207031 4.859375 -26.96875 C 5.210938 -26.726562 5.601562 -26.34375 6.03125 -25.8125 L 13.421875 -16.734375 L 13.921875 -28.296875 C 13.972656 -29.273438 14.160156 -30 14.484375 -30.46875 C 14.804688 -30.9375 15.34375 -31.296875 16.09375 -31.546875 L 22.734375 -33.671875 C 23.234375 -33.828125 23.628906 -33.835938 23.921875 -33.703125 C 24.222656 -33.578125 24.4375 -33.332031 24.5625 -32.96875 C 24.664062 -32.644531 24.671875 -32.351562 24.578125 -32.09375 C 24.492188 -31.84375 24.332031 -31.625 24.09375 -31.4375 L 23.53125 -30.984375 C 23.21875 -30.742188 23.03125 -30.507812 22.96875 -30.28125 C 22.914062 -30.050781 22.960938 -29.738281 23.109375 -29.34375 L 29.3125 -13.765625 C 29.457031 -13.359375 29.617188 -13.085938 29.796875 -12.953125 C 29.972656 -12.828125 30.21875 -12.753906 30.53125 -12.734375 L 31.265625 -12.71875 C 31.859375 -12.6875 32.253906 -12.375 32.453125 -11.78125 C 32.566406 -11.425781 32.539062 -11.09375 32.375 -10.78125 C 32.21875 -10.46875 31.882812 -10.234375 31.375 -10.078125 L 21.859375 -7.015625 C 21.335938 -6.847656 20.921875 -6.832031 20.609375 -6.96875 C 20.304688 -7.101562 20.097656 -7.347656 19.984375 -7.703125 C 19.890625 -8.003906 19.875 -8.28125 19.9375 -8.53125 C 20 -8.789062 20.179688 -9.03125 20.484375 -9.25 L 21.046875 -9.6875 C 21.359375 -9.9375 21.546875 -10.171875 21.609375 -10.390625 C 21.671875 -10.617188 21.628906 -10.914062 21.484375 -11.28125 L 16.71875 -23 L 16.0625 -7.9375 C 16.039062 -7.289062 15.96875 -6.785156 15.84375 -6.421875 C 15.71875 -6.066406 15.546875 -5.800781 15.328125 -5.625 C 15.109375 -5.445312 14.84375 -5.304688 14.53125 -5.203125 C 14.175781 -5.085938 13.847656 -5.023438 13.546875 -5.015625 C 13.242188 -5.015625 12.921875 -5.125 12.578125 -5.34375 C 12.234375 -5.570312 11.828125 -5.976562 11.359375 -6.5625 L 1.84375 -18.171875 L 4.578125 -6.515625 C 4.710938 -5.953125 4.960938 -5.570312 5.328125 -5.375 C 5.691406 -5.1875 6.125 -5.039062 6.625 -4.9375 L 7.1875 -4.828125 C 7.425781 -4.773438 7.625 -4.679688 7.78125 -4.546875 C 7.9375 -4.421875 8.054688 -4.222656 8.140625 -3.953125 Z M 8.140625 -3.953125 "/></g></g></g><g fill="#ffffff" fill-opacity="1"><g transform="translate(174.477348, 90.576267)"><g><path d="M 9.296875 -1.140625 C 9.285156 -0.765625 9.15625 -0.46875 8.90625 -0.25 C 8.664062 -0.03125 8.285156 0.0703125 7.765625 0.0625 L 2.03125 0.015625 C 1.507812 0.015625 1.125 -0.09375 0.875 -0.3125 C 0.625 -0.539062 0.503906 -0.84375 0.515625 -1.21875 C 0.515625 -1.695312 0.785156 -2.097656 1.328125 -2.421875 L 1.71875 -2.65625 C 1.976562 -2.820312 2.195312 -3 2.375 -3.1875 C 2.5625 -3.382812 2.726562 -3.648438 2.875 -3.984375 C 3.03125 -4.316406 3.195312 -4.773438 3.375 -5.359375 L 8.09375 -20.15625 C 8.320312 -20.851562 8.40625 -21.359375 8.34375 -21.671875 C 8.289062 -21.992188 8.050781 -22.257812 7.625 -22.46875 C 7.289062 -22.632812 7.054688 -22.828125 6.921875 -23.046875 C 6.785156 -23.265625 6.722656 -23.519531 6.734375 -23.8125 C 6.734375 -24.195312 6.859375 -24.5 7.109375 -24.71875 C 7.359375 -24.9375 7.742188 -25.039062 8.265625 -25.03125 L 19.796875 -24.9375 C 20.328125 -24.925781 20.71875 -24.8125 20.96875 -24.59375 C 21.21875 -24.375 21.34375 -24.070312 21.34375 -23.6875 C 21.332031 -23.363281 21.25 -23.097656 21.09375 -22.890625 C 20.945312 -22.679688 20.738281 -22.519531 20.46875 -22.40625 C 20.164062 -22.257812 19.984375 -22.0625 19.921875 -21.8125 C 19.867188 -21.570312 19.925781 -21.1875 20.09375 -20.65625 L 24.875 -5 C 25.113281 -4.195312 25.332031 -3.601562 25.53125 -3.21875 C 25.738281 -2.84375 26.007812 -2.570312 26.34375 -2.40625 C 26.757812 -2.1875 27.035156 -1.972656 27.171875 -1.765625 C 27.316406 -1.554688 27.390625 -1.289062 27.390625 -0.96875 C 27.378906 -0.59375 27.25 -0.296875 27 -0.078125 C 26.75 0.128906 26.363281 0.234375 25.84375 0.234375 L 16.375 0.140625 C 15.832031 0.140625 15.4375 0.03125 15.1875 -0.1875 C 14.945312 -0.414062 14.832031 -0.71875 14.84375 -1.09375 C 14.84375 -1.394531 14.921875 -1.632812 15.078125 -1.8125 C 15.234375 -1.988281 15.46875 -2.148438 15.78125 -2.296875 L 16.359375 -2.5625 C 16.671875 -2.695312 16.800781 -2.890625 16.75 -3.140625 C 16.707031 -3.390625 16.609375 -3.789062 16.453125 -4.34375 L 15.421875 -7.875 L 7.484375 -7.953125 L 6.78125 -5.796875 C 6.59375 -5.191406 6.492188 -4.695312 6.484375 -4.3125 C 6.472656 -3.9375 6.582031 -3.617188 6.8125 -3.359375 C 7.039062 -3.109375 7.40625 -2.851562 7.90625 -2.59375 L 8.390625 -2.328125 C 8.660156 -2.179688 8.878906 -2.019531 9.046875 -1.84375 C 9.210938 -1.675781 9.296875 -1.441406 9.296875 -1.140625 Z M 8.328125 -10.609375 L 14.640625 -10.5625 L 11.609375 -20.90625 Z M 8.328125 -10.609375 "/></g></g></g><g fill="#ffffff" fill-opacity="1"><g transform="translate(204.683378, 91.019053)"><g><path d="M 30.828125 -7.390625 C 30.441406 -6.160156 29.742188 -5.15625 28.734375 -4.375 C 27.734375 -3.59375 26.523438 -3.117188 25.109375 -2.953125 L 26.78125 4.421875 C 26.882812 4.835938 26.988281 5.160156 27.09375 5.390625 C 27.195312 5.617188 27.359375 5.832031 27.578125 6.03125 C 27.828125 6.269531 27.988281 6.503906 28.0625 6.734375 C 28.132812 6.972656 28.125 7.242188 28.03125 7.546875 C 27.925781 7.898438 27.71875 8.140625 27.40625 8.265625 C 27.09375 8.398438 26.6875 8.390625 26.1875 8.234375 L 17.703125 5.5625 C 16.773438 5.269531 16.429688 4.738281 16.671875 3.96875 C 16.785156 3.601562 17.039062 3.351562 17.4375 3.21875 L 17.6875 3.140625 C 17.945312 3.046875 18.113281 2.925781 18.1875 2.78125 C 18.257812 2.644531 18.269531 2.40625 18.21875 2.0625 L 17.265625 -3.734375 C 16.222656 -4.097656 15.335938 -4.53125 14.609375 -5.03125 L 13.046875 -0.0625 C 12.960938 0.21875 12.945312 0.457031 13 0.65625 C 13.0625 0.863281 13.195312 1.070312 13.40625 1.28125 L 13.828125 1.6875 C 14.117188 1.957031 14.289062 2.203125 14.34375 2.421875 C 14.40625 2.648438 14.390625 2.914062 14.296875 3.21875 C 14.191406 3.570312 13.984375 3.816406 13.671875 3.953125 C 13.367188 4.085938 12.96875 4.078125 12.46875 3.921875 L 3 0.9375 C 2.488281 0.78125 2.144531 0.5625 1.96875 0.28125 C 1.800781 0 1.769531 -0.316406 1.875 -0.671875 C 1.96875 -0.972656 2.117188 -1.207031 2.328125 -1.375 C 2.535156 -1.550781 2.820312 -1.644531 3.1875 -1.65625 L 3.90625 -1.71875 C 4.5625 -1.757812 4.96875 -2.039062 5.125 -2.5625 L 10.265625 -18.921875 C 10.441406 -19.453125 10.269531 -19.914062 9.75 -20.3125 L 9.1875 -20.765625 C 8.90625 -20.984375 8.726562 -21.21875 8.65625 -21.46875 C 8.582031 -21.726562 8.585938 -22.003906 8.671875 -22.296875 C 8.785156 -22.660156 8.992188 -22.910156 9.296875 -23.046875 C 9.609375 -23.179688 10.019531 -23.171875 10.53125 -23.015625 L 20.390625 -19.90625 C 23.203125 -19.019531 25.46875 -17.914062 27.1875 -16.59375 C 28.914062 -15.28125 30.082031 -13.832031 30.6875 -12.25 C 31.300781 -10.675781 31.347656 -9.054688 30.828125 -7.390625 Z M 18.6875 -17.984375 L 15.28125 -7.15625 C 15.738281 -6.914062 16.28125 -6.695312 16.90625 -6.5 C 18.257812 -6.070312 19.429688 -6.113281 20.421875 -6.625 C 21.421875 -7.132812 22.171875 -8.179688 22.671875 -9.765625 C 22.953125 -10.691406 23.082031 -11.578125 23.0625 -12.421875 C 23.039062 -13.273438 22.882812 -14.0625 22.59375 -14.78125 C 22.300781 -15.507812 21.878906 -16.128906 21.328125 -16.640625 C 20.785156 -17.160156 20.128906 -17.539062 19.359375 -17.78125 Z M 18.6875 -17.984375 "/></g></g></g><g fill="#ffffff" fill-opacity="1"><g transform="translate(234.852116, 101.036942)"><g><path d="M 20.15625 -16.6875 L 30.109375 -9.96875 C 30.566406 -9.65625 30.984375 -9.429688 31.359375 -9.296875 C 31.734375 -9.160156 32.070312 -9.039062 32.375 -8.9375 C 32.6875 -8.832031 32.972656 -8.695312 33.234375 -8.53125 C 33.722656 -8.195312 34.003906 -7.832031 34.078125 -7.4375 C 34.160156 -7.039062 34.085938 -6.519531 33.859375 -5.875 L 31.46875 -0.28125 C 31.269531 0.164062 31.015625 0.46875 30.703125 0.625 C 30.398438 0.78125 30.054688 0.769531 29.671875 0.59375 C 29.304688 0.4375 29.039062 0.222656 28.875 -0.046875 C 28.707031 -0.316406 28.65625 -0.675781 28.71875 -1.125 C 28.863281 -2.289062 28.960938 -3.273438 29.015625 -4.078125 C 29.066406 -4.878906 29.054688 -5.546875 28.984375 -6.078125 C 28.921875 -6.609375 28.796875 -7.039062 28.609375 -7.375 C 28.421875 -7.71875 28.160156 -8.003906 27.828125 -8.234375 L 27.0625 -8.75 L 16.765625 6.515625 C 16.453125 6.972656 16.484375 7.472656 16.859375 8.015625 L 17.265625 8.59375 C 17.484375 8.882812 17.585938 9.160156 17.578125 9.421875 C 17.566406 9.679688 17.476562 9.941406 17.3125 10.203125 C 17.101562 10.515625 16.832031 10.691406 16.5 10.734375 C 16.164062 10.785156 15.78125 10.660156 15.34375 10.359375 L 6.828125 4.609375 C 6.378906 4.304688 6.113281 3.992188 6.03125 3.671875 C 5.957031 3.347656 6.023438 3.03125 6.234375 2.71875 C 6.398438 2.457031 6.601562 2.273438 6.84375 2.171875 C 7.09375 2.078125 7.390625 2.070312 7.734375 2.15625 L 8.4375 2.328125 C 9.082031 2.472656 9.5625 2.316406 9.875 1.859375 L 20.171875 -13.40625 L 19.40625 -13.921875 C 19.070312 -14.148438 18.710938 -14.285156 18.328125 -14.328125 C 17.941406 -14.378906 17.488281 -14.335938 16.96875 -14.203125 C 16.457031 -14.066406 15.835938 -13.820312 15.109375 -13.46875 C 14.378906 -13.113281 13.507812 -12.648438 12.5 -12.078125 C 12.09375 -11.847656 11.734375 -11.765625 11.421875 -11.828125 C 11.109375 -11.890625 10.8125 -12.0625 10.53125 -12.34375 C 10.238281 -12.613281 10.101562 -12.921875 10.125 -13.265625 C 10.144531 -13.617188 10.328125 -13.96875 10.671875 -14.3125 L 14.953125 -18.625 C 15.484375 -19.082031 15.945312 -19.347656 16.34375 -19.421875 C 16.738281 -19.492188 17.175781 -19.363281 17.65625 -19.03125 C 17.914062 -18.863281 18.144531 -18.65625 18.34375 -18.40625 C 18.550781 -18.164062 18.789062 -17.894531 19.0625 -17.59375 C 19.332031 -17.300781 19.695312 -17 20.15625 -16.6875 Z M 20.15625 -16.6875 "/></g></g></g><g fill="#ffffff" fill-opacity="1"><g transform="translate(104.485629, 273.650956)"><g><path d="M 27.1875 4 C 26.3125 5.082031 25.257812 5.789062 24.03125 6.125 C 22.800781 6.457031 21.460938 6.40625 20.015625 5.96875 C 18.566406 5.53125 17.082031 4.695312 15.5625 3.46875 C 14.65625 2.726562 13.910156 1.957031 13.328125 1.15625 L 10.859375 4.203125 C 10.691406 4.410156 10.59375 4.625 10.5625 4.84375 C 10.539062 5.070312 10.628906 5.304688 10.828125 5.546875 L 11.453125 6.3125 C 11.660156 6.582031 11.765625 6.835938 11.765625 7.078125 C 11.765625 7.328125 11.65625 7.585938 11.4375 7.859375 C 11.226562 8.109375 10.972656 8.238281 10.671875 8.25 C 10.378906 8.257812 10.050781 8.117188 9.6875 7.828125 L 2.171875 1.765625 C 1.804688 1.460938 1.597656 1.160156 1.546875 0.859375 C 1.503906 0.566406 1.585938 0.296875 1.796875 0.046875 C 1.960938 -0.171875 2.160156 -0.316406 2.390625 -0.390625 C 2.617188 -0.460938 2.878906 -0.445312 3.171875 -0.34375 L 3.796875 -0.140625 C 4.347656 0.0351562 4.78125 -0.0664062 5.09375 -0.453125 L 14.703125 -12.328125 C 15.015625 -12.710938 15.019531 -13.160156 14.71875 -13.671875 L 14.390625 -14.21875 C 14.234375 -14.488281 14.164062 -14.742188 14.1875 -14.984375 C 14.21875 -15.222656 14.320312 -15.453125 14.5 -15.671875 C 14.707031 -15.929688 14.957031 -16.0625 15.25 -16.0625 C 15.539062 -16.070312 15.867188 -15.925781 16.234375 -15.625 L 23.15625 -10.03125 C 24.644531 -8.820312 25.835938 -7.59375 26.734375 -6.34375 C 27.628906 -5.101562 28.238281 -3.867188 28.5625 -2.640625 C 28.882812 -1.410156 28.925781 -0.238281 28.6875 0.875 C 28.457031 2 27.957031 3.039062 27.1875 4 Z M 21.265625 -8.671875 L 14.59375 -0.421875 C 14.707031 -0.285156 14.832031 -0.15625 14.96875 -0.03125 C 15.101562 0.09375 15.25 0.21875 15.40625 0.34375 C 16.019531 0.832031 16.6875 1.148438 17.40625 1.296875 C 18.132812 1.441406 18.867188 1.359375 19.609375 1.046875 C 20.359375 0.742188 21.066406 0.179688 21.734375 -0.640625 C 22.515625 -1.597656 23.007812 -2.554688 23.21875 -3.515625 C 23.4375 -4.484375 23.40625 -5.390625 23.125 -6.234375 C 22.84375 -7.078125 22.320312 -7.804688 21.5625 -8.421875 Z M 21.265625 -8.671875 "/></g></g></g><g fill="#ffffff" fill-opacity="1"><g transform="translate(125.911601, 290.60511)"><g><path d="M 7.9375 2.578125 C 7.789062 2.878906 7.578125 3.070312 7.296875 3.15625 C 7.015625 3.238281 6.664062 3.179688 6.25 2.984375 L 1.640625 0.78125 C 1.222656 0.582031 0.953125 0.34375 0.828125 0.0625 C 0.710938 -0.207031 0.726562 -0.492188 0.875 -0.796875 C 1.050781 -1.171875 1.425781 -1.390625 2 -1.453125 L 2.375 -1.5 C 2.65625 -1.539062 2.898438 -1.601562 3.109375 -1.6875 C 3.328125 -1.769531 3.5625 -1.921875 3.8125 -2.140625 C 4.070312 -2.359375 4.382812 -2.664062 4.75 -3.0625 L 14.140625 -13.21875 C 14.585938 -13.707031 14.847656 -14.09375 14.921875 -14.375 C 14.992188 -14.65625 14.898438 -14.957031 14.640625 -15.28125 C 14.421875 -15.539062 14.296875 -15.785156 14.265625 -16.015625 C 14.242188 -16.242188 14.289062 -16.476562 14.40625 -16.71875 C 14.550781 -17.019531 14.765625 -17.207031 15.046875 -17.28125 C 15.335938 -17.363281 15.691406 -17.300781 16.109375 -17.09375 L 25.390625 -12.671875 C 25.816406 -12.472656 26.085938 -12.238281 26.203125 -11.96875 C 26.316406 -11.695312 26.300781 -11.410156 26.15625 -11.109375 C 26.03125 -10.847656 25.867188 -10.660156 25.671875 -10.546875 C 25.472656 -10.429688 25.238281 -10.375 24.96875 -10.375 C 24.675781 -10.382812 24.457031 -10.300781 24.3125 -10.125 C 24.175781 -9.945312 24.078125 -9.613281 24.015625 -9.125 L 21.984375 5.328125 C 21.878906 6.066406 21.832031 6.625 21.84375 7 C 21.863281 7.382812 21.984375 7.71875 22.203125 8 C 22.453125 8.320312 22.59375 8.59375 22.625 8.8125 C 22.664062 9.03125 22.625 9.269531 22.5 9.53125 C 22.351562 9.832031 22.132812 10.019531 21.84375 10.09375 C 21.5625 10.175781 21.207031 10.117188 20.78125 9.921875 L 13.171875 6.28125 C 12.734375 6.070312 12.457031 5.832031 12.34375 5.5625 C 12.226562 5.289062 12.242188 5.003906 12.390625 4.703125 C 12.503906 4.460938 12.660156 4.296875 12.859375 4.203125 C 13.066406 4.117188 13.316406 4.082031 13.609375 4.09375 L 14.171875 4.09375 C 14.484375 4.09375 14.664062 3.984375 14.71875 3.765625 C 14.769531 3.546875 14.835938 3.1875 14.921875 2.6875 L 15.4375 -0.546875 L 9.03125 -3.59375 L 7.671875 -2.125 C 7.273438 -1.695312 7.003906 -1.335938 6.859375 -1.046875 C 6.710938 -0.753906 6.679688 -0.457031 6.765625 -0.15625 C 6.847656 0.132812 7.039062 0.484375 7.34375 0.890625 L 7.65625 1.28125 C 7.820312 1.5 7.9375 1.707031 8 1.90625 C 8.070312 2.113281 8.050781 2.335938 7.9375 2.578125 Z M 10.734375 -5.453125 L 15.8125 -3.03125 L 17.25 -12.5 Z M 10.734375 -5.453125 "/></g></g></g><g fill="#ffffff" fill-opacity="1"><g transform="translate(151.409581, 302.468271)"><g><path d="M 26.640625 -9.40625 C 26.410156 -8.28125 25.890625 -7.320312 25.078125 -6.53125 C 24.265625 -5.738281 23.238281 -5.210938 22 -4.953125 L 24.140625 1.4375 C 24.273438 1.8125 24.398438 2.09375 24.515625 2.28125 C 24.640625 2.476562 24.8125 2.65625 25.03125 2.8125 C 25.257812 2.988281 25.414062 3.175781 25.5 3.375 C 25.582031 3.582031 25.597656 3.816406 25.546875 4.078125 C 25.484375 4.410156 25.320312 4.648438 25.0625 4.796875 C 24.800781 4.941406 24.441406 4.96875 23.984375 4.875 L 16.21875 3.296875 C 15.351562 3.117188 14.992188 2.671875 15.140625 1.953125 C 15.203125 1.640625 15.414062 1.398438 15.78125 1.234375 L 15.984375 1.15625 C 16.191406 1.039062 16.320312 0.914062 16.375 0.78125 C 16.4375 0.644531 16.421875 0.441406 16.328125 0.171875 L 14.96875 -4.90625 C 14 -5.132812 13.179688 -5.429688 12.515625 -5.796875 L 11.578125 -1.25 C 11.523438 -1 11.53125 -0.785156 11.59375 -0.609375 C 11.65625 -0.441406 11.796875 -0.273438 12.015625 -0.109375 L 12.40625 0.21875 C 12.695312 0.4375 12.878906 0.640625 12.953125 0.828125 C 13.023438 1.023438 13.035156 1.253906 12.984375 1.515625 C 12.921875 1.847656 12.757812 2.085938 12.5 2.234375 C 12.238281 2.390625 11.878906 2.421875 11.421875 2.328125 L 2.734375 0.5625 C 2.273438 0.46875 1.957031 0.300781 1.78125 0.0625 C 1.601562 -0.175781 1.546875 -0.460938 1.609375 -0.796875 C 1.660156 -1.054688 1.769531 -1.269531 1.9375 -1.4375 C 2.113281 -1.613281 2.351562 -1.722656 2.65625 -1.765625 L 3.296875 -1.890625 C 3.867188 -1.972656 4.203125 -2.253906 4.296875 -2.734375 L 7.34375 -17.71875 C 7.445312 -18.207031 7.253906 -18.609375 6.765625 -18.921875 L 6.21875 -19.25 C 5.957031 -19.425781 5.78125 -19.625 5.6875 -19.84375 C 5.59375 -20.0625 5.578125 -20.3125 5.640625 -20.59375 C 5.703125 -20.914062 5.863281 -21.144531 6.125 -21.28125 C 6.382812 -21.425781 6.742188 -21.453125 7.203125 -21.359375 L 16.25 -19.53125 C 18.820312 -19 20.929688 -18.226562 22.578125 -17.21875 C 24.222656 -16.21875 25.390625 -15.046875 26.078125 -13.703125 C 26.765625 -12.359375 26.953125 -10.925781 26.640625 -9.40625 Z M 14.921875 -17.671875 L 12.90625 -7.765625 C 13.320312 -7.578125 13.816406 -7.425781 14.390625 -7.3125 C 15.628906 -7.050781 16.664062 -7.191406 17.5 -7.734375 C 18.332031 -8.285156 18.894531 -9.296875 19.1875 -10.765625 C 19.363281 -11.609375 19.40625 -12.40625 19.3125 -13.15625 C 19.21875 -13.914062 19.003906 -14.597656 18.671875 -15.203125 C 18.335938 -15.816406 17.90625 -16.328125 17.375 -16.734375 C 16.84375 -17.140625 16.226562 -17.410156 15.53125 -17.546875 Z M 14.921875 -17.671875 "/></g></g></g><g fill="#ffffff" fill-opacity="1"><g transform="translate(180.539326, 308.063457)"><g><path d="M 10.875 -4.15625 C 10.894531 -3.894531 10.957031 -3.6875 11.0625 -3.53125 C 11.175781 -3.375 11.351562 -3.25 11.59375 -3.15625 L 12.0625 -2.9375 C 12.394531 -2.800781 12.625 -2.644531 12.75 -2.46875 C 12.875 -2.300781 12.941406 -2.082031 12.953125 -1.8125 C 12.972656 -1.476562 12.875 -1.207031 12.65625 -1 C 12.445312 -0.789062 12.109375 -0.671875 11.640625 -0.640625 L 2.796875 -0.15625 C 2.328125 -0.125 1.972656 -0.203125 1.734375 -0.390625 C 1.503906 -0.578125 1.378906 -0.835938 1.359375 -1.171875 C 1.347656 -1.441406 1.398438 -1.679688 1.515625 -1.890625 C 1.640625 -2.097656 1.84375 -2.265625 2.125 -2.390625 L 2.71875 -2.65625 C 3.25 -2.894531 3.5 -3.257812 3.46875 -3.75 L 2.625 -19 C 2.601562 -19.5 2.316406 -19.835938 1.765625 -20.015625 L 1.140625 -20.203125 C 0.835938 -20.296875 0.613281 -20.4375 0.46875 -20.625 C 0.332031 -20.820312 0.257812 -21.0625 0.25 -21.34375 C 0.226562 -21.675781 0.320312 -21.941406 0.53125 -22.140625 C 0.75 -22.347656 1.09375 -22.46875 1.5625 -22.5 L 10.71875 -23 C 11.1875 -23.03125 11.535156 -22.953125 11.765625 -22.765625 C 12.003906 -22.585938 12.132812 -22.332031 12.15625 -22 C 12.164062 -21.71875 12.113281 -21.472656 12 -21.265625 C 11.882812 -21.066406 11.679688 -20.898438 11.390625 -20.765625 L 10.796875 -20.515625 C 10.265625 -20.273438 10.007812 -19.90625 10.03125 -19.40625 L 10.453125 -11.765625 L 16.09375 -17.65625 C 16.882812 -18.519531 17.28125 -19.210938 17.28125 -19.734375 C 17.28125 -20.265625 16.984375 -20.644531 16.390625 -20.875 L 15.9375 -21.0625 C 15.644531 -21.164062 15.425781 -21.304688 15.28125 -21.484375 C 15.132812 -21.660156 15.054688 -21.890625 15.046875 -22.171875 C 15.023438 -22.503906 15.117188 -22.769531 15.328125 -22.96875 C 15.546875 -23.175781 15.890625 -23.289062 16.359375 -23.3125 L 23.421875 -23.703125 C 23.878906 -23.734375 24.222656 -23.65625 24.453125 -23.46875 C 24.679688 -23.289062 24.804688 -23.035156 24.828125 -22.703125 C 24.835938 -22.410156 24.765625 -22.179688 24.609375 -22.015625 C 24.460938 -21.847656 24.164062 -21.648438 23.71875 -21.421875 C 23.5625 -21.347656 23.40625 -21.253906 23.25 -21.140625 C 23.09375 -21.035156 22.875 -20.859375 22.59375 -20.609375 C 22.320312 -20.359375 21.945312 -20 21.46875 -19.53125 C 20.988281 -19.0625 20.359375 -18.4375 19.578125 -17.65625 L 17.671875 -15.75 L 24.9375 -5 C 25.207031 -4.59375 25.445312 -4.3125 25.65625 -4.15625 C 25.863281 -4.007812 26.070312 -3.898438 26.28125 -3.828125 C 26.570312 -3.691406 26.785156 -3.519531 26.921875 -3.3125 C 27.054688 -3.101562 27.128906 -2.867188 27.140625 -2.609375 C 27.160156 -2.273438 27.0625 -2 26.84375 -1.78125 C 26.632812 -1.570312 26.296875 -1.457031 25.828125 -1.4375 L 16.8125 -0.9375 C 16.34375 -0.90625 15.988281 -0.984375 15.75 -1.171875 C 15.519531 -1.359375 15.394531 -1.625 15.375 -1.96875 C 15.363281 -2.238281 15.414062 -2.472656 15.53125 -2.671875 C 15.65625 -2.867188 15.8125 -3.007812 16 -3.09375 L 16.421875 -3.28125 C 16.597656 -3.375 16.675781 -3.519531 16.65625 -3.71875 C 16.644531 -3.914062 16.503906 -4.222656 16.234375 -4.640625 L 12.40625 -10.4375 L 10.625 -8.65625 Z M 10.875 -4.15625 "/></g></g></g><g fill="#ffffff" fill-opacity="1"><g transform="translate(210.413096, 305.524683)"><g><path d="M 9.84375 -6.25 C 9.957031 -5.769531 10.304688 -5.5 10.890625 -5.4375 L 11.53125 -5.359375 C 11.851562 -5.335938 12.097656 -5.242188 12.265625 -5.078125 C 12.441406 -4.910156 12.5625 -4.695312 12.625 -4.4375 C 12.707031 -4.113281 12.664062 -3.828125 12.5 -3.578125 C 12.34375 -3.328125 12.035156 -3.144531 11.578125 -3.03125 L 2.703125 -0.703125 C 2.253906 -0.585938 1.894531 -0.597656 1.625 -0.734375 C 1.351562 -0.867188 1.175781 -1.097656 1.09375 -1.421875 C 1.03125 -1.679688 1.035156 -1.925781 1.109375 -2.15625 C 1.179688 -2.382812 1.34375 -2.582031 1.59375 -2.75 L 2.140625 -3.140625 C 2.597656 -3.472656 2.769531 -3.878906 2.65625 -4.359375 L -1.21875 -19.140625 C -1.34375 -19.617188 -1.691406 -19.894531 -2.265625 -19.96875 L -2.921875 -20.015625 C -3.222656 -20.054688 -3.460938 -20.15625 -3.640625 -20.3125 C -3.816406 -20.476562 -3.941406 -20.695312 -4.015625 -20.96875 C -4.097656 -21.289062 -4.050781 -21.570312 -3.875 -21.8125 C -3.707031 -22.050781 -3.398438 -22.226562 -2.953125 -22.34375 L 5.921875 -24.671875 C 6.378906 -24.785156 6.738281 -24.78125 7 -24.65625 C 7.257812 -24.53125 7.429688 -24.304688 7.515625 -23.984375 C 7.585938 -23.710938 7.585938 -23.460938 7.515625 -23.234375 C 7.453125 -23.015625 7.285156 -22.8125 7.015625 -22.625 L 6.484375 -22.265625 C 6.015625 -21.921875 5.84375 -21.507812 5.96875 -21.03125 Z M 9.84375 -6.25 "/></g></g></g><g fill="#ffffff" fill-opacity="1"><g transform="translate(226.93218, 301.467496)"><g><path d="M 7.484375 -4.75 C 7.628906 -4.445312 7.644531 -4.160156 7.53125 -3.890625 C 7.414062 -3.628906 7.144531 -3.394531 6.71875 -3.1875 L 2.234375 -1.0625 C 1.804688 -0.863281 1.445312 -0.800781 1.15625 -0.875 C 0.875 -0.957031 0.660156 -1.148438 0.515625 -1.453125 C 0.390625 -1.722656 0.347656 -1.972656 0.390625 -2.203125 C 0.441406 -2.441406 0.59375 -2.691406 0.84375 -2.953125 L 1.0625 -3.265625 C 1.40625 -3.660156 1.601562 -4.03125 1.65625 -4.375 C 1.707031 -4.71875 1.601562 -5.175781 1.34375 -5.75 L -3.765625 -16.515625 C -3.867188 -16.753906 -3.972656 -16.945312 -4.078125 -17.09375 C -4.179688 -17.238281 -4.304688 -17.367188 -4.453125 -17.484375 C -4.609375 -17.597656 -4.828125 -17.722656 -5.109375 -17.859375 L -6.90625 -18.84375 C -7.269531 -19.03125 -7.53125 -19.191406 -7.6875 -19.328125 C -7.84375 -19.460938 -7.96875 -19.625 -8.0625 -19.8125 C -8.195312 -20.101562 -8.203125 -20.375 -8.078125 -20.625 C -7.953125 -20.882812 -7.734375 -21.085938 -7.421875 -21.234375 L -2.546875 -23.546875 C -2.160156 -23.734375 -1.8125 -23.820312 -1.5 -23.8125 C -1.195312 -23.800781 -0.832031 -23.675781 -0.40625 -23.4375 L 13.703125 -15.53125 L 9.59375 -24.21875 C 9.425781 -24.5625 9.253906 -24.832031 9.078125 -25.03125 C 8.910156 -25.238281 8.703125 -25.378906 8.453125 -25.453125 C 8.210938 -25.535156 7.898438 -25.578125 7.515625 -25.578125 L 7.140625 -25.5625 C 6.765625 -25.570312 6.472656 -25.628906 6.265625 -25.734375 C 6.054688 -25.847656 5.894531 -26.035156 5.78125 -26.296875 C 5.632812 -26.597656 5.617188 -26.878906 5.734375 -27.140625 C 5.847656 -27.410156 6.113281 -27.644531 6.53125 -27.84375 L 11.03125 -29.96875 C 11.445312 -30.175781 11.796875 -30.238281 12.078125 -30.15625 C 12.367188 -30.082031 12.585938 -29.894531 12.734375 -29.59375 C 12.859375 -29.332031 12.898438 -29.082031 12.859375 -28.84375 C 12.816406 -28.601562 12.671875 -28.34375 12.421875 -28.0625 L 12.171875 -27.78125 C 11.835938 -27.375 11.640625 -27 11.578125 -26.65625 C 11.515625 -26.320312 11.617188 -25.875 11.890625 -25.3125 L 16.984375 -14.546875 C 17.160156 -14.171875 17.351562 -13.847656 17.5625 -13.578125 C 17.769531 -13.304688 18.015625 -13.09375 18.296875 -12.9375 L 19.78125 -12.140625 C 20.1875 -11.921875 20.453125 -11.734375 20.578125 -11.578125 C 20.703125 -11.429688 20.804688 -11.269531 20.890625 -11.09375 C 21.035156 -10.789062 21.050781 -10.503906 20.9375 -10.234375 C 20.820312 -9.960938 20.59375 -9.75 20.25 -9.59375 L 14.609375 -6.921875 C 13.984375 -6.617188 13.550781 -6.722656 13.3125 -7.234375 C 13.257812 -7.347656 13.191406 -7.453125 13.109375 -7.546875 C 13.023438 -7.640625 12.894531 -7.75 12.71875 -7.875 C 12.539062 -8 12.273438 -8.160156 11.921875 -8.359375 L -0.296875 -15.15625 L 3.65625 -6.8125 C 3.820312 -6.457031 3.988281 -6.179688 4.15625 -5.984375 C 4.332031 -5.796875 4.539062 -5.660156 4.78125 -5.578125 C 5.03125 -5.503906 5.351562 -5.46875 5.75 -5.46875 L 6.125 -5.453125 C 6.488281 -5.460938 6.773438 -5.410156 6.984375 -5.296875 C 7.191406 -5.191406 7.359375 -5.007812 7.484375 -4.75 Z M 7.484375 -4.75 "/></g></g></g><g fill="#ffffff" fill-opacity="1"><g transform="translate(251.654548, 289.4213)"><g><path d="M 17.09375 -14.546875 C 17.625 -13.890625 17.5625 -13.296875 16.90625 -12.765625 C 16.632812 -12.554688 16.320312 -12.429688 15.96875 -12.390625 C 15.625 -12.347656 15.269531 -12.335938 14.90625 -12.359375 C 14.550781 -12.390625 14.21875 -12.398438 13.90625 -12.390625 C 13.601562 -12.390625 13.363281 -12.316406 13.1875 -12.171875 C 12.988281 -12.015625 12.828125 -11.765625 12.703125 -11.421875 C 12.585938 -11.085938 12.4375 -10.691406 12.25 -10.234375 C 12.0625 -9.773438 11.78125 -9.273438 11.40625 -8.734375 C 11.039062 -8.203125 10.515625 -7.660156 9.828125 -7.109375 C 8.460938 -6.003906 7.070312 -5.234375 5.65625 -4.796875 C 4.238281 -4.359375 2.828125 -4.242188 1.421875 -4.453125 C 0.0234375 -4.671875 -1.316406 -5.179688 -2.609375 -5.984375 C -3.910156 -6.796875 -5.128906 -7.90625 -6.265625 -9.3125 C -7.117188 -10.375 -7.769531 -11.488281 -8.21875 -12.65625 C -8.664062 -13.832031 -8.921875 -15.019531 -8.984375 -16.21875 C -9.054688 -17.425781 -8.9375 -18.609375 -8.625 -19.765625 C -8.3125 -20.921875 -7.816406 -22.015625 -7.140625 -23.046875 C -6.460938 -24.085938 -5.609375 -25.023438 -4.578125 -25.859375 C -3.953125 -26.359375 -3.382812 -26.742188 -2.875 -27.015625 C -2.375 -27.296875 -1.921875 -27.507812 -1.515625 -27.65625 C -1.117188 -27.800781 -0.78125 -27.914062 -0.5 -28 C -0.21875 -28.09375 0.0078125 -28.210938 0.1875 -28.359375 C 0.351562 -28.492188 0.472656 -28.648438 0.546875 -28.828125 C 0.617188 -29.003906 0.671875 -29.191406 0.703125 -29.390625 C 0.742188 -29.597656 0.796875 -29.789062 0.859375 -29.96875 C 0.929688 -30.15625 1.0625 -30.320312 1.25 -30.46875 C 1.457031 -30.632812 1.679688 -30.703125 1.921875 -30.671875 C 2.171875 -30.648438 2.46875 -30.519531 2.8125 -30.28125 L 7.640625 -26.921875 C 7.921875 -26.710938 8.078125 -26.453125 8.109375 -26.140625 C 8.140625 -25.828125 8.054688 -25.535156 7.859375 -25.265625 C 7.628906 -24.972656 7.351562 -24.785156 7.03125 -24.703125 C 6.707031 -24.617188 6.375 -24.671875 6.03125 -24.859375 C 4.789062 -25.515625 3.675781 -25.898438 2.6875 -26.015625 C 1.707031 -26.128906 0.828125 -26.050781 0.046875 -25.78125 C -0.734375 -25.519531 -1.4375 -25.140625 -2.0625 -24.640625 C -2.945312 -23.921875 -3.5 -23.050781 -3.71875 -22.03125 C -3.945312 -21.019531 -3.847656 -19.90625 -3.421875 -18.6875 C -3.003906 -17.476562 -2.28125 -16.226562 -1.25 -14.9375 C 0.09375 -13.257812 1.414062 -12.019531 2.71875 -11.21875 C 4.019531 -10.425781 5.242188 -10.03125 6.390625 -10.03125 C 7.546875 -10.039062 8.578125 -10.414062 9.484375 -11.15625 C 9.898438 -11.488281 10.101562 -11.84375 10.09375 -12.21875 C 10.09375 -12.601562 9.945312 -12.976562 9.65625 -13.34375 L 7.421875 -16.109375 C 7.273438 -16.285156 7.125 -16.382812 6.96875 -16.40625 C 6.8125 -16.4375 6.578125 -16.390625 6.265625 -16.265625 L 5.59375 -16 C 5.269531 -15.863281 4.976562 -15.804688 4.71875 -15.828125 C 4.457031 -15.847656 4.242188 -15.960938 4.078125 -16.171875 C 3.878906 -16.421875 3.804688 -16.6875 3.859375 -16.96875 C 3.910156 -17.257812 4.117188 -17.550781 4.484375 -17.84375 L 10.9375 -23.03125 C 11.3125 -23.320312 11.644531 -23.460938 11.9375 -23.453125 C 12.226562 -23.453125 12.46875 -23.332031 12.65625 -23.09375 C 12.820312 -22.882812 12.898438 -22.671875 12.890625 -22.453125 C 12.890625 -22.234375 12.820312 -22 12.6875 -21.75 L 12.484375 -21.40625 C 12.367188 -21.21875 12.304688 -21.023438 12.296875 -20.828125 C 12.285156 -20.640625 12.363281 -20.4375 12.53125 -20.21875 Z M 17.09375 -14.546875 "/></g></g></g><g fill="#1f0404" fill-opacity="1"><g transform="translate(63.780072, 193.599993)"><g><path d="M 0.828125 -11.40625 C 0.828125 -11.5625 0.875 -11.679688 0.96875 -11.765625 C 1.070312 -11.859375 1.234375 -11.90625 1.453125 -11.90625 L 7.875 -11.90625 C 8.113281 -11.90625 8.304688 -11.929688 8.453125 -11.984375 C 8.597656 -12.035156 8.738281 -12.085938 8.875 -12.140625 C 9.019531 -12.191406 9.175781 -12.21875 9.34375 -12.21875 C 9.5625 -12.21875 9.722656 -12.15625 9.828125 -12.03125 C 9.941406 -11.914062 10.039062 -11.722656 10.125 -11.453125 L 10.828125 -9.0625 C 10.929688 -8.707031 10.828125 -8.476562 10.515625 -8.375 C 10.335938 -8.320312 10.175781 -8.328125 10.03125 -8.390625 C 9.894531 -8.453125 9.785156 -8.566406 9.703125 -8.734375 C 9.472656 -9.171875 9.257812 -9.53125 9.0625 -9.8125 C 8.863281 -10.09375 8.664062 -10.304688 8.46875 -10.453125 C 8.269531 -10.609375 8.050781 -10.710938 7.8125 -10.765625 C 7.582031 -10.828125 7.320312 -10.859375 7.03125 -10.859375 L 5.359375 -10.859375 L 5.359375 -6.515625 L 6.578125 -6.515625 C 6.804688 -6.515625 6.988281 -6.539062 7.125 -6.59375 C 7.269531 -6.65625 7.382812 -6.757812 7.46875 -6.90625 C 7.550781 -7.050781 7.625 -7.253906 7.6875 -7.515625 C 7.726562 -7.679688 7.796875 -7.800781 7.890625 -7.875 C 7.984375 -7.957031 8.09375 -8 8.21875 -8 C 8.34375 -8.007812 8.445312 -7.972656 8.53125 -7.890625 C 8.613281 -7.816406 8.675781 -7.710938 8.71875 -7.578125 L 9.359375 -4.96875 C 9.453125 -4.625 9.359375 -4.40625 9.078125 -4.3125 C 8.941406 -4.269531 8.8125 -4.265625 8.6875 -4.296875 C 8.570312 -4.335938 8.472656 -4.421875 8.390625 -4.546875 C 8.222656 -4.804688 8.066406 -5.003906 7.921875 -5.140625 C 7.773438 -5.273438 7.613281 -5.367188 7.4375 -5.421875 C 7.269531 -5.472656 7.050781 -5.5 6.78125 -5.5 L 5.359375 -5.5 L 5.359375 -1.984375 C 5.359375 -1.359375 5.6875 -1.046875 6.34375 -1.046875 L 7.28125 -1.046875 C 7.59375 -1.046875 7.867188 -1.078125 8.109375 -1.140625 C 8.347656 -1.210938 8.570312 -1.335938 8.78125 -1.515625 C 9 -1.691406 9.210938 -1.941406 9.421875 -2.265625 C 9.640625 -2.597656 9.867188 -3.023438 10.109375 -3.546875 C 10.242188 -3.859375 10.476562 -3.984375 10.8125 -3.921875 C 10.976562 -3.890625 11.097656 -3.8125 11.171875 -3.6875 C 11.253906 -3.5625 11.269531 -3.40625 11.21875 -3.21875 L 10.46875 -0.46875 C 10.394531 -0.207031 10.296875 -0.015625 10.171875 0.109375 C 10.054688 0.242188 9.878906 0.3125 9.640625 0.3125 C 9.492188 0.3125 9.351562 0.285156 9.21875 0.234375 C 9.082031 0.179688 8.9375 0.128906 8.78125 0.078125 C 8.632812 0.0234375 8.445312 0 8.21875 0 L 1.453125 0 C 1.234375 0 1.070312 -0.0390625 0.96875 -0.125 C 0.875 -0.21875 0.828125 -0.34375 0.828125 -0.5 C 0.828125 -0.625 0.859375 -0.726562 0.921875 -0.8125 C 0.984375 -0.90625 1.085938 -0.976562 1.234375 -1.03125 L 1.625 -1.140625 C 1.914062 -1.234375 2.0625 -1.410156 2.0625 -1.671875 L 2.0625 -10.234375 C 2.0625 -10.484375 1.914062 -10.660156 1.625 -10.765625 L 1.234375 -10.875 C 1.085938 -10.925781 0.984375 -10.992188 0.921875 -11.078125 C 0.859375 -11.171875 0.828125 -11.28125 0.828125 -11.40625 Z M 0.828125 -11.40625 "/></g></g></g><g fill="#1f0404" fill-opacity="1"><g transform="translate(75.283879, 193.599993)"><g><path d="M 5.734375 0.265625 C 5.410156 0.265625 5.117188 0.234375 4.859375 0.171875 C 4.609375 0.117188 4.390625 0.0546875 4.203125 -0.015625 C 4.015625 -0.0976562 3.851562 -0.164062 3.71875 -0.21875 C 3.582031 -0.28125 3.46875 -0.3125 3.375 -0.3125 C 3.257812 -0.3125 3.15625 -0.28125 3.0625 -0.21875 C 2.96875 -0.15625 2.875 -0.0820312 2.78125 0 C 2.695312 0.0820312 2.609375 0.148438 2.515625 0.203125 C 2.429688 0.265625 2.328125 0.296875 2.203125 0.296875 C 2.066406 0.296875 1.945312 0.25 1.84375 0.15625 C 1.75 0.0703125 1.6875 -0.0664062 1.65625 -0.265625 L 1.109375 -3.09375 C 1.066406 -3.394531 1.195312 -3.597656 1.5 -3.703125 C 1.820312 -3.816406 2.078125 -3.695312 2.265625 -3.34375 C 2.597656 -2.695312 2.941406 -2.1875 3.296875 -1.8125 C 3.648438 -1.445312 4.007812 -1.1875 4.375 -1.03125 C 4.738281 -0.882812 5.113281 -0.8125 5.5 -0.8125 C 6.03125 -0.8125 6.445312 -0.941406 6.75 -1.203125 C 7.050781 -1.460938 7.203125 -1.816406 7.203125 -2.265625 C 7.203125 -2.484375 7.164062 -2.6875 7.09375 -2.875 C 7.019531 -3.0625 6.878906 -3.238281 6.671875 -3.40625 C 6.472656 -3.570312 6.179688 -3.738281 5.796875 -3.90625 C 5.421875 -4.082031 4.925781 -4.265625 4.3125 -4.453125 C 3.4375 -4.722656 2.734375 -5.035156 2.203125 -5.390625 C 1.679688 -5.753906 1.300781 -6.191406 1.0625 -6.703125 C 0.832031 -7.210938 0.71875 -7.8125 0.71875 -8.5 C 0.71875 -9.03125 0.8125 -9.515625 1 -9.953125 C 1.195312 -10.398438 1.476562 -10.785156 1.84375 -11.109375 C 2.207031 -11.429688 2.644531 -11.679688 3.15625 -11.859375 C 3.675781 -12.035156 4.253906 -12.125 4.890625 -12.125 C 5.253906 -12.125 5.570312 -12.09375 5.84375 -12.03125 C 6.125 -11.976562 6.363281 -11.914062 6.5625 -11.84375 C 6.769531 -11.769531 6.945312 -11.703125 7.09375 -11.640625 C 7.25 -11.585938 7.390625 -11.5625 7.515625 -11.5625 C 7.617188 -11.5625 7.703125 -11.585938 7.765625 -11.640625 C 7.835938 -11.703125 7.910156 -11.773438 7.984375 -11.859375 C 8.054688 -11.941406 8.132812 -12.007812 8.21875 -12.0625 C 8.3125 -12.125 8.421875 -12.15625 8.546875 -12.15625 C 8.703125 -12.15625 8.832031 -12.101562 8.9375 -12 C 9.050781 -11.90625 9.144531 -11.722656 9.21875 -11.453125 L 9.984375 -8.671875 C 10.035156 -8.503906 10.03125 -8.347656 9.96875 -8.203125 C 9.90625 -8.066406 9.796875 -7.96875 9.640625 -7.90625 C 9.472656 -7.851562 9.328125 -7.859375 9.203125 -7.921875 C 9.078125 -7.992188 8.972656 -8.109375 8.890625 -8.265625 C 8.535156 -8.960938 8.15625 -9.515625 7.75 -9.921875 C 7.351562 -10.335938 6.941406 -10.628906 6.515625 -10.796875 C 6.085938 -10.972656 5.671875 -11.0625 5.265625 -11.0625 C 4.742188 -11.0625 4.335938 -10.914062 4.046875 -10.625 C 3.753906 -10.34375 3.609375 -9.96875 3.609375 -9.5 C 3.609375 -9.289062 3.644531 -9.09375 3.71875 -8.90625 C 3.789062 -8.71875 3.925781 -8.53125 4.125 -8.34375 C 4.320312 -8.164062 4.601562 -7.984375 4.96875 -7.796875 C 5.34375 -7.617188 5.832031 -7.421875 6.4375 -7.203125 C 7.3125 -6.898438 8.003906 -6.566406 8.515625 -6.203125 C 9.035156 -5.835938 9.410156 -5.414062 9.640625 -4.9375 C 9.878906 -4.46875 9.992188 -3.925781 9.984375 -3.3125 C 9.984375 -2.8125 9.882812 -2.34375 9.6875 -1.90625 C 9.5 -1.476562 9.222656 -1.097656 8.859375 -0.765625 C 8.492188 -0.441406 8.046875 -0.1875 7.515625 0 C 6.992188 0.175781 6.398438 0.265625 5.734375 0.265625 Z M 5.734375 0.265625 "/></g></g></g><g fill="#1f0404" fill-opacity="1"><g transform="translate(85.972053, 193.599993)"><g><path d="M 3.234375 -11.90625 L 9.046875 -11.90625 C 9.285156 -11.90625 9.484375 -11.925781 9.640625 -11.96875 C 9.804688 -12.019531 9.953125 -12.066406 10.078125 -12.109375 C 10.210938 -12.160156 10.347656 -12.1875 10.484375 -12.1875 C 10.710938 -12.1875 10.882812 -12.128906 11 -12.015625 C 11.113281 -11.898438 11.207031 -11.710938 11.28125 -11.453125 L 11.84375 -8.671875 C 11.914062 -8.265625 11.78125 -8.03125 11.4375 -7.96875 C 11.28125 -7.925781 11.140625 -7.929688 11.015625 -7.984375 C 10.898438 -8.046875 10.800781 -8.160156 10.71875 -8.328125 C 10.488281 -8.816406 10.28125 -9.222656 10.09375 -9.546875 C 9.914062 -9.867188 9.742188 -10.117188 9.578125 -10.296875 C 9.421875 -10.484375 9.257812 -10.613281 9.09375 -10.6875 C 8.925781 -10.757812 8.738281 -10.796875 8.53125 -10.796875 L 7.796875 -10.796875 L 7.796875 -1.671875 C 7.796875 -1.410156 7.9375 -1.234375 8.21875 -1.140625 L 8.625 -1.03125 C 8.769531 -0.976562 8.875 -0.90625 8.9375 -0.8125 C 9 -0.726562 9.03125 -0.625 9.03125 -0.5 C 9.03125 -0.34375 8.976562 -0.21875 8.875 -0.125 C 8.769531 -0.0390625 8.609375 0 8.390625 0 L 3.890625 0 C 3.671875 0 3.507812 -0.0390625 3.40625 -0.125 C 3.3125 -0.21875 3.265625 -0.34375 3.265625 -0.5 C 3.265625 -0.625 3.296875 -0.726562 3.359375 -0.8125 C 3.421875 -0.90625 3.523438 -0.976562 3.671875 -1.03125 L 4.078125 -1.140625 C 4.359375 -1.234375 4.5 -1.410156 4.5 -1.671875 L 4.5 -10.796875 L 3.765625 -10.796875 C 3.554688 -10.796875 3.363281 -10.757812 3.1875 -10.6875 C 3.019531 -10.613281 2.859375 -10.484375 2.703125 -10.296875 C 2.546875 -10.117188 2.375 -9.867188 2.1875 -9.546875 C 2.007812 -9.222656 1.804688 -8.816406 1.578125 -8.328125 C 1.484375 -8.160156 1.378906 -8.046875 1.265625 -7.984375 C 1.148438 -7.929688 1.007812 -7.925781 0.84375 -7.96875 C 0.5 -8.03125 0.363281 -8.265625 0.4375 -8.671875 L 1 -11.453125 C 1.070312 -11.710938 1.164062 -11.898438 1.28125 -12.015625 C 1.40625 -12.128906 1.582031 -12.1875 1.8125 -12.1875 C 1.945312 -12.1875 2.078125 -12.160156 2.203125 -12.109375 C 2.328125 -12.066406 2.46875 -12.019531 2.625 -11.96875 C 2.789062 -11.925781 2.992188 -11.90625 3.234375 -11.90625 Z M 3.234375 -11.90625 "/></g></g></g><g fill="#1f0404" fill-opacity="1"><g transform="translate(269.954664, 194.101922)"><g><path d="M 0.625 -1.3125 C 0.625 -1.71875 0.726562 -2.078125 0.9375 -2.390625 C 1.15625 -2.703125 1.472656 -2.945312 1.890625 -3.125 L 3.46875 -4.125 C 4.125 -4.507812 4.664062 -4.921875 5.09375 -5.359375 C 5.519531 -5.804688 5.84375 -6.296875 6.0625 -6.828125 C 6.28125 -7.367188 6.390625 -7.976562 6.390625 -8.65625 C 6.390625 -9.65625 6.269531 -10.367188 6.03125 -10.796875 C 5.800781 -11.234375 5.484375 -11.453125 5.078125 -11.453125 C 4.671875 -11.453125 4.378906 -11.304688 4.203125 -11.015625 C 4.023438 -10.722656 3.9375 -10.332031 3.9375 -9.84375 L 3.9375 -8.796875 C 3.9375 -8.328125 3.796875 -7.957031 3.515625 -7.6875 C 3.242188 -7.425781 2.867188 -7.296875 2.390625 -7.296875 C 1.929688 -7.296875 1.566406 -7.441406 1.296875 -7.734375 C 1.023438 -8.023438 0.890625 -8.429688 0.890625 -8.953125 C 0.890625 -9.378906 0.976562 -9.785156 1.15625 -10.171875 C 1.34375 -10.566406 1.617188 -10.914062 1.984375 -11.21875 C 2.359375 -11.519531 2.828125 -11.757812 3.390625 -11.9375 C 3.960938 -12.113281 4.632812 -12.203125 5.40625 -12.203125 C 6.414062 -12.203125 7.242188 -12.054688 7.890625 -11.765625 C 8.546875 -11.472656 9.03125 -11.066406 9.34375 -10.546875 C 9.664062 -10.023438 9.828125 -9.429688 9.828125 -8.765625 C 9.828125 -8.191406 9.671875 -7.65625 9.359375 -7.15625 C 9.054688 -6.65625 8.570312 -6.160156 7.90625 -5.671875 C 7.238281 -5.191406 6.363281 -4.679688 5.28125 -4.140625 L 3.765625 -3.390625 C 4.148438 -3.359375 4.519531 -3.304688 4.875 -3.234375 C 5.226562 -3.160156 5.578125 -3.078125 5.921875 -2.984375 C 6.265625 -2.898438 6.613281 -2.828125 6.96875 -2.765625 C 7.320312 -2.703125 7.691406 -2.671875 8.078125 -2.671875 C 8.472656 -2.671875 8.785156 -2.75 9.015625 -2.90625 C 9.253906 -3.0625 9.460938 -3.304688 9.640625 -3.640625 C 9.710938 -3.773438 9.796875 -3.867188 9.890625 -3.921875 C 9.984375 -3.972656 10.082031 -3.992188 10.1875 -3.984375 C 10.320312 -3.972656 10.421875 -3.910156 10.484375 -3.796875 C 10.546875 -3.679688 10.566406 -3.503906 10.546875 -3.265625 C 10.472656 -2.410156 10.3125 -1.71875 10.0625 -1.1875 C 9.820312 -0.664062 9.5 -0.285156 9.09375 -0.046875 C 8.695312 0.191406 8.226562 0.3125 7.6875 0.3125 C 7.25 0.3125 6.863281 0.25 6.53125 0.125 C 6.195312 0 5.898438 -0.195312 5.640625 -0.46875 C 5.390625 -0.75 5.164062 -1.117188 4.96875 -1.578125 C 4.820312 -1.859375 4.691406 -2.046875 4.578125 -2.140625 C 4.472656 -2.234375 4.347656 -2.28125 4.203125 -2.28125 C 4.046875 -2.28125 3.914062 -2.207031 3.8125 -2.0625 C 3.707031 -1.925781 3.644531 -1.695312 3.625 -1.375 C 3.570312 -0.75 3.398438 -0.3125 3.109375 -0.0625 C 2.828125 0.1875 2.445312 0.3125 1.96875 0.3125 C 1.582031 0.3125 1.257812 0.164062 1 -0.125 C 0.75 -0.414062 0.625 -0.8125 0.625 -1.3125 Z M 0.625 -1.3125 "/></g></g></g><g fill="#1f0404" fill-opacity="1"><g transform="translate(280.88923, 194.101922)"><g><path d="M 6.03125 -12.203125 C 7.175781 -12.203125 8.144531 -11.957031 8.9375 -11.46875 C 9.726562 -10.976562 10.332031 -10.265625 10.75 -9.328125 C 11.164062 -8.398438 11.375 -7.265625 11.375 -5.921875 C 11.375 -4.960938 11.242188 -4.097656 10.984375 -3.328125 C 10.734375 -2.566406 10.367188 -1.914062 9.890625 -1.375 C 9.421875 -0.832031 8.847656 -0.414062 8.171875 -0.125 C 7.503906 0.164062 6.753906 0.3125 5.921875 0.3125 C 4.785156 0.3125 3.820312 0.0664062 3.03125 -0.421875 C 2.238281 -0.921875 1.632812 -1.632812 1.21875 -2.5625 C 0.800781 -3.5 0.59375 -4.632812 0.59375 -5.96875 C 0.59375 -6.925781 0.71875 -7.785156 0.96875 -8.546875 C 1.21875 -9.316406 1.582031 -9.972656 2.0625 -10.515625 C 2.539062 -11.066406 3.113281 -11.484375 3.78125 -11.765625 C 4.457031 -12.054688 5.207031 -12.203125 6.03125 -12.203125 Z M 8.03125 -5.5625 C 8.03125 -6.945312 7.953125 -8.0625 7.796875 -8.90625 C 7.640625 -9.75 7.40625 -10.359375 7.09375 -10.734375 C 6.78125 -11.117188 6.390625 -11.3125 5.921875 -11.3125 C 5.492188 -11.3125 5.128906 -11.140625 4.828125 -10.796875 C 4.535156 -10.453125 4.3125 -9.910156 4.15625 -9.171875 C 4.007812 -8.441406 3.9375 -7.5 3.9375 -6.34375 C 3.9375 -4.957031 4.015625 -3.835938 4.171875 -2.984375 C 4.328125 -2.140625 4.5625 -1.523438 4.875 -1.140625 C 5.1875 -0.765625 5.570312 -0.578125 6.03125 -0.578125 C 6.46875 -0.578125 6.832031 -0.75 7.125 -1.09375 C 7.425781 -1.4375 7.648438 -1.972656 7.796875 -2.703125 C 7.953125 -3.441406 8.03125 -4.394531 8.03125 -5.5625 Z M 8.03125 -5.5625 "/></g></g></g><g fill="#1f0404" fill-opacity="1"><g transform="translate(292.843338, 194.101922)"><g><path d="M 0.625 -1.3125 C 0.625 -1.71875 0.726562 -2.078125 0.9375 -2.390625 C 1.15625 -2.703125 1.472656 -2.945312 1.890625 -3.125 L 3.46875 -4.125 C 4.125 -4.507812 4.664062 -4.921875 5.09375 -5.359375 C 5.519531 -5.804688 5.84375 -6.296875 6.0625 -6.828125 C 6.28125 -7.367188 6.390625 -7.976562 6.390625 -8.65625 C 6.390625 -9.65625 6.269531 -10.367188 6.03125 -10.796875 C 5.800781 -11.234375 5.484375 -11.453125 5.078125 -11.453125 C 4.671875 -11.453125 4.378906 -11.304688 4.203125 -11.015625 C 4.023438 -10.722656 3.9375 -10.332031 3.9375 -9.84375 L 3.9375 -8.796875 C 3.9375 -8.328125 3.796875 -7.957031 3.515625 -7.6875 C 3.242188 -7.425781 2.867188 -7.296875 2.390625 -7.296875 C 1.929688 -7.296875 1.566406 -7.441406 1.296875 -7.734375 C 1.023438 -8.023438 0.890625 -8.429688 0.890625 -8.953125 C 0.890625 -9.378906 0.976562 -9.785156 1.15625 -10.171875 C 1.34375 -10.566406 1.617188 -10.914062 1.984375 -11.21875 C 2.359375 -11.519531 2.828125 -11.757812 3.390625 -11.9375 C 3.960938 -12.113281 4.632812 -12.203125 5.40625 -12.203125 C 6.414062 -12.203125 7.242188 -12.054688 7.890625 -11.765625 C 8.546875 -11.472656 9.03125 -11.066406 9.34375 -10.546875 C 9.664062 -10.023438 9.828125 -9.429688 9.828125 -8.765625 C 9.828125 -8.191406 9.671875 -7.65625 9.359375 -7.15625 C 9.054688 -6.65625 8.570312 -6.160156 7.90625 -5.671875 C 7.238281 -5.191406 6.363281 -4.679688 5.28125 -4.140625 L 3.765625 -3.390625 C 4.148438 -3.359375 4.519531 -3.304688 4.875 -3.234375 C 5.226562 -3.160156 5.578125 -3.078125 5.921875 -2.984375 C 6.265625 -2.898438 6.613281 -2.828125 6.96875 -2.765625 C 7.320312 -2.703125 7.691406 -2.671875 8.078125 -2.671875 C 8.472656 -2.671875 8.785156 -2.75 9.015625 -2.90625 C 9.253906 -3.0625 9.460938 -3.304688 9.640625 -3.640625 C 9.710938 -3.773438 9.796875 -3.867188 9.890625 -3.921875 C 9.984375 -3.972656 10.082031 -3.992188 10.1875 -3.984375 C 10.320312 -3.972656 10.421875 -3.910156 10.484375 -3.796875 C 10.546875 -3.679688 10.566406 -3.503906 10.546875 -3.265625 C 10.472656 -2.410156 10.3125 -1.71875 10.0625 -1.1875 C 9.820312 -0.664062 9.5 -0.285156 9.09375 -0.046875 C 8.695312 0.191406 8.226562 0.3125 7.6875 0.3125 C 7.25 0.3125 6.863281 0.25 6.53125 0.125 C 6.195312 0 5.898438 -0.195312 5.640625 -0.46875 C 5.390625 -0.75 5.164062 -1.117188 4.96875 -1.578125 C 4.820312 -1.859375 4.691406 -2.046875 4.578125 -2.140625 C 4.472656 -2.234375 4.347656 -2.28125 4.203125 -2.28125 C 4.046875 -2.28125 3.914062 -2.207031 3.8125 -2.0625 C 3.707031 -1.925781 3.644531 -1.695312 3.625 -1.375 C 3.570312 -0.75 3.398438 -0.3125 3.109375 -0.0625 C 2.828125 0.1875 2.445312 0.3125 1.96875 0.3125 C 1.582031 0.3125 1.257812 0.164062 1 -0.125 C 0.75 -0.414062 0.625 -0.8125 0.625 -1.3125 Z M 0.625 -1.3125 "/></g></g></g><g fill="#1f0404" fill-opacity="1"><g transform="translate(303.777904, 194.101922)"><g><path d="M 5.578125 -5.53125 C 5.578125 -5.675781 5.597656 -5.796875 5.640625 -5.890625 C 5.691406 -5.992188 5.765625 -6.09375 5.859375 -6.1875 L 7.78125 -7.9375 C 7.914062 -8.0625 8.023438 -8.140625 8.109375 -8.171875 C 8.191406 -8.210938 8.273438 -8.234375 8.359375 -8.234375 C 8.472656 -8.234375 8.5625 -8.195312 8.625 -8.125 C 8.6875 -8.0625 8.71875 -7.957031 8.71875 -7.8125 L 8.734375 -3.984375 L 9.953125 -3.984375 C 10.128906 -3.984375 10.273438 -3.945312 10.390625 -3.875 C 10.503906 -3.800781 10.5625 -3.6875 10.5625 -3.53125 C 10.5625 -3.1875 10.351562 -3.015625 9.9375 -3.015625 L 8.734375 -3.015625 L 8.734375 -1.78125 C 8.734375 -1.601562 8.769531 -1.472656 8.84375 -1.390625 C 8.925781 -1.304688 9.039062 -1.238281 9.1875 -1.1875 L 9.8125 -1 C 9.976562 -0.945312 10.101562 -0.882812 10.1875 -0.8125 C 10.269531 -0.738281 10.3125 -0.632812 10.3125 -0.5 C 10.3125 -0.34375 10.257812 -0.21875 10.15625 -0.125 C 10.050781 -0.0390625 9.894531 0 9.6875 0 L 4.515625 0 C 4.097656 0 3.890625 -0.164062 3.890625 -0.5 C 3.890625 -0.757812 4.050781 -0.925781 4.375 -1 L 5.140625 -1.1875 C 5.285156 -1.226562 5.394531 -1.289062 5.46875 -1.375 C 5.539062 -1.457031 5.578125 -1.585938 5.578125 -1.765625 L 5.578125 -3.015625 L 0.9375 -3.015625 C 0.726562 -3.015625 0.566406 -3.066406 0.453125 -3.171875 C 0.335938 -3.273438 0.28125 -3.414062 0.28125 -3.59375 C 0.28125 -3.695312 0.3125 -3.804688 0.375 -3.921875 C 0.445312 -4.035156 0.566406 -4.171875 0.734375 -4.328125 L 3.78125 -7.421875 C 4.039062 -7.671875 4.234375 -7.894531 4.359375 -8.09375 C 4.484375 -8.300781 4.546875 -8.507812 4.546875 -8.71875 C 4.546875 -8.90625 4.515625 -9.070312 4.453125 -9.21875 C 4.390625 -9.375 4.316406 -9.53125 4.234375 -9.6875 C 4.160156 -9.84375 4.09375 -10.007812 4.03125 -10.1875 C 3.96875 -10.375 3.9375 -10.585938 3.9375 -10.828125 C 3.9375 -11.296875 4.109375 -11.679688 4.453125 -11.984375 C 4.796875 -12.285156 5.3125 -12.4375 6 -12.4375 C 6.550781 -12.4375 6.992188 -12.296875 7.328125 -12.015625 C 7.671875 -11.742188 7.84375 -11.351562 7.84375 -10.84375 C 7.84375 -10.625 7.800781 -10.394531 7.71875 -10.15625 C 7.644531 -9.925781 7.492188 -9.660156 7.265625 -9.359375 C 7.046875 -9.054688 6.710938 -8.695312 6.265625 -8.28125 L 1.84375 -3.984375 L 5.578125 -3.984375 Z M 5.578125 -5.53125 "/></g></g></g></svg>